<?xml version="1.0" encoding="UTF-8" standalone="no"?>
<!-- Created with Inkscape (http://www.inkscape.org/) -->

<svg
   width="174mm"
   height="37mm"
   viewBox="0 0 174 37"
   version="1.1"
   id="svg2260"
   xml:space="preserve"
   inkscape:version="1.2.2 (732a01da63, 2022-12-09)"
   sodipodi:docname="ai_lab_logo.svg"
   xmlns:inkscape="http://www.inkscape.org/namespaces/inkscape"
   xmlns:sodipodi="http://sodipodi.sourceforge.net/DTD/sodipodi-0.dtd"
   xmlns="http://www.w3.org/2000/svg"
   xmlns:svg="http://www.w3.org/2000/svg"><sodipodi:namedview
     id="namedview2262"
     pagecolor="#ffffff"
     bordercolor="#000000"
     borderopacity="0.25"
     inkscape:showpageshadow="2"
     inkscape:pageopacity="0.0"
     inkscape:pagecheckerboard="0"
     inkscape:deskcolor="#d1d1d1"
     inkscape:document-units="mm"
     showgrid="false"
     inkscape:zoom="1.2623761"
     inkscape:cx="688.78048"
     inkscape:cy="254.28239"
     inkscape:window-width="2560"
     inkscape:window-height="1417"
     inkscape:window-x="1912"
     inkscape:window-y="-8"
     inkscape:window-maximized="1"
     inkscape:current-layer="layer1" /><defs
     id="defs2257" /><g
     inkscape:label="Laag 1"
     inkscape:groupmode="layer"
     id="layer1"><path
       style="fill:#000000;stroke-width:0.108513"
       d="m 3.4291717,27.994575 v -9.02582 l -1.681957,-4.43136 c -0.925076,-2.43725 -1.68195602,-4.4795 -1.68195602,-4.53834 0,-0.0657 0.64872902,-0.10698 1.68085002,-0.10698 h 1.680851 l 0.02823,-4.91022 0.02823,-4.91023001 H 21.98494 40.486459 l 0.02744,18.47439001 0.02744,18.47439 H 21.985259 3.4291717 Z m 18.4751803,-0.57398 c 1.497085,-0.31725 3.115269,-1.48722 3.80194,-2.74886 0.656014,-1.20531 0.657346,-1.22095 0.701333,-8.24173 l 0.04028,-6.42941 h -1.521982 -1.521981 l -0.03129,6.26664 c -0.03472,6.95469 -0.009,6.70379 -0.769254,7.49693 -0.590914,0.61646 -1.106469,0.82644 -2.029125,0.82644 -0.922656,0 -1.438212,-0.20998 -2.029125,-0.82644 -0.760274,-0.79314 -0.734529,-0.54224 -0.769254,-7.49693 l -0.03129,-6.26664 h -2.16959 c -1.600853,0 -2.261125,0.0392 -2.518773,0.1494 -0.809755,0.34647 -0.857891,0.45379 -2.962522,6.60478 -1.0875623,3.17851 -2.0187543,5.76146 -2.0693153,5.7399 -0.05056,-0.0216 -1.068552,-2.79812 -2.262198,-6.17014 l -2.170266,-6.13095 -0.02936,4.43394 -0.02936,4.43393 1.492381,4.04487 1.49238,4.04488 1.556754,-0.0299 1.556753,-0.0299 2.4890803,-6.88335 c 1.368993,-3.78585 2.512684,-6.90696 2.541535,-6.93581 0.02885,-0.0289 0.05246,1.88097 0.05246,4.24405 0,5.62583 0.113478,6.39966 1.137484,7.75676 1.367293,1.81205 3.711004,2.64365 6.052312,2.14751 z m 13.526147,-0.53501 c 3.072155,-0.79261 4.761614,-3.87547 3.691386,-6.73592 -0.285956,-0.76428 -1.107284,-1.66919 -1.884242,-2.07598 l -0.595118,-0.31158 0.531672,-0.46509 c 0.316387,-0.27677 0.655238,-0.71673 0.836837,-1.08654 0.272772,-0.55548 0.305167,-0.73664 0.305167,-1.70658 0,-0.98918 -0.02984,-1.1481 -0.337408,-1.79717 -0.408108,-0.86124 -1.225067,-1.71052 -2.019141,-2.09902 -1.06106,-0.51913 -1.79992,-0.60317 -5.320768,-0.60523 l -3.228271,-0.002 v 8.58332 8.58331 l 3.662324,-0.0511 c 2.92679,-0.0409 3.801955,-0.0872 4.357562,-0.2305 z m -4.873,-4.99048 v -2.23683 h 1.773224 c 1.216553,0 1.933468,0.0482 2.283672,0.15362 1.370232,0.41238 2.02813,1.66282 1.489215,2.8305 -0.253854,0.55002 -0.579322,0.84832 -1.261187,1.15588 -0.477152,0.21523 -0.762784,0.24942 -2.413069,0.28889 l -1.871855,0.0448 z m 0,-7.05093 v -1.80521 h 1.604707 c 1.448598,0 1.651722,0.0238 2.088005,0.24415 0.695953,0.35159 1.004399,0.85773 0.948395,1.55626 -0.05465,0.68167 -0.375743,1.16087 -0.987921,1.47437 -0.382549,0.19591 -0.698103,0.2395 -2.052614,0.28357 l -1.600572,0.0521 z m 16.846042,13.52722 0.02778,-8.649 0.560472,0.0297 c 0.3416,0.0181 0.683794,-0.034 0.876261,-0.13355 0.32002,-0.16549 0.992101,-0.8481 1.198976,-1.21777 0.103223,-0.18445 0.164531,-0.15335 0.704456,0.35729 0.632556,0.59824 1.083813,0.76288 1.748952,0.6381 0.522232,-0.098 0.907323,-0.43967 1.056449,-0.93741 0.07057,-0.23553 0.17045,-0.42823 0.221966,-0.42823 0.05151,0 0.275732,0.12018 0.498261,0.26706 1.248642,0.82419 2.786774,0.77227 3.489301,-0.11779 0.199402,-0.25263 0.237053,-0.40931 0.197738,-0.8229 -0.09272,-0.97543 -0.882414,-1.67516 -2.299575,-2.03761 -0.471221,-0.12052 -0.873923,-0.23628 -0.894894,-0.25725 -0.02097,-0.021 0.160531,-0.16959 0.403335,-0.33027 1.238987,-0.81992 1.753035,-1.56471 1.761471,-2.55213 0.02065,-2.41713 -3.436652,-3.74004 -6.099301,-2.33384 -0.773754,0.40863 -0.868971,0.37815 -0.87255,-0.27931 -0.0026,-0.47829 -0.328751,-1.0212 -0.786985,-1.31003 -0.292047,-0.18408 -0.481501,-0.21478 -1.087433,-0.17617 l -0.733772,0.0467 0.02844,-4.02773 0.02844,-4.02773001 18.474391,-0.0274 18.474391,-0.0274 V 18.518565 37.020395 H 65.877931 47.375763 Z m 6.766251,7.75662 c 0.464467,-1.03151 1.431421,-1.9416 3.09553,-2.91349 0.396296,-0.23145 1.952791,-0.96035 3.458877,-1.61979 3.090879,-1.35332 4.038883,-1.8684 4.851332,-2.63584 1.04202,-0.98429 1.162304,-1.98898 0.37298,-3.11536 -0.759375,-1.08364 -0.898175,-1.45798 -1.002396,-2.70342 -0.124106,-1.48306 -0.15731,-1.60621 -0.555254,-2.05945 -0.40445,-0.46064 -0.755568,-1.23431 -0.993399,-2.18892 -0.213639,-0.85749 -0.220085,-1.36711 -0.02182,-1.72519 0.146462,-0.26452 0.13851,-0.27168 -0.793604,-0.71462 -1.013932,-0.48183 -1.688164,-0.9971 -1.783939,-1.36335 -0.127301,-0.4868 0.825505,-0.96449 1.923792,-0.96449 0.19762,0 0.579074,-0.0301 0.847675,-0.0669 l 0.488364,-0.0669 0.07686,-1.58789 c 0.04227,-0.87334 0.14466,-1.97718 0.22753,-2.45298 0.324661,-1.86402 1.518566,-3.5002 3.130862,-4.29065 1.219132,-0.5977 2.173293,-0.78053 4.082351,-0.78225 1.911469,-0.002 2.865858,0.18016 4.076068,0.77674 1.454055,0.71679 2.641645,2.14956 3.018839,3.64207 0.206966,0.81893 0.392512,2.61972 0.392512,3.80946 0,0.50097 0.03662,0.91251 0.08138,0.91452 1.049218,0.0471 2.411829,0.24704 2.724018,0.39968 0.891094,0.43568 0.452802,1.1684 -1.177257,1.96808 -1.046434,0.51337 -1.057804,0.52312 -0.913675,0.7833 0.208812,0.37694 0.186671,1.01671 -0.06685,1.93156 -0.26362,0.95131 -0.532885,1.50332 -0.983827,2.01691 -0.308781,0.35168 -0.343209,0.47239 -0.44191,1.54933 -0.14859,1.6213 -0.24853,1.94686 -0.906335,2.95242 -0.963955,1.47356 -0.917,2.23224 0.205206,3.31564 0.370919,0.3581 0.989774,0.82164 1.375233,1.03009 0.704712,0.3811 3.201491,1.53003 4.363157,2.00777 l 0.623952,0.2566 V 16.395275 0.55993499 H 65.932838 47.919629 V 3.978105 7.396275 l 0.406925,10e-4 c 0.684693,0.002 1.496578,0.45554 1.870755,1.04556 0.179651,0.28328 0.326639,0.59748 0.326639,0.69822 0,0.16174 0.07934,0.15062 0.678208,-0.0951 0.894709,-0.36708 2.334229,-0.45019 3.339002,-0.19278 1.221922,0.31304 2.134941,0.97397 2.661441,1.92659 0.268663,0.48611 0.318643,0.69701 0.316789,1.33676 -0.0027,0.91893 -0.255432,1.54038 -0.903717,2.22187 -0.247194,0.25986 -0.437143,0.48041 -0.422109,0.49012 0.01503,0.01 0.198243,0.0832 0.407131,0.16335 1.624033,0.62306 2.447788,2.3349 1.681089,3.49347 -0.617879,0.93367 -2.222579,1.24108 -3.57549,0.68493 -0.669412,-0.27518 -0.667599,-0.27552 -0.928739,0.17896 -0.178141,0.31003 -0.999999,0.63452 -1.607091,0.63452 -0.600907,0 -1.382016,-0.29886 -1.700288,-0.65055 -0.17715,-0.19575 -0.194128,-0.18995 -0.515611,0.1762 -0.394641,0.44947 -0.979111,0.7673 -1.590923,0.86514 l -0.444011,0.071 v 8.07037 8.07037 h 3.021892 3.021892 l 0.206379,-0.45833 z m 19.250464,-0.9828 v -1.44114 l 0.32017,-0.12085 c 0.360334,-0.13601 0.763945,-0.7188 0.764558,-1.10398 6.51e-4,-0.39759 -0.308097,-0.95042 -0.606752,-1.0865 -0.825869,-0.37629 -1.744684,0.0751 -1.846792,0.90733 -0.06597,0.53772 0.254404,1.10623 0.723107,1.28315 l 0.32017,0.12085 v 1.44114 c 0,1.20867 0.02625,1.44114 0.16277,1.44114 0.136514,0 0.162769,-0.23247 0.162769,-1.44114 z m -0.71737,-2.06837 c -0.379527,-0.32646 -0.396842,-0.83335 -0.04139,-1.21171 0.523515,-0.55725 1.446014,-0.16555 1.446014,0.614 0,0.40499 -0.445881,0.85182 -0.85002,0.85182 -0.14255,0 -0.392121,-0.11435 -0.554601,-0.25411 z m 7.049991,3.18831 c -0.05249,-0.26246 -0.0016,-0.38382 0.278345,-0.66377 0.288591,-0.28859 0.397477,-0.33198 0.690902,-0.2753 0.449034,0.0867 0.728117,0.42882 0.728117,0.89249 0,0.24688 0.0511,0.36778 0.155458,0.36778 0.23044,0 0.311196,-0.38627 0.170122,-0.81373 -0.166063,-0.50318 -0.622023,-0.81397 -1.19416,-0.81397 -0.373087,0 -0.52189,0.0666 -0.824227,0.36894 -0.299603,0.29961 -0.368945,0.45257 -0.368945,0.81385 0,0.37069 0.03575,0.44491 0.214313,0.44491 0.179608,0 0.203911,-0.052 0.150075,-0.3212 z m 3.418677,-2.02684 -0.793517,-0.79885 H 80.61707 78.856104 l -0.176246,-0.37141 c -0.104336,-0.21987 -0.327786,-0.44332 -0.547657,-0.54766 l -0.371412,-0.17624 v -0.97153 -0.97153 h -3.038373 c -2.613318,0 -3.038372,0.0225 -3.038372,0.16097 0,0.13746 0.41601,0.16519 2.848474,0.1899 l 2.848474,0.0289 0.03158,0.77171 0.03158,0.77171 -0.342825,0.142 c -0.401842,0.16645 -0.750229,0.68345 -0.750804,1.11418 -0.0017,1.30903 1.766424,1.74217 2.323088,0.56909 l 0.182494,-0.38458 h 1.652283 1.652282 l 0.865561,0.87215 c 0.746432,0.75211 0.870603,0.83965 0.902203,0.63608 0.02693,-0.17348 -0.173741,-0.44786 -0.756879,-1.03492 z m -5.953332,0.14509 c -0.149205,-0.075 -0.333848,-0.26692 -0.410317,-0.4264 -0.401124,-0.83656 0.658034,-1.58539 1.338376,-0.94624 0.668694,0.6282 -0.112097,1.78303 -0.928059,1.37264 z m 4.19884,-2.2984 c 0.249388,-0.22061 0.276243,-0.28784 0.14846,-0.37166 -0.10827,-0.071 -0.237257,-0.0384 -0.421559,0.10656 -0.380508,0.29931 -0.743996,0.26044 -1.124702,-0.12026 -0.240382,-0.24039 -0.315353,-0.40135 -0.277984,-0.59683 0.02814,-0.14722 0.03752,-0.26767 0.02084,-0.26767 -0.01668,0 -0.107575,-0.0296 -0.201979,-0.0659 -0.137472,-0.0528 -0.171645,0.0141 -0.171645,0.33593 0,0.46444 0.262781,0.96704 0.588163,1.12493 0.438405,0.21272 1.112668,0.14479 1.44041,-0.14514 z m -4.307353,-2.93181 c -0.09706,-0.11695 -0.353783,-0.16277 -0.911919,-0.16277 h -0.776831 l -0.614268,-0.62396 c -0.566058,-0.57498 -0.601986,-0.64048 -0.457784,-0.83459 0.380051,-0.51158 0.06635,-1.49254 -0.561146,-1.75473 l -0.377674,-0.1578 0.03221,-0.67463 0.03221,-0.67462 2.078156,-0.0294 c 1.714868,-0.0243 2.088921,-0.0575 2.139733,-0.1899 0.05316,-0.13854 -0.256731,-0.16047 -2.268054,-0.16047 h -2.329625 l -0.0023,0.89524 -0.0023,0.89523 -0.35032,0.16277 c -0.515556,0.23955 -0.777279,0.83254 -0.621984,1.40926 0.162701,0.60423 0.625973,0.89778 1.322392,0.83793 0.496087,-0.0426 0.523078,-0.0286 1.135993,0.59079 l 0.627831,0.63445 h 1.020432 c 0.894747,0 1.003793,-0.02 0.885345,-0.16277 z m -4.177762,-1.48172 c -0.339163,-0.18551 -0.48831,-0.42952 -0.48831,-0.79889 0,-0.85394 1.183656,-1.13173 1.577457,-0.37021 0.228111,0.44112 0.199175,0.61959 -0.158437,0.97721 -0.335907,0.3359 -0.576654,0.38554 -0.93071,0.19189 z m 3.223435,-0.12854 c -0.117906,-0.12896 -0.24692,-0.3419 -0.286695,-0.4732 -0.09177,-0.30295 0.189713,-0.86233 0.480353,-0.95458 0.120083,-0.0381 0.269671,-0.16522 0.332419,-0.28246 0.103975,-0.19428 0.08713,-0.20654 -0.190013,-0.13826 -0.726299,0.17893 -1.087025,0.70765 -0.972856,1.42592 0.07782,0.4896 0.748262,1.1914 0.813676,0.85173 0.02062,-0.10707 -0.05898,-0.30019 -0.176884,-0.42915 z m -3.580021,-4.58997 0.215252,-0.36483 h 2.539345 c 2.184853,0 2.539344,-0.0227 2.539344,-0.16277 0,-0.14007 -0.355683,-0.16277 -2.550063,-0.16277 -2.518197,0 -2.550062,-0.003 -2.550062,-0.22788 0,-0.26716 -0.659355,-0.96577 -0.911512,-0.96577 -0.277194,0 -0.201419,0.26418 0.150381,0.52428 0.178201,0.13175 0.351818,0.35037 0.385815,0.48582 0.08938,0.35611 -0.120055,0.81778 -0.436355,0.9619 -0.150404,0.0685 -0.273462,0.21188 -0.273462,0.31856 0,0.31886 0.633908,0.0297 0.891317,-0.40654 z m 3.36431,-2.30911 c 0.841655,-0.94198 -0.119235,-2.39364 -1.301438,-1.96615 l -0.37696,0.13631 -1.288615,-1.28526 c -1.104742,-1.10186 -1.288614,-1.24651 -1.288614,-1.01373 0,0.20018 0.296354,0.56687 1.127858,1.39555 l 1.127857,1.12401 -0.05744,0.63352 c -0.05585,0.61589 -0.04639,0.64457 0.340002,1.03096 0.370711,0.37071 0.431689,0.39359 0.906436,0.34008 0.391505,-0.0441 0.578677,-0.13537 0.810919,-0.39529 z m -1.178516,-0.009 c -0.295767,-0.11807 -0.581305,-0.52246 -0.581305,-0.82327 0,-0.12787 0.101206,-0.36116 0.224902,-0.51842 0.173476,-0.22054 0.320553,-0.28591 0.643204,-0.28591 0.753047,0 1.122137,0.7936 0.623952,1.34159 -0.289608,0.31856 -0.59162,0.4134 -0.910753,0.28601 z m 3.613986,0.21044 c 0.08125,-0.0812 0.01995,-0.21043 -0.208019,-0.4384 -0.269504,-0.2695 -0.312031,-0.38108 -0.255932,-0.67153 0.0952,-0.49286 0.451141,-0.75563 0.95808,-0.70729 0.32677,0.0312 0.410705,0.002 0.410705,-0.14184 0,-0.23857 -0.415299,-0.33439 -0.87629,-0.20218 l -0.369584,0.106 -1.927126,-1.9249 -1.927125,-1.92489 v -1.38468 c 0,-1.19694 0.02354,-1.38467 0.173621,-1.38467 0.09549,0 0.339647,-0.16603 0.542566,-0.36895 0.309414,-0.30941 0.368946,-0.44712 0.368946,-0.85347 0,-0.58898 -0.279624,-0.98857 -0.815547,-1.16544 -0.804971,-0.26566 -1.571746,0.29354 -1.571746,1.14626 0,0.50207 0.358804,1.06013 0.764359,1.18885 0.197037,0.0625 0.212261,0.17378 0.212261,1.55105 v 1.48367 l 1.964806,1.96696 c 1.772403,1.77435 1.953046,1.98893 1.844726,2.19133 -0.211348,0.39491 -0.142933,0.95442 0.160849,1.31545 0.306303,0.36402 0.377013,0.39211 0.55045,0.21867 z m -4.854718,-9.31712 c -0.374423,-0.37442 -0.403946,-0.73689 -0.09229,-1.1331 0.449338,-0.57124 1.511311,-0.19787 1.511311,0.53135 0,0.34788 -0.539468,0.91895 -0.868107,0.91895 -0.128547,0 -0.376457,-0.14274 -0.550913,-0.3172 z m 4.737323,4.9957 c 0.183803,-0.11209 0.397259,-0.35606 0.474347,-0.54216 l 0.140159,-0.33838 h 1.159741 c 0.851729,0 1.215684,-0.0423 1.37038,-0.15932 0.188872,-0.14285 0.06975,-0.15967 -1.152809,-0.16277 l -1.363447,-0.004 -0.172977,-0.36274 c -0.353633,-0.74157 -1.383201,-0.91302 -1.968431,-0.3278 -0.769108,0.76911 -0.228257,2.1004 0.85331,2.1004 0.179047,0 0.475924,-0.0917 0.659727,-0.20378 z m -1.016857,-0.23215 c -0.277309,-0.11391 -0.573905,-0.70827 -0.483171,-0.96824 0.289514,-0.82954 1.342537,-0.87955 1.647198,-0.0782 0.258757,0.68057 -0.466809,1.33286 -1.164027,1.04646 z m 1.026707,-4.46091 c 0.255694,-0.23761 0.271625,-0.30756 0.213939,-0.93936 -0.07475,-0.81868 -0.102355,-0.8702 -0.571223,-1.06611 l -0.36655,-0.15315 v -0.90017 c 0,-0.62349 -0.04897,-0.96491 -0.159319,-1.1108 -0.143471,-0.18969 -0.159662,-0.0997 -0.16277,0.9043 -0.0033,1.05442 -0.01671,1.12007 -0.247606,1.20927 -0.623725,0.24093 -0.945258,0.93749 -0.731594,1.5849 0.264328,0.80093 1.388717,1.0625 2.025123,0.47112 z m -1.212144,-0.10812 c -0.34048,-0.19035 -0.48831,-0.43299 -0.48831,-0.80151 0,-0.59244 0.640218,-0.97595 1.243042,-0.74462 0.259671,0.0996 0.508087,0.64923 0.431458,0.95455 -0.128276,0.51109 -0.763489,0.82789 -1.18619,0.59158 z m -2.608041,-3.06992 c 0.921192,-0.3849 0.930018,-1.67216 0.01517,-2.21194 -0.287,-0.16933 -0.384498,-0.30563 -0.410891,-0.5744 -0.05162,-0.52559 -0.30589,-0.54092 -0.30589,-0.0184 0,0.37784 -0.04119,0.44264 -0.385795,0.60698 -0.374894,0.17877 -0.699338,0.69437 -0.699338,1.11137 0,0.35631 0.349888,0.89988 0.685911,1.06559 0.430021,0.21207 0.63393,0.21593 1.100837,0.0208 z m -1.100582,-0.52398 c -0.314649,-0.34956 -0.355773,-0.53726 -0.199266,-0.90948 0.188508,-0.44833 0.689113,-0.65488 1.104576,-0.45576 0.439272,0.21054 0.635972,0.6668 0.465201,1.07908 -0.237945,0.57445 -0.972882,0.7279 -1.370511,0.28616 z m 29.674911,24.11834 c -0.71832,-0.21654 -1.26418,-0.87221 -1.42391,-1.71035 l -0.0672,-0.35266 h 0.4856 c 0.45145,0 0.4856,0.02 0.4856,0.28405 0,0.18527 0.1465,0.43055 0.42128,0.70533 0.34442,0.34442 0.49787,0.42121 0.84098,0.42088 0.47812,-4.3e-4 1.04945,-0.30668 1.24141,-0.66538 0.0716,-0.13384 0.13024,-0.43203 0.13024,-0.66263 0,-0.60679 -0.40946,-0.98675 -1.43042,-1.32736 -1.49089,-0.49739 -1.96193,-0.9629 -1.96268,-1.93964 -7.6e-4,-0.95896 0.52125,-1.6353 1.48085,-1.91874 1.15361,-0.34075 2.43026,0.36677 2.60502,1.44371 l 0.0656,0.40438 h -0.43649 c -0.38587,0 -0.44508,-0.0346 -0.51055,-0.29842 -0.1679,-0.67648 -0.82543,-1.01691 -1.52084,-0.7874 -0.50447,0.16649 -0.81592,0.5809 -0.81592,1.08565 0,0.53673 0.35047,0.87869 1.22118,1.19154 1.02329,0.36767 1.69123,0.76205 1.91931,1.13326 0.63331,1.03068 0.20578,2.38957 -0.91148,2.89706 -0.45653,0.20738 -1.30137,0.25233 -1.8176,0.0967 z m 23.60256,-0.0883 c -1.5637,-0.55833 -2.44418,-1.7887 -2.46151,-3.43964 -0.012,-1.1458 0.25938,-1.8103 1.07114,-2.62258 0.58082,-0.58118 0.77305,-0.70096 1.45941,-0.90944 0.95452,-0.28992 1.80483,-0.23989 2.67226,0.15723 0.61757,0.28274 1.34645,0.94498 1.61798,1.47004 l 0.17133,0.33131 h -0.47822 c -0.41625,0 -0.51466,-0.0478 -0.75934,-0.36858 -0.43421,-0.56926 -1.26716,-0.93408 -2.12611,-0.9312 -0.85768,0.003 -1.41675,0.2359 -1.98089,0.82566 -0.54742,0.57228 -0.76677,1.14248 -0.76677,1.9933 0,1.16457 0.49262,2.02311 1.46634,2.55556 0.47642,0.26051 0.69506,0.31137 1.32975,0.30933 0.87663,-0.003 1.40485,-0.22658 2.00166,-0.84788 0.31702,-0.33004 0.44599,-0.38931 0.84711,-0.38931 h 0.47316 l -0.19604,0.33515 c -0.29151,0.4984 -1.06686,1.17327 -1.64189,1.42914 -0.71702,0.31904 -1.95983,0.36596 -2.69937,0.10191 z m 16.52925,-0.0149 c -1.52595,-0.61439 -2.38333,-1.86538 -2.38441,-3.47905 -0.001,-1.48045 0.7847,-2.69474 2.15388,-3.32892 0.55061,-0.25504 0.79342,-0.30157 1.57345,-0.30157 0.76663,0 1.02533,0.0479 1.53221,0.2836 0.68433,0.31824 1.35422,0.88065 1.64793,1.38355 l 0.19604,0.33564 h -0.47927 c -0.40253,0 -0.54658,-0.0635 -0.89966,-0.39648 -0.61083,-0.57609 -1.16165,-0.79197 -2.02786,-0.79478 -0.8511,-0.003 -1.28498,0.15102 -1.86634,0.66146 -1.16023,1.0187 -1.25178,3.04593 -0.18728,4.14707 0.6551,0.67765 1.14286,0.88307 2.08423,0.87779 1.10878,-0.006 1.83683,-0.39008 2.43143,-1.28193 0.48041,-0.72057 0.48703,-0.71732 -1.46169,-0.71732 h -1.74308 l 0.034,-0.35267 0.034,-0.35267 h 2.22452 2.22453 l -0.0309,0.43406 c -0.047,0.66077 -0.61187,1.72466 -1.14967,2.16535 -0.75048,0.61496 -1.40535,0.8535 -2.45464,0.89415 -0.72524,0.0281 -1.03543,-0.01 -1.45143,-0.17728 z m 13.85298,0.0594 c -1.61363,-0.52696 -2.56447,-1.79423 -2.57349,-3.42994 -0.007,-1.20486 0.25421,-1.85442 1.07419,-2.6749 0.56325,-0.56361 0.7817,-0.70285 1.40459,-0.89524 0.92337,-0.2852 1.47652,-0.28713 2.37928,-0.008 1.72982,0.53429 2.81427,2.35913 2.463,4.14458 -0.24701,1.25554 -0.84687,2.06891 -1.91285,2.59369 -0.57461,0.28288 -0.8681,0.35596 -1.54348,0.38436 -0.50874,0.0214 -1.01229,-0.0232 -1.29124,-0.11426 z m 2.48334,-1.00896 c 0.92699,-0.50454 1.42111,-1.38404 1.42111,-2.52949 0,-0.83472 -0.18908,-1.33541 -0.73069,-1.93492 -0.57625,-0.63783 -1.16024,-0.88693 -2.07253,-0.88404 -0.92959,0.003 -1.47062,0.23144 -2.03804,0.86074 -0.56215,0.62345 -0.74107,1.09849 -0.74107,1.96748 0,1.39929 0.81705,2.48032 2.13516,2.82501 0.54112,0.14151 1.46007,0.003 2.02606,-0.30478 z m 4.83035,1.04962 c -0.47809,-0.1435 -1.03015,-0.61916 -1.2961,-1.11672 -0.23362,-0.43704 -0.24316,-0.56347 -0.24316,-3.22198 v -2.76709 l 0.39714,-0.0331 0.39713,-0.0331 0.0369,2.69167 c 0.0337,2.45826 0.0557,2.72354 0.25394,3.05919 0.60824,1.03003 2.028,0.97276 2.57702,-0.10395 0.16518,-0.32392 0.18976,-0.71271 0.1899,-3.00353 v -2.63145 h 0.43405 0.43406 l -0.002,2.73996 c -0.002,2.43863 -0.0246,2.78895 -0.20468,3.18541 -0.24763,0.54527 -0.5794,0.87396 -1.14935,1.13867 -0.45575,0.21166 -1.29264,0.2557 -1.82465,0.096 z m -72.969622,-3.55198 0.0286,-3.55381 1.59088,0.008 c 1.47186,0.007 1.62993,0.0276 2.11285,0.27609 1.03909,0.53474 1.42774,1.94212 0.85418,3.09311 -0.26637,0.53453 -0.87611,1.0181 -1.28375,1.0181 -0.3575,0 -0.27413,0.24816 0.44549,1.3262 0.40949,0.61344 0.78063,1.17639 0.82475,1.25099 0.0593,0.1002 -0.0459,0.13564 -0.40237,0.13564 h -0.48259 l -0.96161,-1.48459 c -0.52889,-0.81652 -0.97558,-1.51763 -0.99264,-1.55801 -0.0171,-0.0404 0.26545,-0.10032 0.62783,-0.13318 0.36237,-0.0329 0.78152,-0.14011 0.93144,-0.23835 0.90409,-0.59238 0.91817,-2.11503 0.0246,-2.65983 -0.29527,-0.18002 -0.5475,-0.21907 -1.4172,-0.21941 l -1.05801,-4e-4 v 3.14688 3.14689 h -0.43553 -0.43554 z m 5.72556,-0.0296 v -3.58339 l 1.98037,0.0296 1.980362,0.0296 v 0.3798 0.37979 l -1.546312,0.0301 -1.54631,0.0301 v 1.13344 1.13343 l 1.54631,0.0301 1.546312,0.0301 v 0.37979 0.3798 l -1.546312,0.0301 -1.54631,0.0301 v 1.19067 1.19066 h 1.57344 1.573432 v 0.3798 0.3798 h -2.007482 -2.0075 z m 9.983222,0.002 v -3.58094 h 1.95324 1.95323 v 0.43405 0.43406 h -1.51918 -1.51919 v 1.13938 1.13939 h 1.51919 1.51918 v 0.43406 0.43405 h -1.51918 -1.51919 v 1.19365 1.19364 h 1.51919 1.51918 v 0.3798 0.3798 h -1.95323 -1.95324 z m 4.61694,3.17401 c 0.094,-0.22381 0.70988,-1.70058 1.3687,-3.28172 1.54801,-3.71507 1.42636,-3.49328 1.89371,-3.4523 l 0.37997,0.0333 1.45877,3.52365 c 0.80233,1.938 1.45878,3.53722 1.45878,3.55381 0,0.0166 -0.21463,0.0302 -0.47695,0.0302 h -0.47695 l -0.37982,-0.94949 -0.37982,-0.94949 -1.62834,-0.0299 -1.62834,-0.0299 -0.40595,0.97939 -0.40594,0.97938 h -0.47432 -0.47431 z m 4.4675,-2.44155 c -0.66165,-1.66532 -1.19561,-2.97627 -1.24447,-3.05531 -0.0455,-0.0736 -1.32918,2.98115 -1.32918,3.16291 0,0.0154 0.5912,0.028 1.31377,0.028 1.00742,0 1.30121,-0.0316 1.25988,-0.13564 z m 2.66063,-0.70533 0.0286,-3.55381 1.59088,0.007 c 1.47185,0.007 1.62992,0.0276 2.11285,0.27609 1.03908,0.53473 1.42774,1.94212 0.85418,3.09311 -0.26637,0.53453 -0.87612,1.0181 -1.28375,1.0181 -0.3575,0 -0.27414,0.24816 0.44549,1.3262 0.40949,0.61344 0.78062,1.17639 0.82476,1.25099 0.0592,0.10017 -0.0455,0.13564 -0.40041,0.13564 h -0.48062 l -0.99616,-1.54631 -0.99615,-1.54631 0.65005,-0.0741 c 0.35752,-0.0408 0.7384,-0.12173 0.84642,-0.17994 0.98687,-0.53186 1.05922,-2.1556 0.12152,-2.7273 -0.29528,-0.18002 -0.5475,-0.21907 -1.41721,-0.2194 l -1.058,-4.2e-4 v 3.14689 3.14689 h -0.43554 -0.43553 l 0.0286,-3.55382 z m 13.21299,-0.0337 v -3.58749 l 0.40692,0.0337 0.40693,0.0337 0.0301,1.54631 0.0301,1.54632 h 1.62174 1.62175 l 0.0301,-1.54632 0.0301,-1.54631 0.40692,-0.0337 0.40693,-0.0337 v 3.58748 3.58749 h -0.43405 -0.43406 v -1.62769 -1.6277 h -1.6277 -1.6277 v 1.6277 1.62769 h -0.43405 -0.43405 z m 17.06223,0.0337 0.0286,-3.55381 1.59088,0.007 c 1.47186,0.007 1.62993,0.0276 2.11286,0.27609 1.03908,0.53473 1.42774,1.94212 0.85417,3.09311 -0.26637,0.53453 -0.87612,1.0181 -1.28375,1.0181 -0.35749,0 -0.27413,0.24816 0.44549,1.3262 0.40949,0.61344 0.78063,1.17639 0.82476,1.25099 0.0592,0.10017 -0.0455,0.13564 -0.4004,0.13564 h -0.48063 l -0.99615,-1.54631 -0.99615,-1.54632 0.65004,-0.0741 c 0.73602,-0.0839 0.93415,-0.16961 1.30254,-0.56347 0.33643,-0.3597 0.42616,-1.16369 0.19233,-1.72331 -0.2697,-0.6455 -0.70597,-0.83937 -1.88988,-0.83985 l -1.00374,-4.1e-4 v 3.14688 3.14689 h -0.4898 -0.48979 z m 19.72378,-0.041 v -3.59485 l 1.49206,0.0536 c 0.82063,0.0295 1.63855,0.11226 1.81759,0.18391 0.98177,0.39284 1.4936,1.63782 1.12279,2.73106 -0.3447,1.0163 -0.95047,1.36928 -2.5277,1.47289 l -1.03663,0.0681 v 1.34005 1.34005 h -0.43406 -0.43405 z m 2.98039,-0.14031 c 0.91167,-0.38092 0.95157,-1.93375 0.0615,-2.39401 -0.2117,-0.10948 -0.62903,-0.16461 -1.24606,-0.16461 h -0.92775 v 1.35642 1.35642 h 0.87158 c 0.5078,0 1.02566,-0.0644 1.2407,-0.15422 z m -49.36983,-6.46219 c -1.05534,-0.41879 -1.84346,-1.30423 -2.17451,-2.443 -0.5079,-1.74709 0.35713,-3.58977 2.04057,-4.34683 0.54833,-0.24659 0.8307,-0.30406 1.49036,-0.30333 1.15293,10e-4 1.93048,0.32231 2.73915,1.13099 0.34362,0.34361 0.62476,0.67749 0.62476,0.74194 0,0.0658 -0.20523,0.1172 -0.46801,0.1172 -0.38392,0 -0.52528,-0.061 -0.78672,-0.33927 -0.4975,-0.52957 -1.28571,-0.85207 -2.08554,-0.85332 -1.10998,-0.002 -1.94526,0.47357 -2.44462,1.39105 -0.79652,1.46347 -0.26866,3.30502 1.16567,4.06667 0.62455,0.33164 1.99167,0.33324 2.61314,0.003 0.55124,-0.29287 0.99328,-0.73348 1.2596,-1.25551 l 0.20832,-0.40835 h -1.73842 -1.73841 v -0.3798 -0.37979 h 2.23927 2.23926 l -0.0668,0.48763 c -0.14597,1.06496 -1.04583,2.20982 -2.11386,2.68938 -0.73991,0.33224 -2.26668,0.37356 -3.00318,0.0813 z m 20.21572,0.0197 c -1.07816,-0.39167 -1.97033,-1.30937 -2.28384,-2.34923 -0.4916,-1.63044 0.26796,-3.52543 1.73034,-4.31699 1.55535,-0.84188 3.29121,-0.55261 4.47833,0.74628 0.67013,0.73323 0.69393,0.90571 0.12505,0.90571 -0.35137,0 -0.46775,-0.0611 -0.70229,-0.36857 -0.60023,-0.78694 -1.91435,-1.13753 -3.021,-0.80597 -0.57019,0.17083 -1.31626,0.84579 -1.61341,1.4596 -0.47128,0.97354 -0.25056,2.50258 0.47315,3.27773 0.78536,0.84119 2.11068,1.11332 3.13599,0.64392 0.32436,-0.1485 0.76234,-0.44771 0.97328,-0.66491 0.303,-0.31198 0.46668,-0.39491 0.77949,-0.39491 0.56354,0 0.51291,0.21477 -0.22798,0.96711 -0.456,0.46304 -0.79301,0.69564 -1.25198,0.86412 -0.77225,0.28347 -1.87209,0.29877 -2.59513,0.0361 z m -51.170622,-3.46791 0.0286,-3.55381 h 0.3798 0.3798 l 0.0286,3.55381 0.0286,3.55381 h -0.43702 -0.43702 z m 2.17027,0 0.0286,-3.55381 0.38609,-0.0324 0.38608,-0.0324 2.00121,2.85301 2.00121,2.85301 0.0543,-2.82057 0.0543,-2.82058 h 0.3798 0.37979 l 0.0286,3.55381 0.0286,3.55381 h -0.41265 -0.41264 l -2.00326,-2.8452 -2.00326,-2.84521 -0.0289,2.84521 -0.0289,2.8452 h -0.43374 -0.43373 z m 8.112842,0.40692 v -3.14688 h -0.8681 -0.86811 v -0.43635 -0.43635 l 2.14314,0.0294 2.14314,0.0294 0.0337,0.40693 0.0337,0.40692 h -0.87465 -0.87466 v 3.14689 3.14688 h -0.43405 -0.43406 z m 3.19616,3.01025 c -0.0288,-0.0752 -0.0395,-1.67437 -0.0237,-3.55381 l 0.0287,-3.41717 h 1.95324 1.95324 l 0.0337,0.40692 0.0337,0.40693 h -1.57999 -1.57999 v 1.13641 1.13641 l 1.54631,0.0301 1.54632,0.0301 v 0.3798 0.37979 l -1.54632,0.0301 -1.54631,0.0301 v 1.19067 1.19067 h 1.57344 1.57344 v 0.37979 0.3798 h -1.95665 c -1.47282,0 -1.9696,-0.0338 -2.00907,-0.13664 z m 4.99161,0 c -0.0288,-0.0752 -0.0395,-1.67437 -0.0237,-3.55381 l 0.0287,-3.41717 h 0.43405 0.43405 l 0.0288,3.17401 0.0288,3.17402 h 1.30052 1.30052 v 0.37979 0.3798 h -1.73962 c -1.29837,0 -1.75291,-0.0347 -1.79205,-0.13664 z m 4.18275,-3.44816 v -3.59018 l 0.40693,0.0337 0.40692,0.0337 0.0288,3.17069 0.0288,3.17068 1.32766,0.0305 1.32765,0.0305 v 0.32554 0.32554 l -1.76334,0.0298 -1.76334,0.0298 z m 4.14915,0.031 0.0286,-3.55381 h 0.3798 0.3798 l 0.0286,3.55381 0.0286,3.55381 h -0.43702 -0.43702 z m 10.20025,0 0.0286,-3.55381 h 1.95324 1.95324 l 0.0337,0.40692 0.0337,0.40693 h -1.57999 -1.58 v 1.13641 1.13641 l 1.54632,0.0301 1.54631,0.0301 v 0.37979 0.3798 l -1.54631,0.0301 -1.54632,0.0301 v 1.19067 1.19067 h 1.57345 1.57344 v 0.37979 0.3798 h -2.00898 -2.00897 z m 4.99161,0 0.0286,-3.55381 0.39232,-0.0328 0.39231,-0.0328 1.99498,2.84193 1.99497,2.84193 0.0543,-2.80912 0.0543,-2.80913 0.40692,-0.0337 0.40693,-0.0337 v 3.58749 3.58749 l -0.40693,-9.7e-4 -0.40692,-9.8e-4 -2.0075,-2.85628 -2.0075,-2.85627 -0.0289,2.85724 -0.0289,2.85725 h -0.43376 -0.43376 l 0.0286,-3.55381 z m 14.62366,-0.0271 v -3.58584 l 1.98036,0.0296 1.98037,0.0296 v 0.3798 0.3798 l -1.54631,0.0301 -1.54632,0.0301 v 1.13641 1.13641 h 1.51919 1.51919 v 0.43405 0.43405 h -1.51919 -1.51919 v 1.19067 1.19067 l 1.54632,0.0301 1.54631,0.0301 v 0.32554 0.32554 l -1.98037,0.0296 -1.98036,0.0296 z m -28.51427,-6.41472 c -1.2336,-0.15732 -2.26645,-0.93973 -2.83132,-2.14481 -0.23433,-0.49989 -0.28589,-0.76677 -0.28596,-1.48023 -7e-5,-0.76478 0.0432,-0.9583 0.35657,-1.59486 0.64834,-1.31698 1.80147,-2.03866 3.25548,-2.03745 0.92154,7.6e-4 1.39329,0.13264 2.0462,0.57201 0.48812,0.32849 1.23226,1.16731 1.23226,1.38906 0,0.055 -0.17627,0.10007 -0.39171,0.10007 -0.31638,0 -0.50131,-0.10017 -0.96167,-0.52091 -0.62432,-0.57059 -1.15734,-0.78181 -1.96886,-0.78018 -1.00945,0.002 -2.08903,0.74325 -2.5157,1.72726 -0.22196,0.5119 -0.22029,1.78644 0.003,2.30181 0.26454,0.61052 0.89647,1.23649 1.51834,1.504 0.45513,0.19579 0.70253,0.23307 1.27499,0.19211 0.83311,-0.0596 1.27084,-0.26145 1.8409,-0.84886 0.33308,-0.34321 0.4937,-0.42834 0.80819,-0.42834 0.52877,0 0.50611,0.17571 -0.11127,0.86237 -0.83936,0.93357 -1.98759,1.35043 -3.26947,1.18695 z m -28.679022,-0.34024 c 0.053,-0.13428 0.69145,-1.66025 1.41879,-3.39104 0.72734,-1.73078 1.34817,-3.21043 1.37963,-3.28809 0.0369,-0.0911 0.20997,-0.1296 0.48736,-0.10852 l 0.43016,0.0327 0.91945,2.22453 c 0.50569,1.22348 1.15742,2.80083 1.44828,3.50522 l 0.52884,1.2807 -0.49206,-0.0328 -0.49206,-0.0328 -0.38909,-0.95221 -0.38909,-0.95221 -1.6192,0.0298 -1.61921,0.0299 -0.37982,0.94949 -0.37982,0.94949 h -0.47426 c -0.44803,0 -0.46893,-0.0135 -0.3779,-0.24416 z m 4.3567,-2.98411 c -0.11246,-0.28349 -0.36101,-0.90609 -0.55232,-1.38355 -0.19132,-0.47745 -0.39563,-0.99018 -0.45404,-1.13939 -0.0956,-0.2442 -0.1649,-0.12537 -0.69426,1.19039 -0.32344,0.80392 -0.61566,1.54859 -0.64938,1.65483 -0.0565,0.17791 0.0419,0.19316 1.24659,0.19316 h 1.30788 z m 2.81196,-0.29841 v -3.52669 h 1.50299 c 1.536712,0 2.002442,0.0842 2.541582,0.45979 0.6293,0.43834 0.99798,1.71237 0.73026,2.52358 -0.20495,0.62099 -0.81336,1.23168 -1.36564,1.37074 l -0.46824,0.11791 0.8647,1.29067 0.8647,1.29068 h -0.49003 -0.49003 l -0.9363,-1.43702 c -0.51497,-0.79036 -0.959857,-1.49841 -0.988657,-1.57345 -0.038,-0.0991 0.10678,-0.13646 0.528957,-0.13658 0.33947,-10e-5 0.73548,-0.0791 0.9519,-0.1899 0.73067,-0.37408 0.98163,-1.40919 0.53453,-2.2047 -0.31632,-0.56282 -0.8178,-0.75212 -1.992457,-0.75212 h -0.920155 v 3.14688 3.14689 h -0.43406 -0.43405 z m 6.727822,0.37979 v -3.14688 h -0.86811 -0.86811 v -0.3798 -0.3798 h 2.17027 2.17027 v 0.3798 0.3798 h -0.86811 -0.86811 v 3.14688 3.14689 h -0.43405 -0.43405 z m 3.14688,-0.37979 v -3.52669 h 0.48831 0.48831 v 3.52669 3.52668 h -0.48831 -0.48831 z m 2.27878,0 v -3.52669 h 1.79047 1.79047 v 0.3798 0.3798 h -1.35642 -1.35641 v 1.19364 1.19365 h 1.35641 1.35642 v 0.3798 0.37979 h -1.35642 -1.35641 v 1.57345 1.57344 h -0.43406 -0.43405 z m 4.34053,0 v -3.52669 h 0.43406 0.43405 v 3.52669 3.52668 h -0.43405 -0.43406 z m 9.7662,0 v -3.52669 h 0.43405 0.43406 v 3.52669 3.52668 h -0.43406 -0.43405 z m 1.51704,3.45153 c -10e-4,-0.0482 0.64481,-1.64027 1.43552,-3.53794 l 1.43766,-3.45033 0.43013,0.0322 0.43012,0.0322 1.2599,3.03838 c 0.69293,1.6711 1.34234,3.2459 1.44313,3.49955 l 0.18324,0.46118 h -0.47198 -0.47198 l -0.40479,-0.97662 -0.4048,-0.97662 h -1.60679 -1.60679 l -0.3793,0.94949 -0.37929,0.94949 -0.44592,0.0334 c -0.24525,0.0183 -0.44688,-0.006 -0.44806,-0.0543 z m 4.52848,-2.77332 c -0.03,-0.0746 -0.31217,-0.78266 -0.62716,-1.57345 -0.31497,-0.79079 -0.60485,-1.4378 -0.64417,-1.4378 -0.0633,0 -0.299,0.56334 -1.07818,2.57719 l -0.22041,0.5697 h 1.31218 c 1.00645,0 1.2995,-0.0316 1.25774,-0.13564 z m 2.74406,-0.67821 v -3.52669 h 0.43405 0.43406 v 3.14355 3.14355 l 1.32928,0.0305 1.32929,0.0305 0.034,0.35267 0.034,0.35266 h -1.79734 -1.79735 z"
       id="path3899" /></g></svg>
