<?xml version="1.0" encoding="UTF-8" standalone="no"?>
<!-- Created with Inkscape (http://www.inkscape.org/) -->

<svg
   width="217mm"
   height="49mm"
   viewBox="0 0 217 49"
   version="1.1"
   id="svg4635"
   xml:space="preserve"
   inkscape:version="1.2.2 (732a01da63, 2022-12-09)"
   sodipodi:docname="upc_logo.svg"
   xmlns:inkscape="http://www.inkscape.org/namespaces/inkscape"
   xmlns:sodipodi="http://sodipodi.sourceforge.net/DTD/sodipodi-0.dtd"
   xmlns="http://www.w3.org/2000/svg"
   xmlns:svg="http://www.w3.org/2000/svg"><sodipodi:namedview
     id="namedview4637"
     pagecolor="#ffffff"
     bordercolor="#000000"
     borderopacity="0.25"
     inkscape:showpageshadow="2"
     inkscape:pageopacity="0.0"
     inkscape:pagecheckerboard="0"
     inkscape:deskcolor="#d1d1d1"
     inkscape:document-units="mm"
     showgrid="false"
     inkscape:zoom="1.2623761"
     inkscape:cx="196.45493"
     inkscape:cy="136.251"
     inkscape:window-width="2560"
     inkscape:window-height="1417"
     inkscape:window-x="1912"
     inkscape:window-y="-8"
     inkscape:window-maximized="1"
     inkscape:current-layer="layer1" /><defs
     id="defs4632" /><g
     inkscape:label="Laag 1"
     inkscape:groupmode="layer"
     id="layer1"><path
       style="fill:#000000;stroke-width:0.0460275"
       d="m 21.818521,47.821832 c -0.525721,-0.04541 -1.136741,-0.114926 -1.35781,-0.154482 -0.221069,-0.03956 -0.52622,-0.09269 -0.67811,-0.118084 -0.371088,-0.06203 -1.254709,-0.253174 -1.680009,-0.363424 -0.876293,-0.227159 -1.087951,-0.285895 -1.1737,-0.325705 -0.107827,-0.05006 -0.598494,-0.214193 -0.903533,-0.302238 -0.117216,-0.03384 -0.276708,-0.0944 -0.354433,-0.13459 -0.07772,-0.04019 -0.165956,-0.07307 -0.19608,-0.07307 -0.0301,0 -0.139898,-0.03933 -0.243933,-0.0874 -0.104029,-0.04807 -0.323783,-0.143947 -0.488332,-0.213053 -0.666147,-0.27976 -1.502772,-0.679762 -1.979183,-0.946265 -0.13923,-0.07789 -0.377424,-0.208267 -0.529314,-0.289733 -0.15189,-0.08146 -0.338306,-0.186656 -0.414251,-0.233756 C 11.433975,44.340719 11.323258,44.269666 10.881064,43.977537 10.126236,43.478876 9.6460622,43.120325 8.828047,42.444514 8.0692376,41.81762 7.5718257,41.349235 6.6458432,40.389671 6.1507663,39.876635 4.9387208,38.424037 4.9387208,38.343736 c 0,-0.02406 -0.026234,-0.06031 -0.058306,-0.08055 -0.032072,-0.02024 -0.089048,-0.08086 -0.1265772,-0.134691 -0.2049628,-0.294019 -1.0118021,-1.499988 -1.0118021,-1.512331 0,-0.008 -0.082212,-0.146053 -0.1826955,-0.306814 C 3.458849,36.148588 3.3344802,35.934205 3.2829547,35.832946 3.2314007,35.731685 3.1035578,35.493493 2.9987977,35.303629 2.7924846,34.929726 2.6154579,34.576064 2.3997695,34.106912 2.3241195,33.942365 2.2239384,33.724884 2.1771322,33.623624 c -0.046771,-0.10126 -0.099921,-0.235891 -0.1180459,-0.299179 -0.018146,-0.06329 -0.071479,-0.187256 -0.1185664,-0.275483 -0.047052,-0.08823 -0.085609,-0.178304 -0.085609,-0.200168 0,-0.02187 -0.030665,-0.105021 -0.068152,-0.184791 -0.079244,-0.168567 -0.2352057,-0.606799 -0.3218974,-0.904495 -0.033197,-0.113917 -0.092037,-0.289973 -0.1308043,-0.391232 -0.038753,-0.101262 -0.11595,-0.349811 -0.1715196,-0.552331 -0.055563,-0.202522 -0.1478388,-0.53392 -0.20504709,-0.736442 -0.1130172,-0.400098 -0.2848815,-1.212863 -0.4331,-2.048225 -0.354384,-1.997262 -0.4196735,-4.587486 -0.1693816,-6.720019 0.1456092,-1.240672 0.3780649,-2.448332 0.67331329,-3.498094 0.081881,-0.291124 0.1768579,-0.632879 0.2110606,-0.759454 0.034181,-0.126575 0.083365,-0.271562 0.1092614,-0.322192 0.025882,-0.05063 0.075755,-0.195617 0.1108157,-0.322193 0.035026,-0.126575 0.1193119,-0.375125 0.187232,-0.552331 0.067941,-0.177205 0.1532684,-0.405042 0.1896513,-0.506302 0.062877,-0.174936 0.1635299,-0.418557 0.3423571,-0.828496 0.1266546,-0.290346 0.5518141,-1.189483 0.5985148,-1.265758 0.02328,-0.03797 0.1162313,-0.214028 0.2066155,-0.391233 0.1506099,-0.295259 0.241831,-0.457677 0.5386479,-0.959024 0.057462,-0.09711 0.1361002,-0.231736 0.1746986,-0.299179 0.085482,-0.149383 0.5080955,-0.795144 0.5622022,-0.859065 0.021451,-0.02531 0.1053931,-0.149875 0.1865849,-0.276801 C 4.670409,10.120253 5.5221345,9.0083905 5.8029296,8.6997221 5.8605316,8.6364321 5.9847811,8.4875431 6.0790898,8.3688641 6.288603,8.1052281 8.0317849,6.3710061 8.4138658,6.0460901 9.0647156,5.4926144 9.3189743,5.2881932 9.8398562,4.8995996 10.143165,4.6733261 10.424445,4.4674772 10.464935,4.4421646 c 0.206074,-0.1288631 0.393313,-0.2516779 0.434422,-0.2849451 0.02532,-0.020467 0.13923,-0.097446 0.253148,-0.1710273 0.113917,-0.073575 0.258907,-0.1683336 0.322193,-0.2105753 0.0633,-0.04227 0.405044,-0.2371327 0.759456,-0.4330929 0.354412,-0.1959602 0.675451,-0.374907 0.713424,-0.3976595 0.349046,-0.2091194 2.536623,-1.1953064 2.651454,-1.1953064 0.02166,0 0.153698,-0.044028 0.29342,-0.097882 0.139723,-0.053804 0.326532,-0.1250788 0.415137,-0.158339 0.146847,-0.055141 0.639835,-0.2055957 1.426855,-0.4355124 0.593437,-0.17336944 1.558172,-0.38267864 2.232337,-0.48432304 0.253147,-0.038191 0.625972,-0.1000831 0.828494,-0.1375914 0.544085,-0.1007582 2.171493,-0.2039077 3.221928,-0.2042171 2.468858,-6.963e-4 4.762799,0.3398602 7.042209,1.04558984 0.506647,0.1568623 1.03139,0.3336921 1.19672,0.403279 0.07595,0.032001 0.220928,0.084223 0.322193,0.1161329 0.101258,0.031931 0.224965,0.086136 0.274894,0.1205075 0.04994,0.034393 0.118538,0.062526 0.152446,0.062526 0.0339,0 0.17946,0.053242 0.323458,0.1183132 0.143992,0.065057 0.35501,0.1604423 0.468928,0.2119257 0.293321,0.1325695 1.596187,0.7871252 1.827341,0.918049 0.464222,0.2629307 0.82168,0.4748563 0.997863,0.591594 1.247436,0.8265821 1.219107,0.8070508 1.731527,1.1937243 1.141404,0.8612978 2.505431,2.1166265 3.437631,3.1636895 0.777989,0.8738574 1.854061,2.2984219 2.337891,3.0950509 0.02483,0.04084 0.133548,0.210406 0.241649,0.376812 0.108101,0.166403 0.196544,0.318548 0.196544,0.338099 0,0.01955 0.03882,0.09053 0.08626,0.157721 0.156764,0.222017 0.691797,1.25631 1.015607,1.963277 0.08116,0.177206 0.187485,0.398791 0.236275,0.492407 0.04881,0.09362 0.08889,0.19718 0.08913,0.230138 5.28e-4,0.03296 0.05134,0.163486 0.113636,0.290061 0.06224,0.126574 0.113854,0.261775 0.114642,0.300443 6.96e-4,0.03867 0.02849,0.111164 0.06147,0.161098 0.03299,0.04994 0.128328,0.30827 0.211806,0.574076 0.08347,0.26581 0.182934,0.555784 0.221012,0.644387 0.100147,0.232984 0.364336,1.214895 0.501548,1.864116 0.03749,0.177205 0.09756,0.425754 0.133575,0.55233 0.03601,0.126576 0.08786,0.406192 0.115212,0.621371 0.02736,0.215179 0.06907,0.453372 0.09264,0.529317 0.02356,0.07595 0.07503,0.469481 0.114304,0.874522 0.03924,0.405044 0.09085,0.881428 0.114613,1.058635 0.07149,0.533076 0.05669,3.164844 -0.0211,3.738154 -0.037,0.273008 -0.08948,0.744928 -0.116597,1.04871 -0.02708,0.303782 -0.06956,0.627966 -0.09435,0.720411 -0.02476,0.09244 -0.06548,0.330638 -0.09038,0.529316 -0.0249,0.19868 -0.07559,0.464797 -0.112581,0.591374 -0.03699,0.126576 -0.09787,0.375124 -0.135285,0.55233 -0.170429,0.80722 -0.360186,1.476979 -0.665063,2.347404 -0.368852,1.053077 -0.421397,1.192046 -0.468541,1.23919 -0.02476,0.02474 -0.04494,0.07679 -0.04494,0.11566 0,0.03887 -0.05394,0.184898 -0.119854,0.324494 -0.0659,0.139598 -0.167637,0.357374 -0.226041,0.483951 -0.18937,0.410381 -0.578632,1.190843 -0.711651,1.426853 -0.07135,0.126575 -0.173328,0.312987 -0.226626,0.414248 -0.05331,0.101259 -0.147262,0.266959 -0.208795,0.368221 -0.103839,0.170874 -0.259295,0.430436 -0.372945,0.622703 -0.0263,0.0445 -0.07727,0.116391 -0.11327,0.159764 -0.03601,0.04337 -0.08697,0.114562 -0.113271,0.158201 -0.398229,0.660658 -1.400395,1.974798 -2.150814,2.820352 -0.426918,0.481037 -1.325098,1.377001 -1.885155,1.880503 -0.47108,0.423507 -1.503236,1.273866 -1.742289,1.435416 -0.0633,0.04277 -0.218628,0.151829 -0.345205,0.242356 -0.126578,0.09053 -0.437257,0.300852 -0.690411,0.467391 -0.253155,0.166539 -0.512056,0.338014 -0.575348,0.381054 -0.132021,0.08979 -0.582809,0.351101 -1.09606,0.635366 -0.394642,0.218577 -1.834094,0.930911 -1.885675,0.933157 -0.01822,8.44e-4 -0.136628,0.05238 -0.263205,0.114645 -0.126571,0.06227 -0.262242,0.113399 -0.30148,0.113634 -0.03925,0 -0.09159,0.02068 -0.116358,0.04543 -0.02476,0.02476 -0.158347,0.08492 -0.296873,0.13371 -0.986377,0.347361 -1.665915,0.576795 -1.862832,0.628948 -0.12657,0.03353 -0.354412,0.09524 -0.506302,0.137135 -0.849038,0.234201 -1.362106,0.343917 -2.255349,0.482295 -0.3291,0.05098 -0.627513,0.103455 -0.66315,0.116605 -0.03566,0.01315 -0.563806,0.06457 -1.173701,0.114245 -1.390549,0.113284 -2.992285,0.112451 -4.320126,-0.0023 z m -4.360315,-6.900381 c 0.741867,-0.20135 0.937074,-0.285257 1.318649,-0.566792 0.617617,-0.455701 0.938965,-1.040241 1.030841,-1.875132 0.02933,-0.266513 0.04283,-1.395802 0.03453,-2.891958 -0.01322,-2.393371 -0.01589,-2.456386 -0.105653,-2.522294 -0.135693,-0.09965 -1.965862,-0.07331 -2.068793,0.02977 -0.06028,0.06037 -0.07136,0.420709 -0.08209,2.669647 l -0.01238,2.599863 -0.138084,0.218792 c -0.46957,0.744036 -1.515997,0.768105 -2.020471,0.04648 -0.122905,-0.175812 -0.140017,-0.245716 -0.1746,-0.713425 -0.0211,-0.285184 -0.03559,-1.450573 -0.03214,-2.589755 0.0035,-1.139181 0.0035,-2.10546 5.21e-4,-2.147283 -0.01027,-0.1384 -0.268797,-0.177108 -1.182921,-0.177108 -0.745341,0 -0.898954,0.01158 -0.959707,0.07233 -0.06414,0.06417 -0.07202,0.37684 -0.06956,2.773158 0.0014,1.485458 0.01997,2.794036 0.041,2.907955 0.217587,1.178142 1.249033,2.055061 2.601828,2.212036 0.390239,0.04528 1.59464,0.01465 1.819106,-0.04628 z m 16.224711,0.025 c 0.347744,-0.07891 0.747865,-0.231841 0.897533,-0.343039 0.114923,-0.08539 0.115085,-0.08661 0.127576,-0.967669 0.01118,-0.786126 0.0042,-0.885364 -0.06379,-0.911453 -0.04199,-0.01611 -0.109725,-0.006 -0.150589,0.0224 -0.487164,0.338854 -0.902357,0.448074 -1.564629,0.411581 -0.374259,-0.02062 -0.500049,-0.04856 -0.75468,-0.167611 -0.315624,-0.147567 -0.786254,-0.571671 -0.843497,-0.760118 -0.01611,-0.05292 -0.05458,-0.12729 -0.08555,-0.165262 -0.03095,-0.03797 -0.103973,-0.250322 -0.162222,-0.471887 -0.08546,-0.325075 -0.100597,-0.471689 -0.07841,-0.759454 0.08482,-1.100058 0.695187,-1.869478 1.619622,-2.04166 0.154605,-0.02879 0.488902,-0.04125 0.759457,-0.0283 0.409988,0.01963 0.521676,0.04261 0.736401,0.151495 0.139216,0.07059 0.281604,0.156843 0.316426,0.191661 0.03481,0.03482 0.107327,0.05703 0.161131,0.04935 0.09526,-0.01359 0.09816,-0.0366 0.110352,-0.878227 0.01252,-0.862117 0.01224,-0.864521 -0.09861,-0.966578 -0.186058,-0.171287 -0.74456,-0.351281 -1.259394,-0.405875 -1.124685,-0.119267 -2.27723,0.177043 -2.984471,0.767283 -0.07409,0.06184 -0.189834,0.158861 -0.257185,0.215597 -0.219374,0.184796 -0.612588,0.699776 -0.78536,1.028559 -0.61768,1.175441 -0.646713,2.748055 -0.07299,3.953514 0.280064,0.588453 0.665254,1.038285 1.248485,1.458 0.382376,0.275176 1.046131,0.547142 1.550408,0.635259 0.347252,0.06068 1.33602,0.05005 1.633984,-0.01757 z M 23.614388,40.766682 c 0.04354,-0.02816 0.05753,-0.318953 0.05753,-1.193093 0,-1.010942 0.0096,-1.166407 0.07617,-1.240026 0.06843,-0.07562 0.160541,-0.08417 0.906114,-0.08417 1.136122,0 1.502195,-0.09998 2.06619,-0.564299 0.691129,-0.568985 0.969758,-1.677336 0.718411,-2.857754 -0.13788,-0.647525 -0.62548,-1.274532 -1.200075,-1.543175 -0.53575,-0.250484 -0.920855,-0.288471 -2.766181,-0.272854 -1.570783,0.01329 -1.652348,0.01821 -1.714528,0.103304 -0.05514,0.07541 -0.0652,0.671122 -0.06457,3.820284 3.45e-4,2.052018 0.0159,3.753726 0.03453,3.781574 0.01857,0.02784 0.06492,0.06329 0.102854,0.07875 0.100997,0.04114 1.715836,0.01529 1.783566,-0.02854 z m 0.129187,-4.276579 c -0.05788,-0.08268 -0.07165,-0.24978 -0.07165,-0.871236 0,-0.979659 -0.04079,-0.928157 0.71789,-0.906609 0.606646,0.01722 0.703219,0.05163 0.90546,0.322509 0.186303,0.249531 0.159802,0.995059 -0.04396,1.23724 -0.21317,0.253341 -0.412732,0.320391 -0.95356,0.320391 -0.446435,0 -0.487868,-0.0077 -0.554163,-0.102295 z M 16.952523,29.90721 c 1.059896,-0.416817 1.672625,-1.03052 2.10275,-2.10607 0.102368,-0.255984 0.122631,-0.388893 0.140362,-0.920551 0.01139,-0.341754 -3.52e-4,-0.724934 -0.02616,-0.85151 -0.14261,-0.699745 -0.514007,-1.331505 -1.084965,-1.845547 -0.261356,-0.235306 -0.44621,-0.349528 -1.040519,-0.642937 -0.171091,-0.08447 -0.86499,-0.204127 -1.183716,-0.204127 -1.073371,0 -2.170493,0.57207 -2.746368,1.432035 -0.09133,0.136383 -0.182027,0.268683 -0.201552,0.293999 -0.191888,0.24882 -0.425096,1.144653 -0.425096,1.63294 0,0.318863 0.113608,0.981484 0.201404,1.174739 0.03453,0.07595 0.08804,0.20022 0.118967,0.276165 0.08103,0.198968 0.430442,0.707301 0.626409,0.911319 0.335183,0.34896 0.774852,0.628592 1.30857,0.83226 0.411163,0.156902 0.438993,0.160254 1.219733,0.146951 0.615886,-0.01049 0.722771,-0.02449 0.99021,-0.129666 z m 8.169272,0.0397 c 0.918176,-0.404649 1.310335,-0.697483 1.760793,-1.314834 0.08214,-0.112576 0.149344,-0.224863 0.149344,-0.249526 0,-0.02466 0.03095,-0.07903 0.06871,-0.120813 0.03784,-0.04179 0.133898,-0.260894 0.213515,-0.486914 0.135411,-0.384418 0.144849,-0.452535 0.146242,-1.055329 0.0014,-0.589596 -0.0094,-0.67539 -0.126971,-1.009044 -0.304258,-0.863684 -0.690679,-1.357824 -1.486293,-1.900625 -0.372375,-0.254048 -1.169579,-0.473249 -1.7214,-0.473317 -0.337314,-4.1e-5 -1.018913,0.115652 -1.165591,0.197847 -0.05155,0.02889 -0.158409,0.07569 -0.237449,0.103987 -0.260786,0.09338 -0.784854,0.475842 -1.070642,0.781349 -0.310004,0.331399 -0.485188,0.610837 -0.691544,1.103087 -0.124587,0.297213 -0.246339,1.076996 -0.210997,1.351384 0.08677,0.673616 0.140609,0.881708 0.329163,1.272186 0.398433,0.825136 1.09919,1.451331 1.971839,1.762041 0.387827,0.13809 0.42504,0.14214 1.196713,0.130276 0.541919,-0.0083 0.730016,-0.02807 0.874528,-0.09175 z m 8.0318,0.007 c 0.08861,-0.04079 0.212882,-0.0886 0.276167,-0.106237 0.241043,-0.06717 0.840086,-0.464666 1.103326,-0.732121 0.39441,-0.400727 0.578568,-0.687385 0.853786,-1.328994 0.128849,-0.300388 0.185129,-0.987319 0.124981,-1.525554 -0.05261,-0.470825 -0.09215,-0.601885 -0.325921,-1.080316 -0.274697,-0.562184 -0.968132,-1.258611 -1.468646,-1.474989 -0.05704,-0.02466 -0.19167,-0.0846 -0.29918,-0.133191 -0.326441,-0.147558 -0.9262,-0.247351 -1.341556,-0.223223 -0.464911,0.02701 -0.942215,0.112 -1.063236,0.189329 -0.05064,0.03235 -0.160105,0.08214 -0.243273,0.11064 -0.251297,0.08612 -0.78071,0.467866 -1.045561,0.753931 -0.659972,0.712848 -0.942075,1.550635 -0.877369,2.605574 0.04719,0.769814 0.314196,1.378125 0.86255,1.965299 0.288974,0.309425 0.457041,0.442312 0.922452,0.729339 0.15343,0.09463 0.600441,0.265512 0.818465,0.312887 0.298146,0.06479 1.524385,0.01988 1.703015,-0.06237 z M 16.839197,21.659659 c 0.45823,-0.156044 0.783897,-0.328833 1.119636,-0.594039 0.290768,-0.229686 0.83417,-0.864638 0.83417,-0.974708 0,-0.03144 0.02771,-0.08016 0.06161,-0.108274 0.0339,-0.02811 0.08696,-0.139391 0.117969,-0.24728 0.03102,-0.10789 0.09132,-0.268657 0.134025,-0.35726 0.06379,-0.132413 0.07723,-0.300414 0.07528,-0.943565 -0.0021,-0.734131 -0.0098,-0.801176 -0.123236,-1.085322 -0.245724,-0.615709 -0.428961,-0.900701 -0.841073,-1.308109 -0.213368,-0.210938 -0.767109,-0.621373 -0.838328,-0.621373 -0.01653,0 -0.114262,-0.04014 -0.217186,-0.08921 -0.29963,-0.142844 -0.931377,-0.279007 -1.294482,-0.279007 -0.411572,0 -1.016198,0.138815 -1.407282,0.323093 -0.369941,0.174314 -0.41731,0.204261 -0.747443,0.472555 -1.199773,0.975024 -1.560318,2.671959 -0.866538,4.078375 0.378895,0.768078 1.148057,1.44507 1.945732,1.712561 0.612568,0.205416 1.480427,0.21456 2.047159,0.02156 z m 8.256997,-5.22e-4 c 1.03978,-0.331107 1.818079,-1.076138 2.190573,-2.09694 0.449586,-1.232084 0.100168,-2.690591 -0.856684,-3.575907 -0.665197,-0.615458 -1.587008,-0.969103 -2.404665,-0.922526 -0.595097,0.0339 -1.129433,0.177827 -1.504185,0.405162 -0.03798,0.02303 -0.14153,0.08139 -0.230135,0.129671 -0.237801,0.129589 -0.792428,0.681275 -0.97845,0.973264 -0.298287,0.468201 -0.438284,0.841547 -0.517563,1.38019 -0.06914,0.469875 -0.06893,0.541545 0.0028,1.000042 0.09315,0.59401 0.306902,1.082094 0.686212,1.566864 0.259048,0.33108 0.731169,0.741678 0.9707,0.844213 0.07443,0.03186 0.166399,0.08228 0.204372,0.112034 0.09842,0.07712 0.67185,0.259983 0.943565,0.300887 0.40034,0.06027 1.111745,0.0046 1.493305,-0.116954 z m 8.098602,-0.01023 c 1.091678,-0.366384 1.809589,-1.08709 2.216167,-2.224794 0.09385,-0.262634 0.106898,-0.383512 0.106772,-0.989592 -1.41e-4,-0.657419 -0.0071,-0.709979 -0.145455,-1.099854 -0.07992,-0.225193 -0.176851,-0.444305 -0.215414,-0.486914 -0.03854,-0.04261 -0.07012,-0.09909 -0.07012,-0.125516 0,-0.07625 -0.447469,-0.615546 -0.658994,-0.794214 -0.105885,-0.08944 -0.229326,-0.195861 -0.274325,-0.236493 -0.164395,-0.148461 -0.84875,-0.453196 -1.224789,-0.545388 -0.658495,-0.161437 -1.26528,-0.109225 -2.007379,0.172729 -0.675086,0.256492 -1.28377,0.786056 -1.669909,1.45285 -0.5628,0.971839 -0.565086,2.347043 -0.0056,3.32218 0.508883,0.88683 1.460699,1.543694 2.434894,1.680358 0.440077,0.06173 1.12579,0.0049 1.514081,-0.125354 z M 16.813821,13.611376 c 1.098114,-0.352636 1.831491,-1.066015 2.257607,-2.19605 0.103086,-0.273386 0.112813,-0.364655 0.112813,-1.058634 0,-0.7911665 -0.0056,-0.8200515 -0.270829,-1.4268525 -0.03911,-0.0895 -0.203162,-0.3563954 -0.357373,-0.5815114 -0.25665,-0.374642 -0.823656,-0.834355 -1.294637,-1.049653 -0.366924,-0.16773 -1.024856,-0.314527 -1.414159,-0.315527 -0.376813,-0.0011 -1.064812,0.151441 -1.333355,0.295371 -0.08865,0.04751 -0.176099,0.08638 -0.194336,0.08638 -0.02905,0 -0.296662,0.164556 -0.429386,0.26401 -0.847871,0.635357 -1.403385,1.7169964 -1.402787,2.7313669 7.03e-4,1.627769 1.189032,3.038515 2.830549,3.36107 0.343116,0.06742 1.121731,0.01018 1.495893,-0.109973 z m 8.281691,-0.01216 c 0.191663,-0.06454 0.452033,-0.171152 0.57861,-0.236914 0.445732,-0.231579 0.957478,-0.68637 1.206764,-1.072462 0.0899,-0.139233 0.199484,-0.305751 0.243519,-0.370039 0.04403,-0.06429 0.09553,-0.188562 0.11441,-0.276166 0.01892,-0.0876 0.06253,-0.214509 0.09704,-0.282016 0.112617,-0.220481 0.175599,-0.950859 0.119481,-1.3856035 -0.107946,-0.83624 -0.385844,-1.3932404 -1.011436,-2.0272594 -0.576353,-0.584117 -1.480983,-0.96073 -2.3117,-0.962405 -0.615247,-0.0012 -1.347168,0.221125 -1.86644,0.567049 -0.305545,0.203547 -0.857957,0.757246 -0.982902,0.985196 -0.05549,0.101259 -0.129025,0.235891 -0.163375,0.299178 -0.156912,0.2890774 -0.258064,0.6111324 -0.326793,1.0404274 -0.06829,0.4266885 -0.06843,0.5057915 -0.0014,0.9581995 0.22173,1.492504 1.288047,2.586763 2.811384,2.885058 0.347105,0.06797 1.114368,0.0051 1.492623,-0.122243 z m 8.009054,0.02048 c 0.35425,-0.11352 0.855685,-0.350541 0.92933,-0.439272 0.02834,-0.03415 0.07562,-0.06208 0.105063,-0.06208 0.09283,0 0.901767,-0.853141 0.901767,-0.951032 0,-0.02211 0.04888,-0.112327 0.108572,-0.200479 0.425828,-0.628583 0.5165,-1.9734695 0.188357,-2.7937005 -0.48625,-1.2154284 -1.500436,-1.9850884 -2.874471,-2.1814184 -0.333573,-0.04767 -0.490393,-0.03199 -1.058348,0.105808 -0.61811,0.149961 -1.118194,0.421145 -1.535779,0.832811 -0.819506,0.807902 -1.133428,1.7105754 -1.00927,2.9021539 0.04572,0.438557 0.110028,0.650089 0.324253,1.066128 0.0391,0.07595 0.101117,0.196151 0.137803,0.267125 0.08813,0.170507 0.834107,0.952604 0.908603,0.952604 0.032,0 0.08422,0.03138 0.116056,0.06974 0.120781,0.145539 0.852541,0.443142 1.3112,0.533259 0.312423,0.06139 1.113812,0.0051 1.446864,-0.101644 z M 83.170961,41.00694 c -0.691536,-0.04873 -1.391625,-0.33606 -1.858745,-0.762861 -0.22256,-0.203344 -0.658206,-0.740614 -0.658206,-0.811739 0,-0.02642 -0.02884,-0.08074 -0.06407,-0.12071 -0.264309,-0.299814 -0.568307,-1.744301 -0.519264,-2.467326 0.04994,-0.736343 0.28377,-1.627453 0.543775,-2.072398 0.278362,-0.476348 0.426158,-0.653944 0.826512,-0.993139 0.804202,-0.681345 1.955677,-0.933325 3.140054,-0.687143 0.248561,0.05167 0.496539,0.125183 0.551061,0.163372 0.05451,0.03818 0.12925,0.06943 0.166062,0.06943 0.112293,0 0.688168,0.415399 0.887166,0.63995 0.363084,0.409704 0.616246,0.901629 0.666301,1.294737 0.03777,0.296353 -0.01618,0.32722 -0.543093,0.310944 L 85.878122,35.556767 85.691474,35.1753 c -0.306748,-0.626901 -0.617237,-0.911482 -1.217187,-1.115611 -0.387264,-0.131764 -1.144934,-0.14258 -1.495893,-0.02135 -0.439549,0.151827 -0.645236,0.274834 -0.920799,0.550666 -0.714901,0.715618 -0.966058,1.703277 -0.800059,3.146227 0.09989,0.868338 0.479034,1.553854 1.092079,1.974554 0.738498,0.506799 1.851093,0.533424 2.55102,0.06105 0.466114,-0.314577 0.825021,-0.880668 0.911973,-1.438424 0.06196,-0.397391 0.133554,-0.451251 0.599935,-0.451251 0.306256,0 0.378093,0.01498 0.458729,0.09561 0.05261,0.05259 0.08555,0.121834 0.07326,0.153881 -0.01231,0.03205 -0.03749,0.180609 -0.05598,0.33014 -0.03615,0.292579 -0.213543,0.777901 -0.419231,1.14716 -0.163944,0.294311 -0.709457,0.840226 -1.002996,1.003733 -0.356452,0.198554 -0.868198,0.356551 -1.233293,0.380776 -0.183751,0.01219 -0.396218,0.02761 -0.472163,0.03424 -0.07595,0.0066 -0.341407,-0.0023 -0.589913,-0.01976 z m 60.687529,-0.0022 c -0.2104,-0.02203 -0.47334,-0.08141 -0.58432,-0.131966 -0.11098,-0.05056 -0.22881,-0.09196 -0.26183,-0.09202 -0.0331,-4.8e-5 -0.18434,-0.06513 -0.33623,-0.144617 -0.90152,-0.471767 -1.55439,-1.338035 -1.84364,-2.446269 -0.16586,-0.635442 -0.17566,-1.586258 -0.0229,-2.218893 0.11073,-0.458445 0.29978,-0.973164 0.39861,-1.085271 0.0352,-0.03997 0.0641,-0.09278 0.0641,-0.117367 0,-0.159979 0.97858,-1.213809 1.12713,-1.213809 0.027,0 0.10031,-0.03614 0.16291,-0.0803 0.34911,-0.246338 1.2618,-0.472031 1.90888,-0.472031 0.4182,0 1.2539,0.145338 1.41295,0.245727 0.0583,0.03678 0.15609,0.08191 0.21737,0.10028 0.32238,0.09665 0.91435,0.59514 1.18769,1.000148 0.32946,0.488177 0.57908,1.320214 0.42525,1.417507 -0.0896,0.05665 -1.45426,0.05633 -1.5602,-3.48e-4 -0.0456,-0.02442 -0.095,-0.104702 -0.10976,-0.178409 -0.0626,-0.312991 -0.43257,-0.718708 -0.84986,-0.931983 -0.19265,-0.09846 -0.27684,-0.110882 -0.74646,-0.110154 -0.4824,6.95e-4 -0.55276,0.01208 -0.79383,0.127857 -0.14548,0.06987 -0.33784,0.19141 -0.42745,0.270088 -0.1659,0.145673 -0.48174,0.585114 -0.48174,0.670289 0,0.0258 -0.0404,0.138412 -0.0899,0.250238 -0.14695,0.332215 -0.21614,1.141141 -0.14581,1.70475 0.11819,0.946978 0.50661,1.529591 1.23109,1.84659 0.24259,0.106149 0.34468,0.123356 0.73184,0.123356 0.39942,0 0.47804,-0.01421 0.70038,-0.126575 0.44811,-0.226464 0.83402,-0.715849 0.90751,-1.150839 0.0637,-0.376991 0.0876,-0.386987 0.9298,-0.389504 0.4077,-0.0012 0.76442,0.01209 0.79273,0.02959 0.0785,0.04852 0.0625,0.22422 -0.0637,0.698253 -0.35917,1.349868 -1.38199,2.260928 -2.70373,2.408311 -0.49663,0.05538 -0.62576,0.05509 -1.17689,-0.0026 z m -39.40824,-0.02286 c -0.18868,-0.03514 -0.79345,-0.259066 -0.96658,-0.357886 -0.59364,-0.33885 -1.10983,-0.877897 -1.41546,-1.478147 -0.27815,-0.546279 -0.47192,-1.433415 -0.4714,-2.158253 5.2e-4,-0.397141 0.14638,-1.374355 0.21935,-1.467157 0.0241,-0.03067 0.0586,-0.117231 0.0766,-0.192359 0.0348,-0.14529 0.25223,-0.630264 0.29983,-0.668887 0.0156,-0.01267 0.10696,-0.131549 0.20303,-0.264202 0.0961,-0.132653 0.3223,-0.375931 0.50275,-0.540617 1.11181,-1.014726 3.03401,-1.151961 4.35661,-0.311036 0.75438,0.479645 1.25943,1.214438 1.54972,2.254679 0.11351,0.406795 0.12522,0.520707 0.12428,1.20858 -7e-4,0.739988 -0.0184,0.883971 -0.17442,1.443199 -0.0952,0.341273 -0.3369,0.840615 -0.57167,1.18102 -0.25095,0.363886 -0.54756,0.631449 -1.05908,0.955398 -0.19406,0.122902 -0.16926,0.111381 -0.57931,0.269116 -0.30085,0.11573 -0.37707,0.124735 -1.15069,0.135962 -0.45567,0.0066 -0.88027,0.0024 -0.94356,-0.0094 z m 1.55746,-0.98125 c 0.39299,-0.117059 0.73378,-0.322271 1.00667,-0.606182 0.22137,-0.230311 0.47161,-0.587504 0.47285,-0.674945 5.2e-4,-0.03254 0.0304,-0.105028 0.0665,-0.161097 0.13608,-0.211446 0.30251,-1.047725 0.30256,-1.520327 0,-0.709845 -0.22015,-1.532924 -0.53628,-2.004354 -0.26088,-0.389025 -0.67114,-0.73346 -1.09914,-0.922787 -0.50546,-0.223585 -1.40361,-0.212639 -1.93783,0.02362 -0.3066,0.135591 -0.75036,0.466092 -0.86906,0.647239 -0.0462,0.0705 -0.1219,0.168867 -0.16822,0.218592 -0.0463,0.04973 -0.0842,0.114779 -0.0842,0.144564 0,0.02979 -0.0369,0.103551 -0.0819,0.163925 -0.045,0.06037 -0.14242,0.29618 -0.21643,0.524016 -0.1274,0.392195 -0.13452,0.455904 -0.13378,1.196717 6.9e-4,0.72908 0.009,0.8086 0.12741,1.165473 0.16241,0.49116 0.30206,0.752244 0.57067,1.066862 0.34116,0.399602 0.63198,0.601054 1.0458,0.724411 0.56686,0.168983 1.00147,0.173026 1.53444,0.01426 z m -48.908291,0.824818 c -0.05697,-0.02289 -0.104078,-0.06819 -0.104711,-0.100646 -6.96e-4,-0.03246 -0.0014,-1.724762 -0.0014,-3.760674 0,-2.595927 0.01477,-3.716469 0.04972,-3.751244 0.03418,-0.03399 0.631663,-0.04764 1.899897,-0.04338 1.692571,0.0057 1.888446,0.01445 2.301234,0.103017 0.651672,0.139827 1.062744,0.46294 1.344974,1.057171 0.101644,0.214021 0.117054,0.30935 0.119038,0.73644 0.0014,0.269828 -0.01962,0.547623 -0.04635,0.617321 -0.152052,0.396356 -0.256777,0.553101 -0.540779,0.809426 l -0.307655,0.277666 0.219936,0.129533 c 0.575024,0.338665 0.85354,0.717548 0.972993,1.323632 0.0777,0.394213 0.07763,0.429271 -0.0014,0.828496 -0.100737,0.508845 -0.272116,0.831301 -0.628476,1.182491 -0.307219,0.302754 -0.669424,0.487462 -1.123209,0.572787 -0.378248,0.07112 -3.98296,0.08671 -4.153987,0.01796 z m 4.121472,-1.032788 c 0.476861,-0.249167 0.651356,-0.495429 0.687239,-0.96988 0.04157,-0.549991 -0.0075,-0.73874 -0.25589,-0.984347 -0.398602,-0.394087 -0.391062,-0.392537 -1.99154,-0.409541 -1.259084,-0.01338 -1.416649,-0.0069 -1.484393,0.06082 -0.06611,0.06611 -0.07578,0.215332 -0.07578,1.168362 0,1.102164 0.01456,1.208195 0.172364,1.254466 0.03151,0.0092 0.658966,0.01152 1.39434,0.0051 1.319879,-0.0116 1.339819,-0.0132 1.553664,-0.124937 z m -0.266665,-3.479517 c 0.139237,-0.05977 0.309273,-0.16395 0.377861,-0.231518 0.166048,-0.163564 0.312501,-0.562053 0.312529,-0.850343 0,-0.453329 -0.360629,-0.940952 -0.765456,-1.034878 -0.281744,-0.06537 -2.65654,-0.05515 -2.723405,0.01172 -0.03967,0.03965 -0.05521,0.343966 -0.05521,1.07836 0,0.897908 0.0095,1.032616 0.07753,1.100665 0.06991,0.06993 0.197486,0.07544 1.300277,0.0561 1.157531,-0.02029 1.23624,-0.02723 1.475891,-0.130106 z m 2.971432,4.498359 c -0.08083,-0.05911 -0.08012,-0.07161 0.01913,-0.3337 0.19345,-0.510801 0.31459,-0.824427 0.416291,-1.077773 0.132365,-0.329727 0.313415,-0.803795 0.395507,-1.035621 0.03587,-0.10126 0.09317,-0.235891 0.127358,-0.299179 0.03418,-0.06329 0.07677,-0.177204 0.09463,-0.253152 0.01787,-0.07594 0.07033,-0.220931 0.116604,-0.322192 0.04628,-0.101259 0.190369,-0.463727 0.320196,-0.805482 0.129833,-0.341754 0.264014,-0.683508 0.298174,-0.759453 0.03418,-0.07595 0.117962,-0.293426 0.186219,-0.48329 0.06822,-0.189865 0.162595,-0.428055 0.209654,-0.529317 0.04705,-0.10126 0.10021,-0.246247 0.118109,-0.322192 0.01794,-0.07595 0.0505,-0.161023 0.07243,-0.189061 0.02194,-0.02803 0.08298,-0.173023 0.135671,-0.322192 0.05268,-0.149169 0.130263,-0.368001 0.172406,-0.486296 0.04213,-0.118294 0.123081,-0.268459 0.179875,-0.3337 0.09735,-0.111837 0.128153,-0.118619 0.538655,-0.118619 0.239475,0 0.486538,0.0233 0.549036,0.05177 0.09053,0.04125 0.16687,0.188607 0.375568,0.724934 0.144062,0.370238 0.311382,0.789668 0.371819,0.932066 0.06042,0.142399 0.109894,0.288421 0.109894,0.324496 0,0.03607 0.02026,0.08584 0.04501,0.1106 0.02476,0.02476 0.08457,0.15835 0.132914,0.296877 0.04832,0.138524 0.133203,0.365782 0.188562,0.505016 0.128349,0.32282 0.312451,0.792771 0.414708,1.058633 0.04382,0.113918 0.113812,0.28413 0.15554,0.378249 0.04171,0.09412 0.07587,0.197987 0.07587,0.230819 0,0.03283 0.04143,0.136984 0.09205,0.23145 0.05064,0.09446 0.09219,0.19772 0.09234,0.229456 0,0.03173 0.03341,0.119837 0.07384,0.195784 0.04044,0.07594 0.110661,0.241644 0.156004,0.368219 0.04537,0.126577 0.134103,0.364769 0.197226,0.529317 0.06309,0.16455 0.167138,0.43731 0.231141,0.606135 0.064,0.168827 0.159507,0.404475 0.212235,0.523662 0.123989,0.2803 0.120824,0.335868 -0.02222,0.390251 -0.137022,0.0521 -0.89313,0.05964 -0.968667,0.0097 -0.103059,-0.06819 -0.364836,-0.717105 -0.684827,-1.697598 -0.09255,-0.28359 -0.197641,-0.467917 -0.297126,-0.521162 -0.05521,-0.02953 -0.617421,-0.04739 -1.491892,-0.04739 h -1.403328 l -0.138239,0.116313 c -0.07602,0.06398 -0.152361,0.18307 -0.169627,0.26466 -0.0173,0.08159 -0.06801,0.24155 -0.112778,0.355468 -0.04473,0.113918 -0.138422,0.362468 -0.208156,0.55233 -0.268719,0.731654 -0.365497,0.929865 -0.47442,0.971689 -0.168123,0.06456 -0.806896,0.05007 -0.903392,-0.0205 z m 4.549839,-3.34463 c -0.0021,-0.0886 -0.04691,-0.26466 -0.09906,-0.391234 -0.05219,-0.126575 -0.135489,-0.344056 -0.185199,-0.483291 -0.04973,-0.139232 -0.143352,-0.398137 -0.2081,-0.575343 -0.06471,-0.177206 -0.217693,-0.600188 -0.339881,-0.939959 -0.122189,-0.339769 -0.247929,-0.626249 -0.279417,-0.636618 -0.03151,-0.01037 -0.08063,0.03979 -0.109205,0.111462 -0.0878,0.220242 -0.60839,1.646535 -0.778355,2.132514 -0.03095,0.0886 -0.09238,0.243955 -0.136431,0.345224 -0.123321,0.283504 -0.154808,0.477189 -0.09022,0.555017 0.0474,0.0571 0.230296,0.066 1.143253,0.05565 l 1.08684,-0.01234 z m 3.923663,3.341246 c -0.08141,-0.06409 -0.08481,-0.223388 -0.08137,-3.806708 0.0028,-2.590018 0.01878,-3.754934 0.05282,-3.78897 0.03334,-0.0333 0.682674,-0.04914 2.014517,-0.04914 1.904763,0 1.976868,0.0032 2.341619,0.104904 0.465198,0.129679 0.735655,0.277914 1.012912,0.555173 0.426981,0.426981 0.592579,1.064954 0.481088,1.853425 -0.08085,0.571833 -0.331421,0.98038 -0.793392,1.293619 -0.122688,0.08319 -0.223601,0.166248 -0.224248,0.184586 -6.96e-4,0.01834 0.05577,0.06287 0.125382,0.09897 0.196755,0.102022 0.438895,0.360089 0.548227,0.584295 0.111118,0.227866 0.218832,0.879508 0.289284,1.750038 0.03749,0.463513 0.07144,0.633107 0.169473,0.847258 0.17472,0.381628 0.14492,0.411092 -0.432143,0.427399 -0.430814,0.01217 -0.471256,0.0056 -0.590153,-0.09672 -0.121858,-0.104819 -0.129383,-0.135652 -0.166174,-0.680469 -0.10182,-1.507926 -0.247753,-2.010321 -0.667144,-2.296709 l -0.168502,-0.115068 -1.336105,-0.01416 c -0.734861,-0.0078 -1.383685,-0.0022 -1.44185,0.01238 l -0.105737,0.02654 v 1.512397 c 0,1.349997 -0.0082,1.519179 -0.07604,1.575565 -0.111885,0.09296 -0.840796,0.109327 -0.952498,0.02139 z m 3.545815,-4.167765 c 0.583478,-0.0671 0.903777,-0.271044 1.116821,-0.711136 0.08825,-0.182285 0.100885,-0.27203 0.08716,-0.618773 -0.01407,-0.355648 -0.03306,-0.43272 -0.154133,-0.626171 -0.07595,-0.121332 -0.228094,-0.285352 -0.338108,-0.364488 l -0.200032,-0.143882 -1.410932,-0.02301 c -0.77602,-0.01267 -1.457541,-0.008 -1.514503,0.01037 l -0.103557,0.03338 v 1.188648 c 0,0.863135 0.01512,1.203776 0.05521,1.243883 0.06822,0.06826 1.893637,0.07655 2.462049,0.01119 z m 12.885593,4.174083 c -0.07478,-0.05468 -0.08005,-0.301045 -0.08109,-3.803224 -7.03e-4,-2.705013 0.01322,-3.75907 0.05043,-3.796333 0.03685,-0.03686 0.786886,-0.05158 2.628498,-0.05158 2.240509,0 2.58262,0.009 2.620564,0.06904 0.02398,0.03797 0.04396,0.215247 0.04438,0.393944 0.0014,0.546512 0.193583,0.499685 -2.170346,0.528254 -1.122259,0.01357 -2.045646,0.0291 -2.051976,0.03452 -0.0063,0.0054 -0.01146,0.495872 -0.01146,1.089887 0,1.020684 0.0049,1.082646 0.08903,1.127675 0.05704,0.03054 0.741796,0.04764 1.906852,0.04764 1.591201,0 1.826842,0.009 1.890156,0.07233 0.05268,0.05267 0.07233,0.164546 0.07233,0.411636 0,0.514343 0.130995,0.482612 -1.992454,0.482612 -1.144392,0 -1.8199,0.01715 -1.876883,0.04765 -0.08436,0.04515 -0.08903,0.107708 -0.08903,1.191081 0,0.928287 0.01224,1.153575 0.06499,1.197342 0.04705,0.03905 0.617322,0.05646 2.068926,0.06317 1.261975,0.0058 2.020988,0.0263 2.049937,0.05529 0.07278,0.07287 0.07916,0.738759 0.0079,0.824616 -0.05387,0.06493 -0.338854,0.07292 -2.600611,0.07292 -1.981187,0 -2.557695,-0.01287 -2.620065,-0.05848 z m 7.379692,-0.03464 c -0.09213,-0.09214 -0.09299,-0.131987 -0.08055,-3.794986 0.01006,-2.961212 0.02455,-3.713841 0.07235,-3.761693 0.03714,-0.03713 0.213135,-0.06581 0.464201,-0.07562 0.330386,-0.01291 0.418442,-0.0018 0.481038,0.06082 0.07005,0.07004 0.07663,0.356744 0.07663,3.335656 0,2.584143 0.01217,3.269112 0.05866,3.307708 0.03847,0.03193 0.708887,0.05366 1.949164,0.06317 1.540107,0.01181 1.904937,0.02648 1.968367,0.07917 0.063,0.05236 0.0753,0.130973 0.0646,0.413046 -0.0122,0.31908 -0.023,0.353258 -0.12839,0.406433 -0.0881,0.04444 -0.66815,0.05821 -2.473974,0.05873 -2.306953,6.95e-4 -2.360968,-0.0014 -2.452028,-0.09244 z m 14.74275,0.04617 c -0.0562,-0.02261 -0.11381,-0.08862 -0.12801,-0.146673 -0.0142,-0.05805 -0.02,-1.745981 -0.0129,-3.750948 0.0103,-2.913154 0.025,-3.657412 0.0727,-3.705217 0.0383,-0.03837 0.21994,-0.06537 0.50656,-0.07529 0.3999,-0.01385 0.45994,-0.0051 0.57166,0.08272 0.11044,0.08688 0.54924,0.707892 0.71424,1.010844 0.0334,0.06133 0.1326,0.211546 0.22043,0.333805 0.0878,0.122259 0.1597,0.229832 0.1597,0.239054 0,0.0092 0.13463,0.21672 0.29918,0.461111 0.16455,0.244392 0.29918,0.454033 0.29918,0.465872 0,0.01183 0.1417,0.234071 0.31489,0.493853 0.32501,0.487498 0.79205,1.203022 1.07441,1.646032 0.16437,0.257885 0.67836,1.043156 0.73756,1.126842 0.11935,0.168711 0.13477,-0.14602 0.143,-2.917395 0.007,-2.487276 0.0175,-2.867292 0.0775,-2.905229 0.038,-0.024 0.23093,-0.04397 0.42878,-0.04435 0.60445,-0.0012 0.5378,-0.47925 0.5378,3.858022 0,2.865745 -0.0132,3.776608 -0.0552,3.818665 -0.0593,0.0593 -0.74354,0.07729 -0.99872,0.02625 -0.1499,-0.02998 -0.21656,-0.119747 -1.07226,-1.443898 -0.42477,-0.657306 -0.81755,-1.262067 -0.86693,-1.334799 -0.0782,-0.115212 -0.24336,-0.369793 -0.43293,-0.667399 -0.12807,-0.201066 -0.45959,-0.715179 -0.56045,-0.869104 -0.0478,-0.07297 -0.10778,-0.166171 -0.13328,-0.207125 -0.0255,-0.04095 -0.16193,-0.250515 -0.30317,-0.465694 -0.14124,-0.215179 -0.28332,-0.443014 -0.31573,-0.506303 -0.0677,-0.132185 -0.22853,-0.273641 -0.31282,-0.275141 -0.0454,-8.44e-4 -0.0575,0.594597 -0.0575,2.826382 0,2.508998 -0.008,2.835551 -0.0723,2.899735 -0.0811,0.08111 -0.65361,0.0985 -0.83534,0.02538 z m 7.6369,-0.0083 c -0.0773,-0.07733 -0.0696,-0.161951 0.0416,-0.451721 0.0533,-0.138875 0.12737,-0.33535 0.16463,-0.43661 0.0373,-0.101262 0.0954,-0.246247 0.12928,-0.322194 0.0338,-0.07594 0.0845,-0.212269 0.11256,-0.302942 0.0281,-0.09067 0.092,-0.245217 0.14205,-0.343433 0.0501,-0.09821 0.091,-0.204706 0.091,-0.236649 0,-0.03194 0.0392,-0.146659 0.0872,-0.254927 0.1161,-0.262195 0.22774,-0.542846 0.4903,-1.232467 0.12048,-0.316439 0.26767,-0.686588 0.3271,-0.822549 0.0594,-0.135966 0.10805,-0.274589 0.10805,-0.308056 0,-0.03346 0.0394,-0.129349 0.0876,-0.21307 0.0482,-0.08372 0.10234,-0.224712 0.12038,-0.313316 0.018,-0.0886 0.0512,-0.184036 0.0737,-0.212074 0.0225,-0.02803 0.0803,-0.162667 0.12846,-0.299179 0.18087,-0.512716 0.2391,-0.666225 0.30364,-0.800531 0.0721,-0.15009 0.27229,-0.67413 0.3204,-0.838803 0.0648,-0.221636 0.23019,-0.288871 0.71084,-0.288871 0.51177,0 0.61368,0.04571 0.69294,0.310827 0.0283,0.09486 0.0895,0.255311 0.13592,0.35657 0.0825,0.179996 0.10747,0.246195 0.28488,0.754507 0.0476,0.136509 0.10527,0.27114 0.12806,0.299178 0.0228,0.02804 0.0625,0.12347 0.0882,0.212074 0.0477,0.164231 0.19957,0.556652 0.31175,0.80548 0.0343,0.07595 0.092,0.220933 0.12834,0.322194 0.0364,0.10126 0.12152,0.329097 0.18928,0.506302 0.0677,0.177207 0.15277,0.405044 0.18892,0.506304 0.0361,0.10126 0.0883,0.223362 0.11597,0.271336 0.0276,0.04797 0.0873,0.192959 0.13251,0.322192 0.16419,0.46898 0.19983,0.560027 0.28363,0.724524 0.0469,0.09205 0.0855,0.195612 0.0857,0.230138 5.2e-4,0.03453 0.0513,0.166335 0.11363,0.29291 0.0622,0.126577 0.11385,0.261515 0.11465,0.299861 7e-4,0.03834 0.0428,0.147014 0.0935,0.241479 0.0506,0.09446 0.0922,0.19772 0.0925,0.229457 5.2e-4,0.03173 0.0513,0.161263 0.11364,0.287837 0.0622,0.126575 0.11385,0.265162 0.11464,0.30797 7e-4,0.04281 0.0222,0.09063 0.0475,0.106278 0.0794,0.04907 0.0507,0.247394 -0.043,0.297559 -0.1153,0.06171 -0.85696,0.06191 -0.97215,3.48e-4 -0.10523,-0.05632 -0.21953,-0.265449 -0.30112,-0.550964 -0.0727,-0.254259 -0.26126,-0.772691 -0.32651,-0.897538 -0.0265,-0.05063 -0.0617,-0.167281 -0.0783,-0.259225 -0.0166,-0.09194 -0.0919,-0.252463 -0.16745,-0.356713 l -0.1373,-0.189567 h -1.44337 c -1.64982,0 -1.61776,-0.0074 -1.74909,0.403542 -0.10896,0.340938 -0.25799,0.756919 -0.32538,0.908241 -0.0338,0.07595 -0.0756,0.189865 -0.0928,0.253152 -0.0172,0.06329 -0.0589,0.177207 -0.0927,0.253152 -0.0338,0.07595 -0.0839,0.195457 -0.11134,0.265583 -0.0274,0.07012 -0.1033,0.147795 -0.16855,0.172602 -0.16998,0.06463 -0.81856,0.05721 -0.8859,-0.01013 z m 4.5395,-3.295469 c 0.008,-0.05816 -0.0255,-0.213511 -0.0751,-0.345207 -0.0986,-0.262085 -0.15909,-0.430611 -0.29251,-0.814789 -0.0484,-0.139235 -0.10718,-0.294578 -0.13071,-0.345208 -0.0601,-0.129273 -0.2251,-0.60359 -0.29902,-0.859454 -0.0342,-0.118287 -0.088,-0.263273 -0.11969,-0.322192 -0.0316,-0.05892 -0.0703,-0.169136 -0.0859,-0.244929 -0.0435,-0.21139 -0.15713,-0.196843 -0.25273,0.03235 -0.12613,0.302361 -0.29773,0.772725 -0.36591,1.002985 -0.0338,0.113919 -0.0924,0.279618 -0.13043,0.368221 -0.038,0.0886 -0.0945,0.233589 -0.12557,0.322192 -0.0311,0.0886 -0.10805,0.295727 -0.17108,0.460276 -0.19465,0.508103 -0.25011,0.743538 -0.19175,0.813862 0.0413,0.04982 0.26937,0.05983 1.13854,0.04997 l 1.08684,-0.01234 z m 5.17334,3.279051 -0.1023,-0.07165 v -2.96053 c 0,-2.697308 -0.007,-2.966148 -0.0761,-3.023701 -0.0587,-0.04871 -0.30219,-0.06473 -1.06379,-0.06997 -0.79959,-0.0055 -1.00055,-0.01964 -1.05515,-0.07425 -0.0873,-0.08725 -0.10333,-1.156422 -0.0198,-1.312617 l 0.0547,-0.102222 h 3.05363 3.05363 l 0.0556,0.134125 c 0.075,0.181161 0.0478,1.219196 -0.034,1.300941 -0.0439,0.0438 -0.315,0.05893 -1.07402,0.05995 -0.95011,0.0012 -1.01951,0.0071 -1.08047,0.09047 -0.0546,0.07465 -0.0651,0.568939 -0.0651,3.047461 0,2.877736 -0.002,2.959658 -0.089,3.006006 -0.0499,0.0267 -0.38931,0.04765 -0.77223,0.04765 -0.54386,0 -0.70407,-0.01462 -0.7855,-0.07165 z m 5.37498,-0.0204 c -0.0905,-0.09051 -0.0921,-0.153426 -0.0921,-3.741003 0,-3.228089 0.008,-3.660747 0.0716,-3.751244 l 0.0717,-0.102297 h 2.75341 c 2.50256,0 2.75915,0.0069 2.81657,0.07595 0.0442,0.0531 0.0677,0.250784 0.0781,0.657139 0.0216,0.83822 0.21677,0.762141 -1.96459,0.765747 -0.97823,0.0015 -1.83465,0.01731 -1.90316,0.03489 -0.0963,0.02469 -0.13138,0.0683 -0.15458,0.191971 -0.0398,0.21234 -0.007,1.202412 0.0415,1.250963 0.021,0.02098 0.839,0.0485 1.81788,0.06115 l 1.77978,0.02301 0.0275,0.552094 c 0.0151,0.303651 0.0136,0.603982 -0.004,0.6674 l -0.0308,0.115306 -1.76104,0.02301 c -1.67581,0.0219 -1.7642,0.02734 -1.82633,0.112359 -0.0794,0.108601 -0.0941,1.404737 -0.0177,1.547657 0.0459,0.08586 0.1168,0.08903 1.993,0.08903 1.45167,0 1.95935,0.01403 2.00057,0.05523 0.077,0.07697 0.077,1.331477 0,1.408443 -0.0417,0.04174 -0.73337,0.05523 -2.83069,0.05523 -2.7141,0 -2.77749,-0.002 -2.86752,-0.09205 z m 15.46525,0 c -0.0905,-0.0905 -0.0921,-0.153426 -0.0921,-3.725235 0,-2.249255 0.0171,-3.678152 0.0449,-3.751244 l 0.0449,-0.118065 h 0.78199 c 0.72602,0 0.78539,0.0064 0.82963,0.08903 0.0296,0.05537 0.0476,0.582668 0.0476,1.394635 0,0.9541 0.0149,1.320475 0.0552,1.360838 0.0808,0.08082 2.68407,0.07683 2.8445,-0.0044 l 0.11508,-0.05823 0.01,-1.326542 c 0.007,-0.92666 0.0258,-1.345963 0.0632,-1.39096 0.0714,-0.08603 1.51279,-0.09431 1.59792,-0.0092 0.0421,0.04205 0.0552,0.947806 0.0552,3.795651 0,3.650935 -0.002,3.741559 -0.089,3.788067 -0.05,0.02677 -0.39146,0.04764 -0.77917,0.04764 -0.56605,0 -0.70316,-0.01301 -0.76248,-0.07233 -0.0398,-0.03978 -0.0732,-0.09674 -0.0742,-0.126576 -7e-4,-0.02983 0,-0.693805 0.002,-1.475488 0.004,-1.274292 -0.004,-1.43015 -0.0743,-1.507401 -0.0729,-0.08057 -0.16807,-0.08616 -1.46548,-0.08616 -1.01779,0 -1.40221,0.01471 -1.44273,0.05523 -0.0407,0.04071 -0.0552,0.451362 -0.0552,1.561647 0,1.3081 -0.009,1.51594 -0.0723,1.578745 -0.0595,0.0595 -0.19826,0.07233 -0.78247,0.07233 -0.64876,0 -0.71809,-0.0079 -0.80219,-0.09206 z M 78.526743,28.034371 c -1.486461,-0.308364 -2.485701,-1.271026 -2.876981,-2.77166 -0.107813,-0.413499 -0.124355,-0.567498 -0.125353,-1.166788 -7.04e-4,-0.565442 0.01801,-0.769562 0.104605,-1.127674 0.05816,-0.240494 0.125128,-0.473136 0.148802,-0.516982 0.0237,-0.04385 0.08232,-0.183091 0.130333,-0.309435 0.171907,-0.452415 0.621176,-1.024017 1.062743,-1.35212 0.542699,-0.403243 1.045822,-0.599929 1.781372,-0.696392 0.477691,-0.06264 0.59094,-0.06268 1.070192,-3.48e-4 1.059481,0.137833 1.801101,0.585806 2.363851,1.427867 0.06857,0.102622 0.124693,0.202143 0.124693,0.221156 0,0.01901 0.03946,0.121463 0.0877,0.227663 0.04825,0.106201 0.113665,0.325592 0.145399,0.487536 0.08092,0.412863 0.06914,0.418984 -0.808443,0.418984 -0.75767,0 -0.806432,-0.01419 -0.887019,-0.258232 -0.125564,-0.380221 -0.460944,-0.72818 -0.908055,-0.942114 -0.196403,-0.09397 -0.297745,-0.109887 -0.691339,-0.108559 -0.418042,0.0014 -0.489823,0.01495 -0.767024,0.144665 -0.770548,0.360584 -1.188224,1.200692 -1.188224,2.38999 0,0.724525 0.145729,1.269811 0.46629,1.744792 0.263113,0.38986 0.682583,0.638538 1.209204,0.716864 0.943038,0.140259 1.664459,-0.31412 1.893229,-1.192421 0.125733,-0.482718 0.09999,-0.469773 0.934239,-0.469773 0.960333,0 0.933783,-0.01938 0.796262,0.581308 -0.143851,0.628318 -0.444783,1.223687 -0.80748,1.597544 -0.278354,0.286926 -0.362416,0.355438 -0.671456,0.547292 -0.665464,0.413124 -1.741579,0.582315 -2.587544,0.406822 z m 35.596847,-0.0042 c -0.74212,-0.133185 -1.26008,-0.380036 -1.65115,-0.786897 -0.22207,-0.23104 -0.47161,-0.587593 -0.47284,-0.675613 -5.2e-4,-0.0329 -0.0353,-0.126107 -0.0774,-0.207123 -0.1922,-0.369979 -0.21061,-0.636103 -0.23158,-3.3472 -0.0195,-2.520763 -0.0174,-2.604724 0.0689,-2.704118 0.0851,-0.09814 0.12096,-0.102578 0.8289,-0.102578 0.71246,0 0.74261,0.0038 0.8116,0.102295 0.0627,0.08962 0.0716,0.420765 0.0716,2.672571 0,2.529042 0.001,2.574103 0.0994,2.808945 0.12311,0.295637 0.36203,0.553792 0.63567,0.686837 0.18267,0.08881 0.28055,0.100987 0.78952,0.0982 0.49491,-0.0027 0.61108,-0.01773 0.78387,-0.10138 0.31768,-0.153786 0.51916,-0.397321 0.63159,-0.763423 0.0945,-0.307829 0.0978,-0.402115 0.0993,-2.830692 0.001,-2.016055 0.0135,-2.528167 0.0626,-2.592804 0.0539,-0.07098 0.15124,-0.08055 0.81964,-0.08055 h 0.75851 l 0.0534,0.117233 c 0.066,0.144954 0.074,4.665607 0.009,5.280597 -0.0885,0.840852 -0.52171,1.572023 -1.1756,1.984019 -0.35963,0.226593 -0.70097,0.345902 -1.26983,0.443843 -0.63949,0.110102 -1.02264,0.109598 -1.64536,-0.0022 z M 56.950652,27.848725 c -0.03306,-0.06177 -0.04452,-1.275434 -0.03615,-3.821972 0.01076,-3.25772 0.0211,-3.736993 0.08135,-3.775088 0.120902,-0.07641 3.335754,-0.05608 3.8553,0.02438 0.739672,0.114554 1.444452,0.449244 1.858801,0.882721 0.212988,0.222818 0.587135,0.784196 0.623138,0.934983 0.01512,0.06329 0.05908,0.177207 0.09766,0.253152 0.118946,0.234026 0.244574,0.939398 0.270519,1.518909 0.01983,0.443174 0.0056,0.656939 -0.07232,1.081647 -0.103959,0.567015 -0.291894,1.151031 -0.427832,1.329498 -0.046,0.06037 -0.0836,0.130634 -0.0836,0.156135 0,0.0255 -0.09602,0.162515 -0.213388,0.304477 -0.527191,0.637692 -1.039795,0.938244 -1.88972,1.107988 -0.423091,0.0845 -0.643119,0.09369 -2.242218,0.09369 -1.715977,0 -1.774656,-0.003 -1.821546,-0.09052 z m 3.773439,-1.514323 c 0.214873,-0.0693 0.671815,-0.417651 0.805053,-0.613737 0.05887,-0.08663 0.16346,-0.290859 0.232442,-0.45385 0.109641,-0.259085 0.128251,-0.374469 0.148,-0.917715 0.0218,-0.598937 -0.03263,-1.199286 -0.124249,-1.371041 -0.02314,-0.04335 -0.08872,-0.181163 -0.145757,-0.30624 -0.21789,-0.477779 -0.728524,-0.82052 -1.340979,-0.90007 -0.434865,-0.05648 -1.511,-0.05726 -1.599725,-0.0012 -0.05985,0.03784 -0.06907,0.344719 -0.06907,2.302364 0,1.956473 0.0092,2.264897 0.06907,2.305004 0.09223,0.06186 1.813135,0.02483 2.025215,-0.04356 z m 4.512317,1.515815 c -0.03172,-0.05925 -0.04762,-1.322896 -0.04762,-3.777283 0,-2.454387 0.01597,-3.718039 0.04762,-3.777283 0.04628,-0.08649 0.125797,-0.08903 2.787689,-0.08903 1.800763,0 2.770562,0.01633 2.829072,0.04764 0.08171,0.04373 0.08903,0.102279 0.08903,0.711806 0,0.60953 -0.0073,0.66808 -0.08903,0.711809 -0.05711,0.03057 -0.748949,0.04765 -1.929866,0.04765 -1.612117,0 -1.849826,0.009 -1.913168,0.07233 -0.0588,0.05881 -0.07233,0.191834 -0.07233,0.711807 0,0.585128 0.0076,0.643529 0.08903,0.687127 0.05662,0.0303 0.697726,0.0479 1.760554,0.04835 0.972845,3.48e-4 1.700378,0.01895 1.740566,0.04434 0.05556,0.03514 0.06907,0.160136 0.06907,0.641374 0,0.351342 -0.01969,0.617411 -0.04776,0.645469 -0.03081,0.0308 -0.653092,0.05203 -1.753534,0.05984 -1.36452,0.0097 -1.721021,0.02474 -1.781865,0.07527 -0.110675,0.09192 -0.113946,1.526346 -0.0035,1.636562 0.06337,0.06338 0.304026,0.07233 1.945929,0.07233 1.621261,0 1.887378,0.0097 1.975898,0.07165 0.09707,0.06798 0.102221,0.102732 0.100836,0.678908 -7.04e-4,0.431885 -0.01913,0.630516 -0.0626,0.687803 -0.05704,0.07517 -0.249054,0.08055 -2.873642,0.08055 -2.733518,0 -2.813831,-0.0025 -2.860138,-0.08903 z m 17.979805,0.05835 c -0.01688,-0.01687 -0.03066,-0.07258 -0.03066,-0.123781 0,-0.08793 0.274276,-0.832407 0.464968,-1.262112 0.04804,-0.108266 0.08736,-0.217673 0.08736,-0.243123 0,-0.02545 0.03397,-0.12328 0.07551,-0.217399 0.09042,-0.204937 0.276364,-0.706489 0.344994,-0.93058 0.02715,-0.0886 0.06822,-0.184323 0.09131,-0.212712 0.02307,-0.02839 0.07484,-0.163018 0.115028,-0.299178 0.04016,-0.13616 0.09977,-0.299346 0.132394,-0.362634 0.03263,-0.06329 0.115978,-0.270412 0.185235,-0.460274 0.06928,-0.189864 0.173439,-0.469481 0.231513,-0.621373 0.05809,-0.15189 0.151179,-0.400438 0.206911,-0.55233 0.0557,-0.15189 0.140193,-0.361284 0.18771,-0.465316 0.04747,-0.104033 0.08638,-0.21659 0.08638,-0.250127 0,-0.03354 0.03777,-0.145185 0.08386,-0.24811 0.08756,-0.195419 0.138308,-0.326206 0.304771,-0.785492 0.118953,-0.328222 0.249019,-0.585402 0.319717,-0.632174 0.02813,-0.0186 0.395746,-0.03413 0.816974,-0.03452 0.903209,-8.44e-4 0.882074,-0.01078 1.072696,0.505597 0.07005,0.189864 0.164437,0.438413 0.209668,0.55233 0.04522,0.11392 0.138323,0.362468 0.206876,0.552331 0.06857,0.189864 0.155962,0.417701 0.194251,0.506304 0.03826,0.0886 0.0966,0.243945 0.129588,0.345206 0.05662,0.173704 0.13444,0.383069 0.415144,1.116423 0.06534,0.170737 0.146903,0.396337 0.181218,0.501332 0.03432,0.104995 0.0951,0.254131 0.13506,0.331413 0.03995,0.07728 0.07279,0.177789 0.07295,0.223347 0,0.04556 0.03334,0.144972 0.07371,0.220917 0.04037,0.07595 0.102629,0.234546 0.138315,0.352448 0.03566,0.117899 0.0956,0.273242 0.133133,0.345205 0.03756,0.07196 0.06836,0.157869 0.0685,0.190902 0,0.03303 0.04051,0.148386 0.0897,0.256338 0.106069,0.232829 0.207692,0.505649 0.324634,0.871497 0.04698,0.14704 0.105836,0.292028 0.130762,0.322195 0.0249,0.03017 0.05985,0.132745 0.07767,0.227954 0.05549,0.296907 0.01997,0.310182 -0.829022,0.310182 -0.683203,0 -0.757917,-0.0081 -0.867185,-0.09405 -0.07246,-0.057 -0.131662,-0.161253 -0.150286,-0.264659 -0.01688,-0.09384 -0.06914,-0.251465 -0.116028,-0.350289 -0.04691,-0.09882 -0.09913,-0.253465 -0.116055,-0.343647 -0.04143,-0.220906 -0.182379,-0.5317 -0.276526,-0.609773 -0.06112,-0.05068 -0.330246,-0.06362 -1.323832,-0.06362 -1.370294,0 -1.42421,0.0096 -1.479056,0.264277 -0.01779,0.08248 -0.06267,0.209411 -0.09982,0.282057 -0.03714,0.07265 -0.09448,0.22799 -0.127415,0.345206 -0.105407,0.375125 -0.251811,0.717727 -0.332018,0.776959 -0.08329,0.06151 -1.58141,0.08603 -1.640588,0.02685 z m 4.452408,-3.067129 c 0.0727,-0.05316 0.07585,-0.08332 0.02771,-0.264657 -0.02989,-0.112566 -0.08191,-0.266801 -0.115556,-0.342746 -0.03362,-0.07595 -0.09233,-0.241644 -0.130425,-0.36822 -0.06541,-0.217464 -0.119713,-0.378647 -0.310053,-0.92055 -0.04445,-0.126577 -0.09329,-0.287097 -0.108516,-0.356713 -0.07677,-0.350991 -0.308809,0.03908 -0.581804,0.978084 -0.02574,0.0886 -0.06611,0.202521 -0.08962,0.253152 -0.0898,0.193154 -0.284818,0.742121 -0.308393,0.868115 -0.01583,0.08452 -0.0021,0.146079 0.03889,0.171897 0.10642,0.0674 1.482445,0.05138 1.57783,-0.01836 z m 5.350918,3.013641 c -0.06921,-0.07648 -0.07618,-0.353515 -0.07618,-3.030684 0,-2.796077 -0.0042,-2.950399 -0.08417,-3.022686 -0.07275,-0.06583 -0.216483,-0.07617 -1.058636,-0.07617 -1.226042,0 -1.158572,0.04172 -1.158572,-0.716454 0,-0.509007 0.03629,-0.686982 0.156482,-0.767229 0.02785,-0.0186 1.400952,-0.03413 3.05133,-0.03452 l 3.000683,-6.96e-4 0.07165,0.102297 c 0.05521,0.07885 0.07165,0.229458 0.07165,0.657157 0,0.814338 0.08311,0.759455 -1.150013,0.759455 -0.853814,0 -1.017689,0.01098 -1.079033,0.07233 -0.06428,0.06426 -0.07233,0.404544 -0.07233,3.051627 0,2.25586 -0.01343,2.992709 -0.05521,3.034529 -0.0384,0.03839 -0.281738,0.05523 -0.798351,0.05523 -0.661462,0 -0.751488,-0.0093 -0.819288,-0.08417 z m 3.883608,-0.0052 c -0.03664,-0.06845 -0.02004,-0.162826 0.07073,-0.40274 0.0652,-0.172336 0.146109,-0.396185 0.17977,-0.497446 0.03369,-0.101261 0.09418,-0.246248 0.134497,-0.322193 0.0403,-0.07595 0.07343,-0.169949 0.07358,-0.208898 0,-0.03895 0.04051,-0.149712 0.08967,-0.246141 0.04916,-0.09643 0.103713,-0.240616 0.121211,-0.320417 0.01751,-0.0798 0.07048,-0.217281 0.117737,-0.30551 0.04726,-0.08823 0.08657,-0.19179 0.08736,-0.230137 6.96e-4,-0.03834 0.0524,-0.173285 0.114641,-0.29986 0.06224,-0.126577 0.113404,-0.255474 0.113636,-0.286441 5.21e-4,-0.03097 0.03988,-0.144885 0.08805,-0.253152 0.04818,-0.108267 0.143668,-0.352191 0.212157,-0.542055 0.0685,-0.189863 0.163678,-0.430325 0.211546,-0.534358 0.04783,-0.104033 0.08702,-0.212362 0.08702,-0.240732 0,-0.05861 0.197788,-0.580065 0.327692,-0.863928 0.04761,-0.104033 0.08669,-0.217953 0.08684,-0.253152 0,-0.0352 0.02877,-0.118621 0.06365,-0.185382 0.03481,-0.06676 0.09929,-0.229617 0.143224,-0.361907 0.04396,-0.13229 0.10839,-0.295148 0.143225,-0.361908 0.03482,-0.06676 0.06358,-0.142094 0.06386,-0.167409 7.04e-4,-0.09346 0.218987,-0.578707 0.300348,-0.668612 0.07914,-0.08745 0.131493,-0.09216 0.891589,-0.08036 l 0.8075,0.01254 0.10508,0.184109 c 0.0578,0.101261 0.13509,0.277318 0.17177,0.391235 0.0366,0.113918 0.12216,0.35211 0.18996,0.529317 0.0678,0.177205 0.17205,0.451759 0.23166,0.610119 0.0596,0.15836 0.16163,0.42762 0.22669,0.598357 0.0651,0.170738 0.14007,0.382926 0.16666,0.471528 0.0266,0.0886 0.0756,0.212878 0.1089,0.276166 0.0333,0.06329 0.0915,0.208275 0.1294,0.322192 0.0698,0.210096 0.16222,0.463307 0.37366,1.024113 0.0644,0.170878 0.16985,0.450494 0.23428,0.621372 0.21286,0.564553 0.30401,0.814544 0.37343,1.024113 0.0378,0.113918 0.0898,0.246374 0.11577,0.294348 0.045,0.08317 0.0975,0.224742 0.33498,0.902367 0.16344,0.466398 0.17382,0.460276 -0.78078,0.460276 h -0.8028 l -0.0796,-0.12146 c -0.0902,-0.137608 -0.31303,-0.742057 -0.41343,-1.121283 -0.0408,-0.153987 -0.11584,-0.298754 -0.19166,-0.369565 l -0.12464,-0.116414 -1.19586,-0.01154 c -1.123313,-0.01084 -1.204786,-0.006 -1.34294,0.07969 -0.105035,0.06515 -0.162285,0.147786 -0.200244,0.289049 -0.02926,0.1088 -0.07458,0.2496 -0.100758,0.312887 -0.02616,0.06329 -0.105892,0.277616 -0.177139,0.476286 -0.223896,0.624311 -0.147937,0.582348 -1.054227,0.582348 -0.724972,0 -0.783151,-0.0063 -0.827637,-0.08941 z m 4.507803,-3.037986 c 0.025,-0.04053 0.0217,-0.102704 -0.008,-0.158974 -0.0272,-0.05083 -0.0765,-0.186572 -0.10951,-0.301659 -0.0331,-0.115085 -0.1243,-0.385303 -0.20283,-0.600482 -0.0785,-0.215177 -0.17028,-0.48444 -0.20392,-0.598357 -0.18087,-0.612565 -0.34731,-0.839384 -0.41543,-0.566139 -0.0177,0.07088 -0.0603,0.191015 -0.0947,0.26696 -0.0344,0.07594 -0.0837,0.210576 -0.10965,0.299179 -0.0259,0.0886 -0.1112,0.337151 -0.18954,0.55233 -0.299413,0.822409 -0.374901,1.069674 -0.337365,1.105114 0.07612,0.07187 0.232161,0.0848 0.926565,0.07675 0.55771,-0.0065 0.71218,-0.02196 0.74474,-0.07472 z m 4.17026,3.055062 c -0.0398,-0.03978 -0.0727,-0.107095 -0.0732,-0.149588 -5.2e-4,-0.04249 -7e-4,-1.711476 -7e-4,-3.708851 -4e-5,-3.33117 0.006,-3.638635 0.077,-3.716725 0.0689,-0.07616 0.15574,-0.08513 0.82373,-0.08513 0.58086,0 0.75846,0.01419 0.79972,0.0639 0.0388,0.04679 0.0528,0.857694 0.052,3.029504 -7e-4,2.291741 0.012,2.98321 0.0562,3.043077 0.0516,0.06986 0.22724,0.07859 1.78768,0.08886 1.38627,0.0091 1.74565,0.02396 1.80658,0.07456 0.0636,0.05279 0.0761,0.161055 0.0761,0.658919 0,0.327662 -0.0215,0.635812 -0.0476,0.684777 -0.0463,0.08642 -0.12441,0.08903 -2.6663,0.08903 -2.31923,0 -2.62693,-0.0083 -2.69099,-0.07233 z m 14.98071,0.0058 c -0.0774,-0.09332 -0.0747,-7.509413 0.003,-7.602813 0.0644,-0.07766 1.46707,-0.09163 1.60836,-0.01601 0.0858,0.04591 0.59614,0.787108 0.59614,0.865786 0,0.02162 0.0414,0.0768 0.092,0.122619 0.0506,0.04582 0.0924,0.105988 0.0929,0.133709 7e-4,0.04726 0.21608,0.396479 0.32118,0.520964 0.0262,0.03097 0.0684,0.103466 0.0938,0.161096 0.0255,0.05763 0.10281,0.191823 0.17193,0.298206 0.0691,0.106383 0.21821,0.344576 0.33135,0.529317 0.11313,0.184741 0.21769,0.346248 0.23235,0.358905 0.0146,0.01267 0.0875,0.126577 0.16192,0.253152 0.0744,0.126575 0.15627,0.26368 0.18191,0.304674 0.0257,0.041 0.0853,0.143047 0.13255,0.226781 0.0473,0.08373 0.15335,0.248129 0.23572,0.365324 0.0824,0.117195 0.16402,0.257974 0.18144,0.312844 0.0316,0.09944 0.23295,0.286272 0.30859,0.286272 0.0219,0 0.0398,-1.03101 0.0398,-2.291136 0,-1.999163 0.009,-2.304171 0.0717,-2.393432 0.0684,-0.09768 0.10163,-0.102296 0.73643,-0.102296 0.60343,0 0.67329,0.0085 0.75685,0.09206 0.0905,0.09052 0.0921,0.153425 0.0921,3.774258 0,3.620833 -0.001,3.683737 -0.0921,3.774257 -0.0846,0.08457 -0.15342,0.09206 -0.84672,0.09206 h -0.75464 l -0.12049,-0.14959 c -0.15862,-0.196931 -0.39352,-0.554258 -0.39458,-0.600221 -5.2e-4,-0.02001 -0.039,-0.0925 -0.0857,-0.161096 -0.0466,-0.0686 -0.13681,-0.207562 -0.20032,-0.308823 -0.29546,-0.471132 -0.52505,-0.839506 -0.5747,-0.92211 -0.0299,-0.04978 -0.21633,-0.348285 -0.41425,-0.663362 -0.19792,-0.315076 -0.37574,-0.60505 -0.39515,-0.644385 -0.0194,-0.03934 -0.0919,-0.158225 -0.1611,-0.264196 -0.0692,-0.105973 -0.18591,-0.292384 -0.25936,-0.414248 -0.0735,-0.121864 -0.2053,-0.330869 -0.29297,-0.464455 -0.28681,-0.437002 -0.2869,-0.436335 -0.2869,2.17247 0,1.734947 -0.0137,2.323291 -0.0552,2.364783 -0.0866,0.08663 -1.43477,0.07647 -1.50766,-0.01136 z m 10.38528,-0.01651 c -0.0686,-0.07577 -0.0773,-0.240919 -0.0782,-1.485465 -7.1e-4,-1.531057 0.0117,-1.446486 -0.2954,-1.952546 -0.17679,-0.291338 -0.45242,-0.750581 -0.62156,-1.035618 -0.0526,-0.08861 -0.12128,-0.201819 -0.15265,-0.251593 -0.38156,-0.605216 -0.81868,-1.332338 -0.8587,-1.428386 -0.0105,-0.02531 -0.10892,-0.186044 -0.21862,-0.35719 -0.10971,-0.171148 -0.19947,-0.322161 -0.19947,-0.335584 0,-0.02356 -0.0501,-0.102393 -0.27058,-0.425515 -0.0569,-0.08343 -0.097,-0.197345 -0.0891,-0.253152 0.0142,-0.09989 0.0277,-0.101667 0.86594,-0.114292 0.57635,-0.0087 0.88364,0.0043 0.95093,0.04008 0.11155,0.05936 0.22262,0.225672 0.70417,1.054396 0.18388,0.316439 0.37345,0.631464 0.42127,0.700056 0.0478,0.06859 0.0869,0.143469 0.0869,0.166396 0,0.02293 0.0386,0.09108 0.0858,0.151454 0.0472,0.06037 0.15193,0.234041 0.23268,0.385933 0.0807,0.15189 0.16417,0.293619 0.18538,0.31495 0.077,0.07745 0.2299,-0.06855 0.41408,-0.395348 0.10347,-0.183618 0.23911,-0.416699 0.30139,-0.517959 0.0622,-0.101262 0.15794,-0.266961 0.21257,-0.368221 0.0547,-0.10126 0.11251,-0.194467 0.12861,-0.207125 0.0161,-0.01267 0.0548,-0.07479 0.086,-0.138082 0.0312,-0.06329 0.11839,-0.218631 0.19372,-0.345206 0.0753,-0.126575 0.17727,-0.303976 0.22656,-0.394223 0.0493,-0.09025 0.15123,-0.230055 0.22655,-0.310686 l 0.13695,-0.1466 h 0.80626 c 0.44345,0 0.83902,0.01257 0.87907,0.02794 0.12425,0.04768 0.0814,0.216851 -0.14583,0.575248 -0.30838,0.486483 -0.31011,0.489291 -0.51888,0.84668 -0.10352,0.177206 -0.24886,0.415399 -0.32297,0.529317 -0.0741,0.113917 -0.16016,0.258904 -0.1912,0.322192 -0.031,0.06329 -0.13741,0.239344 -0.23638,0.391234 -0.099,0.151892 -0.19857,0.31759 -0.22138,0.368221 -0.0228,0.05063 -0.10311,0.185261 -0.17847,0.299178 -0.0754,0.113918 -0.16892,0.269261 -0.20792,0.345208 -0.039,0.07595 -0.13185,0.231288 -0.20634,0.345205 -0.0745,0.113918 -0.15533,0.248549 -0.17965,0.299179 -0.0243,0.05063 -0.0867,0.154193 -0.13871,0.230138 -0.0901,0.131629 -0.0945,0.202627 -0.0955,1.518909 -6.9e-4,1.019562 -0.0162,1.410932 -0.0591,1.495895 -0.0581,0.114932 -0.0591,0.115083 -0.81971,0.127652 -0.69218,0.01143 -0.76857,0.0049 -0.83869,-0.07267 z m 4.17425,-0.04009 c -0.0172,-0.06874 -0.005,-0.18572 0.0274,-0.264659 0.0321,-0.07781 0.10954,-0.276103 0.17214,-0.440651 0.0626,-0.164549 0.16516,-0.433809 0.2279,-0.598358 0.0627,-0.164548 0.14367,-0.390128 0.17983,-0.501289 0.0361,-0.111159 0.0845,-0.225077 0.10736,-0.253149 0.0229,-0.02808 0.0728,-0.156911 0.11093,-0.286304 0.0381,-0.129393 0.0901,-0.274381 0.1155,-0.322193 0.0817,-0.153995 0.33084,-0.839487 0.33084,-0.910383 0,-0.03776 0.0192,-0.08052 0.0427,-0.09502 0.0235,-0.01451 0.0669,-0.103754 0.0965,-0.198332 0.0724,-0.231052 0.26246,-0.737782 0.34078,-0.908404 0.0349,-0.07595 0.0947,-0.231288 0.13305,-0.345206 0.14655,-0.435666 0.25893,-0.741062 0.29263,-0.795221 0.0374,-0.06013 0.21572,-0.549353 0.29731,-0.815743 0.0272,-0.0886 0.0682,-0.184322 0.0913,-0.212711 0.0231,-0.02839 0.0728,-0.155536 0.11055,-0.282549 0.10664,-0.359105 0.16234,-0.379263 1.048,-0.379263 0.8698,0 0.87951,0.0043 1.03932,0.462487 0.1736,0.497675 0.20292,0.576112 0.28789,0.769981 0.0475,0.108267 0.0863,0.220824 0.0863,0.250126 0,0.0293 0.0392,0.13749 0.087,0.240413 0.0478,0.102925 0.11893,0.280342 0.15794,0.394259 0.039,0.113918 0.12504,0.352111 0.19121,0.529318 0.19515,0.522693 0.29476,0.790582 0.38937,1.047126 0.049,0.132903 0.1538,0.407343 0.23286,0.609865 0.079,0.202521 0.17222,0.45107 0.20703,0.55233 0.0348,0.10126 0.11463,0.318741 0.17738,0.483288 0.26799,0.702871 0.36195,0.954201 0.4216,1.127677 0.0348,0.101259 0.12962,0.349808 0.21068,0.55233 0.0811,0.20252 0.1496,0.440713 0.1523,0.529315 l 0.005,0.161098 -0.80679,0.01253 c -0.60301,0.0094 -0.82733,-0.0025 -0.88807,-0.0469 -0.0465,-0.03398 -0.1864,-0.374442 -0.32673,-0.794996 -0.32214,-0.965397 -0.19382,-0.898199 -1.70097,-0.890694 -0.62976,0.0032 -1.18476,0.01609 -1.23332,0.02879 -0.13255,0.03467 -0.36821,0.559529 -0.5527,1.230996 -0.0279,0.101261 -0.10053,0.251425 -0.16157,0.3337 l -0.11099,0.14959 h -0.77925 -0.77925 z m 4.49572,-2.985951 c 0.049,-0.05895 0.0421,-0.112812 -0.0396,-0.310685 -0.0544,-0.131652 -0.11284,-0.311861 -0.12999,-0.400464 -0.0172,-0.0886 -0.0576,-0.202521 -0.0898,-0.253152 -0.0323,-0.05063 -0.0837,-0.195617 -0.11432,-0.322192 -0.0306,-0.126575 -0.0705,-0.250849 -0.0887,-0.276165 -0.0182,-0.02531 -0.0778,-0.195702 -0.13244,-0.378639 -0.0648,-0.216651 -0.13165,-0.349859 -0.19186,-0.382079 -0.081,-0.04337 -0.10077,-0.02949 -0.16009,0.112503 -0.0372,0.08908 -0.0684,0.188525 -0.0692,0.220983 -7.1e-4,0.03246 -0.0416,0.141861 -0.0905,0.243123 -0.0489,0.10126 -0.0896,0.225841 -0.0905,0.276845 -7e-4,0.051 -0.043,0.170027 -0.0936,0.264492 -0.0506,0.09446 -0.0921,0.203523 -0.0921,0.242351 0,0.03882 -0.0512,0.192299 -0.11383,0.341051 -0.0626,0.148752 -0.12708,0.353285 -0.14327,0.454515 -0.0371,0.232095 -0.0571,0.226676 0.86134,0.233494 0.59795,0.0044 0.72927,-0.0067 0.77849,-0.06598 z M 59.57199,15.127203 c -0.01189,-0.01165 -0.212678,-0.05409 -0.446203,-0.09428 -0.990365,-0.170432 -1.684391,-0.716945 -2.037157,-1.604155 -0.204168,-0.513504 -0.230578,-0.923612 -0.230726,-3.5827485 0,-2.3514564 0.0028,-2.4231764 0.09069,-2.5030094 0.08001,-0.07241 0.177006,-0.08118 0.815216,-0.07373 0.433803,0.0051 0.748196,0.0282 0.783707,0.05768 0.04705,0.03905 0.0595,0.573448 0.06027,2.5866034 l 7.03e-4,2.5373865 0.112237,0.318077 c 0.127808,0.362209 0.310644,0.577138 0.620268,0.729151 0.183758,0.09022 0.281689,0.102668 0.80748,0.102668 0.525784,0 0.623715,-0.01246 0.807472,-0.102668 0.430589,-0.211397 0.622069,-0.533767 0.690383,-1.162298 0.02061,-0.189864 0.03932,-1.380826 0.0415,-2.6465835 0.0021,-1.2657574 0.01969,-2.3260494 0.03882,-2.3562064 0.02426,-0.03813 0.263472,-0.05752 0.785486,-0.06367 0.61026,-0.0072 0.763381,0.0039 0.818817,0.05935 0.05873,0.05873 0.06759,0.429149 0.064,2.6690824 -0.0021,1.4304895 -0.02342,2.7192185 -0.04698,2.8638405 -0.180628,1.109799 -1.021318,1.942382 -2.194519,2.173357 -0.374556,0.07374 -1.531805,0.141167 -1.581727,0.09216 z m 45.8867,-0.0032 c -0.0108,-0.01073 -0.20321,-0.05157 -0.42773,-0.09076 -0.3636,-0.06346 -0.64124,-0.158052 -0.92592,-0.315437 -0.0506,-0.02799 -0.14148,-0.07678 -0.2019,-0.10842 -0.21001,-0.109946 -0.59185,-0.474263 -0.75546,-0.720752 -0.3039,-0.457834 -0.50259,-1.169053 -0.40115,-1.435875 l 0.0444,-0.116894 h 0.78176 0.78176 l 0.0537,0.195617 c 0.0295,0.107591 0.0821,0.260885 0.11692,0.340657 0.0348,0.07977 0.0632,0.163486 0.0632,0.186033 0,0.09371 0.4108,0.430375 0.66739,0.54695 0.24484,0.11123 0.33363,0.125852 0.78247,0.12886 0.43029,0.0029 0.54777,-0.01305 0.78247,-0.106147 0.61957,-0.24575 0.84592,-0.729014 0.54082,-1.15468 -0.23324,-0.325421 -0.65474,-0.503661 -1.80658,-0.763935 -1.04916,-0.237077 -1.86986,-0.641747 -2.20932,-1.089368 -0.3751,-0.494641 -0.48115,-1.2869655 -0.25328,-1.8923809 0.27053,-0.71871 0.64325,-1.060758 1.60744,-1.475133 0.47659,-0.204823 1.92777,-0.192333 2.53062,0.02178 0.77078,0.273755 1.32318,0.743083 1.52549,1.296076 0.14056,0.3841734 0.1635,0.5010124 0.14984,0.7628084 l -0.0138,0.264221 h -0.80041 -0.8004 l -0.055,-0.18411 c -0.0956,-0.319654 -0.24148,-0.5539474 -0.42341,-0.6797634 -0.19758,-0.136633 -0.66711,-0.262093 -0.98473,-0.263121 -0.27508,-8.44e-4 -0.67318,0.118254 -0.85576,0.25611 -0.1779,0.134329 -0.31506,0.4668044 -0.27507,0.6667754 0.031,0.154578 0.19395,0.411233 0.26123,0.411233 0.0229,0 0.15473,0.05178 0.29309,0.11507 0.13836,0.06329 0.27732,0.1150675 0.30879,0.1150675 0.0314,0 0.19331,0.04136 0.35966,0.0919 0.34547,0.104979 0.72211,0.203844 1.15395,0.302905 1.26638,0.290493 2.01829,0.998492 2.09816,1.975608 0.11387,1.39315 -0.68898,2.349416 -2.21747,2.641183 -0.45394,0.08665 -1.43594,0.137824 -1.49582,0.07795 z m 43.75333,-0.09479 c -0.47498,-0.105654 -0.77992,-0.224815 -1.07339,-0.419449 -0.0931,-0.06178 -0.20966,-0.137834 -0.25892,-0.169015 -0.31397,-0.198699 -0.88311,-0.852579 -1.0133,-1.16415 -0.0338,-0.08088 -0.0827,-0.160182 -0.10863,-0.17622 -0.0259,-0.01604 -0.0616,-0.09624 -0.0793,-0.178223 -0.0177,-0.08198 -0.0608,-0.205159 -0.0958,-0.273721 -0.0863,-0.168884 -0.24687,-1.142192 -0.24718,-1.498112 -5.2e-4,-0.686247 0.22566,-1.6636695 0.50282,-2.1722795 0.35768,-0.6563554 0.85767,-1.1640194 1.45877,-1.4811574 1.01231,-0.534082 2.59881,-0.532024 3.65095,0.0047 0.8314,0.424153 1.53927,1.330224 1.77797,2.2758044 0.15011,0.5946505 0.16586,0.7576735 0.14704,1.5227845 -0.0148,0.601109 -0.0371,0.822132 -0.0963,0.953593 -0.0424,0.09412 -0.0777,0.218393 -0.0785,0.276166 -7e-4,0.05777 -0.0524,0.208601 -0.11464,0.335179 -0.0622,0.126574 -0.1134,0.254548 -0.11363,0.284382 -5.2e-4,0.02984 -0.027,0.08162 -0.0595,0.11507 -0.0325,0.03345 -0.11564,0.158218 -0.18476,0.277259 -0.18091,0.31156 -0.64774,0.771719 -1.03422,1.019449 -0.18361,0.117689 -0.36008,0.213981 -0.39216,0.213981 -0.0321,0 -0.10336,0.03154 -0.1584,0.07009 -0.055,0.03855 -0.33204,0.121399 -0.61557,0.184111 -0.64467,0.142588 -1.17142,0.142509 -1.81334,-3.48e-4 z m 1.42685,-1.464467 c 0.35735,-0.07498 0.75876,-0.341109 0.99324,-0.658493 0.0993,-0.134363 0.18046,-0.261022 0.18046,-0.281464 0,-0.02045 0.0404,-0.112486 0.0897,-0.204539 0.11033,-0.205849 0.23221,-0.878376 0.23216,-1.281133 -3e-5,-0.406593 -0.10843,-1.044703 -0.21955,-1.2923075 -0.0502,-0.111973 -0.10558,-0.250248 -0.12299,-0.307279 -0.0174,-0.05703 -0.15967,-0.236668 -0.31617,-0.399196 -0.21315,-0.221385 -0.35853,-0.3261854 -0.57957,-0.4178064 -0.27276,-0.113061 -0.33533,-0.121049 -0.8285,-0.105769 -0.47173,0.01461 -0.56346,0.03135 -0.79284,0.144669 -0.23753,0.117327 -0.7302,0.5489164 -0.7302,0.6396564 0,0.02104 -0.0345,0.09084 -0.0766,0.155123 -0.0421,0.06428 -0.12693,0.255138 -0.18849,0.424135 -0.0949,0.2605905 -0.11546,0.4170515 -0.13532,1.0299965 -0.0224,0.69218 -0.0181,0.739849 0.10254,1.127676 0.0693,0.222719 0.16462,0.454339 0.2119,0.514712 0.0473,0.06037 0.0859,0.133645 0.0859,0.162826 0,0.07423 0.4009,0.451106 0.61709,0.580103 0.35863,0.213995 0.94385,0.280982 1.47716,0.16909 z m 33.19986,1.554418 c -0.0134,-0.0134 -0.19808,-0.05687 -0.41041,-0.09662 -0.4339,-0.08122 -1.07299,-0.37256 -1.41774,-0.646291 -0.2597,-0.2062 -0.6918,-0.664008 -0.69327,-0.73451 -5.3e-4,-0.02854 -0.0297,-0.0757 -0.0648,-0.104787 -0.0606,-0.05027 -0.24998,-0.416249 -0.41645,-0.804686 -0.1435,-0.334839 -0.26429,-1.081078 -0.26159,-1.616169 0.003,-0.528334 0.13108,-1.3389215 0.24927,-1.5734025 0.0359,-0.07129 0.0792,-0.18724 0.0961,-0.257671 0.0861,-0.358846 0.75846,-1.2382104 1.14574,-1.4984494 0.59387,-0.399062 1.09966,-0.59071 1.74392,-0.660776 1.49339,-0.162413 2.71231,0.323416 3.37529,1.345311 0.21724,0.334843 0.33163,0.6248244 0.46974,1.1908074 0.049,0.200937 -0.0705,0.234451 -0.83652,0.234451 -0.76807,0 -0.86784,-0.02962 -0.92142,-0.273558 -0.0334,-0.152188 -0.24791,-0.466199 -0.43133,-0.631491 -0.0669,-0.06025 -0.25016,-0.1712374 -0.40732,-0.2466344 -0.25877,-0.124142 -0.32958,-0.137089 -0.74987,-0.137089 -0.42075,0 -0.49208,0.01308 -0.76347,0.139965 -0.3148,0.147177 -0.66045,0.4570784 -0.83263,0.7465004 -0.0551,0.09264 -0.15813,0.350513 -0.22891,0.5730455 -0.11863,0.372947 -0.12832,0.458624 -0.12375,1.095018 0.004,0.627054 0.0163,0.721907 0.12896,1.033589 0.2826,0.782061 0.67986,1.195649 1.3037,1.357304 0.50016,0.129604 1.12601,0.06016 1.4421,-0.160022 0.36755,-0.256026 0.52237,-0.480995 0.7117,-1.034155 0.0693,-0.202521 0.14862,-0.383437 0.17623,-0.402035 0.0276,-0.0186 0.38455,-0.03413 0.79321,-0.03452 0.63551,-6.96e-4 0.74707,0.0098 0.77096,0.0721 0.1083,0.282214 -0.15616,1.143396 -0.52905,1.722802 -0.44964,0.698652 -1.12279,1.143501 -2.0184,1.333847 -0.39998,0.08501 -1.23907,0.128981 -1.29993,0.06812 z m 20.67537,-0.08729 c -0.73736,-0.170768 -1.40667,-0.559807 -1.86679,-1.08508 -0.0998,-0.113917 -0.19179,-0.217479 -0.20444,-0.230136 -0.0652,-0.0652 -0.23067,-0.326901 -0.32134,-0.508238 -0.38681,-0.773576 -0.52174,-1.63085 -0.42015,-2.669553 0.10013,-1.0237795 0.42245,-1.7404299 1.10359,-2.4537529 0.69608,-0.728961 1.88694,-1.094642 3.12448,-0.959447 1.15926,0.126643 1.93931,0.633343 2.49397,1.620016 0.0964,0.1715214 0.32522,0.8366994 0.32522,0.9454884 0,0.186364 -0.0764,0.205201 -0.8326,0.205201 -0.8256,0 -0.85112,-0.0098 -0.98605,-0.377702 -0.10611,-0.289318 -0.43778,-0.61707 -0.78891,-0.7795944 -0.25458,-0.117832 -0.33343,-0.131473 -0.75989,-0.13144 -0.433,3.3e-5 -0.5021,0.01246 -0.76736,0.137948 -0.3026,0.143148 -0.75961,0.5641064 -0.81689,0.7524544 -0.0166,0.05454 -0.0549,0.130224 -0.0851,0.168196 -0.0302,0.03797 -0.10542,0.245097 -0.16716,0.4602735 -0.0958,0.333972 -0.11191,0.485552 -0.10985,1.035621 0.002,0.570353 0.0161,0.684046 0.12176,0.989591 0.0656,0.189865 0.16774,0.435014 0.22688,0.544776 0.10514,0.195174 0.45991,0.605914 0.52332,0.605914 0.0176,0 0.0897,0.0411 0.16022,0.09132 0.15546,0.11069 0.63492,0.22926 0.93083,0.23019 0.32888,0.0011 0.68369,-0.08682 0.8883,-0.219949 0.39852,-0.259299 0.58052,-0.543871 0.81564,-1.275266 l 0.0592,-0.184109 0.77129,-0.01263 0.77129,-0.01261 0.0498,0.109259 c 0.0915,0.200742 -0.0866,0.913234 -0.35866,1.434893 -0.21054,0.40374 -0.6377,0.873941 -1.04512,1.150422 -0.69414,0.471055 -1.86252,0.643273 -2.83547,0.417946 z M 65.537255,14.887106 c -0.06457,-0.06455 -0.07233,-0.469938 -0.07233,-3.770969 0,-4.0184649 -0.01139,-3.8398199 0.244933,-3.8455349 0.413955,-0.0092 1.426278,0.01082 1.471389,0.02914 0.09442,0.03835 0.188814,0.183041 1.32841,2.0363534 0.160745,0.261418 0.348891,0.561748 0.418099,0.6673985 0.06921,0.105651 0.140249,0.223161 0.157868,0.261133 0.04016,0.08656 0.203612,0.34896 0.460789,0.739817 0.109494,0.166405 0.199076,0.323716 0.199076,0.34958 0,0.02586 0.04143,0.08451 0.09205,0.130335 0.05064,0.04582 0.09206,0.09953 0.09206,0.119357 0,0.09497 0.26063,0.453539 0.322192,0.443256 0.06014,-0.01004 0.07059,-0.3113 0.08097,-2.3311005 0.0083,-1.6195694 0.02743,-2.3381974 0.06316,-2.3813004 0.03889,-0.04687 0.226772,-0.06173 0.780422,-0.06173 0.673813,0 0.732801,0.0068 0.776829,0.08903 0.06351,0.118602 0.06611,7.3128309 0.0028,7.4795049 l -0.04487,0.118065 h -0.797809 c -0.570916,0 -0.817375,-0.01637 -0.866566,-0.05753 -0.07587,-0.06351 -0.143998,-0.167383 -0.73209,-1.116168 -0.109831,-0.177205 -0.286189,-0.456824 -0.391892,-0.621371 -0.10571,-0.16455 -0.258788,-0.413098 -0.34017,-0.552331 -0.08139,-0.139234 -0.207994,-0.346357 -0.281357,-0.460276 -0.07336,-0.113918 -0.176211,-0.279617 -0.22856,-0.368219 -0.05233,-0.0886 -0.155673,-0.254303 -0.229621,-0.368221 -0.191719,-0.295362 -0.4702,-0.761952 -0.56382,-0.944674 -0.08138,-0.158844 -0.248161,-0.284513 -0.303653,-0.228803 -0.01681,0.01687 -0.03059,1.050933 -0.03059,2.297889 0,1.853905 -0.01153,2.281094 -0.06316,2.34345 -0.09164,0.110614 -1.434409,0.11403 -1.544507,0.0039 z m 9.132038,-0.04574 c -0.02785,-0.07323 -0.04431,-1.502273 -0.0434,-3.762752 0.0014,-3.0717319 0.01167,-3.6582239 0.06668,-3.7307949 0.05915,-0.07812 0.134715,-0.08588 0.813852,-0.08368 0.659619,0.0021 0.755686,0.01206 0.807852,0.0834 0.07667,0.104848 0.08784,7.3803129 0.01153,7.5228559 -0.04424,0.08266 -0.103614,0.08903 -0.829627,0.08903 h -0.781987 z m 5.930118,-0.14659 c -0.06386,-0.145561 -0.141424,-0.367944 -0.172272,-0.494183 -0.03088,-0.126239 -0.07289,-0.250512 -0.09341,-0.276165 -0.02054,-0.02565 -0.05233,-0.119133 -0.07065,-0.207736 -0.01836,-0.0886 -0.06956,-0.254303 -0.113847,-0.36822 -0.09887,-0.254292 -0.325014,-0.972557 -0.326069,-1.035619 -5.27e-4,-0.02531 -0.04079,-0.128878 -0.08971,-0.230138 -0.04888,-0.10126 -0.08963,-0.221696 -0.09049,-0.267633 -7.04e-4,-0.04594 -0.04248,-0.180567 -0.09246,-0.299178 -0.05001,-0.118612 -0.110485,-0.298508 -0.134427,-0.399767 -0.04339,-0.183648 -0.190087,-0.638223 -0.30444,-0.943565 -0.0332,-0.0886 -0.126191,-0.3785765 -0.206679,-0.6443865 -0.08048,-0.265808 -0.174769,-0.555781 -0.209521,-0.6443854 -0.03474,-0.0886 -0.0867,-0.254302 -0.115443,-0.368219 -0.02877,-0.11392 -0.06822,-0.227837 -0.08775,-0.253152 -0.01955,-0.02531 -0.06126,-0.159946 -0.09273,-0.299179 -0.03151,-0.139235 -0.08773,-0.301707 -0.125002,-0.36105 -0.0894,-0.14235 -0.04389,-0.313726 0.08914,-0.33541 0.05725,-0.0093 0.444621,-0.0066 0.860869,0.006 l 0.756819,0.02301 0.107756,0.276166 c 0.05929,0.151889 0.128477,0.36937 0.153817,0.483287 0.02532,0.11392 0.07538,0.270209 0.11121,0.347313 0.03587,0.0771 0.08796,0.241955 0.11583,0.366338 0.02785,0.124382 0.06738,0.2477094 0.08772,0.2740594 0.0204,0.02635 0.06168,0.151472 0.09174,0.278047 0.0301,0.126578 0.09326,0.3337 0.14039,0.460277 0.04712,0.126575 0.141502,0.4165485 0.209738,0.6443845 0.06822,0.227838 0.151292,0.486743 0.184574,0.575345 0.06182,0.164622 0.256045,0.815103 0.329739,1.104344 0.08197,0.32173 0.243533,0.197265 0.38794,-0.298862 0.04424,-0.151892 0.111259,-0.369371 0.148985,-0.48329 0.0377,-0.113918 0.124594,-0.393534 0.193048,-0.621371 0.06843,-0.227837 0.152994,-0.479516 0.187872,-0.559287 0.03488,-0.07977 0.06344,-0.1664505 0.06344,-0.1926195 0,-0.02617 0.09088,-0.323368 0.201953,-0.660442 0.111069,-0.337075 0.216223,-0.6750004 0.233686,-0.7509454 0.01744,-0.07595 0.05894,-0.20022 0.09214,-0.276166 0.0332,-0.07595 0.107207,-0.289762 0.164402,-0.475147 0.164317,-0.532569 0.122948,-0.51165 1.026635,-0.519151 0.938403,-0.0078 0.951682,-0.0018 0.834009,0.377706 -0.04234,0.136604 -0.11422,0.351933 -0.159697,0.47851 -0.08512,0.236914 -0.333784,0.9912544 -0.447596,1.3578124 -0.03538,0.113918 -0.102108,0.310685 -0.148303,0.437262 -0.04621,0.1265745 -0.150743,0.4476165 -0.232322,0.7134255 -0.08158,0.265809 -0.173868,0.545428 -0.205089,0.621372 -0.03123,0.07594 -0.113931,0.324495 -0.183807,0.552331 -0.06991,0.227837 -0.158578,0.486742 -0.197113,0.575344 -0.03854,0.0886 -0.09708,0.264659 -0.130094,0.391234 -0.03299,0.126575 -0.123335,0.406194 -0.200729,0.621371 -0.07739,0.21518 -0.170774,0.494798 -0.207509,0.621373 -0.122962,0.423633 -0.298385,0.86655 -0.358266,0.904538 -0.03263,0.02069 -0.464855,0.03794 -0.960558,0.03832 l -0.901275,6.96e-4 -0.116168,-0.264659 z m 6.323552,0.209427 c -0.08,-0.08 -0.08,-7.4961329 0,-7.5761329 0.04171,-0.04175 0.737795,-0.05523 2.850601,-0.05523 h 2.795376 l 0.03404,0.103562 c 0.05612,0.170879 0.03545,1.278466 -0.02504,1.338944 -0.03798,0.03803 -0.605569,0.06001 -1.97274,0.0764 l -1.919386,0.02301 -0.01273,0.7026034 -0.01273,0.7025995 0.110316,0.04194 c 0.06119,0.02327 0.833207,0.03629 1.734152,0.02924 1.528056,-0.01194 1.628856,-0.0077 1.708979,0.07245 0.07302,0.07302 0.08514,0.160922 0.08514,0.617481 0,0.292789 -0.02145,0.572405 -0.04762,0.621372 -0.04579,0.08558 -0.114185,0.08903 -1.762854,0.08903 -1.272679,0 -1.729453,0.01425 -1.770435,0.05523 -0.07055,0.07055 -0.07722,1.520713 -0.0076,1.650812 0.04593,0.08582 0.116337,0.08903 1.952885,0.08903 1.670662,0 1.914139,0.0089 1.977564,0.07233 0.05803,0.05803 0.07233,0.185978 0.07233,0.647411 0,0.316296 -0.02145,0.615145 -0.04761,0.664111 -0.04628,0.08653 -0.126704,0.08903 -2.867516,0.08903 -2.13186,0 -2.833348,-0.01348 -2.875104,-0.05523 z m 7.901657,-0.02088 c -0.05219,-0.06285 -0.06513,-0.71555 -0.07444,-3.74644 -0.01055,-3.4359369 -0.0063,-3.6766819 0.06921,-3.7697449 l 0.0805,-0.09941 2.163102,0.0039 c 2.420166,0.0044 2.575256,0.01952 3.048278,0.296747 0.88189,0.516861 1.19634,1.3351314 0.97029,2.5249479 -0.0278,0.146304 -0.0686,0.277172 -0.0907,0.29082 -0.0221,0.01366 -0.0684,0.09232 -0.10283,0.174839 -0.0345,0.08252 -0.19985,0.272688 -0.3675,0.422608 -0.16765,0.14992 -0.30482,0.305358 -0.30484,0.345418 -10e-6,0.04006 0.0764,0.12291 0.16972,0.184112 0.22614,0.14824 0.43368,0.45738 0.55941,0.833246 0.0784,0.234284 0.11344,0.491527 0.147,1.077864 0.0325,0.568006 0.0701,0.851137 0.14345,1.078747 0.15193,0.471708 0.17329,0.458412 -0.73636,0.458412 -0.593285,0 -0.790406,-0.01461 -0.829328,-0.06151 -0.117673,-0.141797 -0.190537,-0.488396 -0.235374,-1.119602 -0.0595,-0.837537 -0.174811,-1.255908 -0.412099,-1.494941 -0.245791,-0.247594 -0.414201,-0.282887 -1.451035,-0.304091 -0.83825,-0.01715 -0.92376,-0.01168 -0.978085,0.06262 -0.04551,0.06224 -0.0595,0.402293 -0.0595,1.44423 0,0.998605 -0.01477,1.377585 -0.05521,1.418057 -0.03854,0.03854 -0.287188,0.05523 -0.822861,0.05523 -0.657861,0 -0.77666,-0.01089 -0.830795,-0.07611 z m 4.178822,-4.354673 c 0.292674,-0.202973 0.40529,-0.448172 0.399861,-0.8706315 -0.0035,-0.27108 -0.02666,-0.389259 -0.0995,-0.507087 -0.274669,-0.4444224 -0.466557,-0.5050414 -1.68534,-0.5324034 -0.890437,-0.01999 -0.967873,-0.01533 -1.02411,0.06158 -0.08481,0.115977 -0.08778,1.8611799 -0.0035,1.9462419 0.04382,0.04414 0.316165,0.05456 1.143246,0.04373 l 1.085715,-0.01421 0.183434,-0.12721 z m 12.304908,4.38574 c -0.0603,-0.03808 -0.0707,-0.511281 -0.082,-3.71602 -0.007,-2.0198105 -0.002,-3.7167019 0.0111,-3.7708689 0.0132,-0.05416 0.0605,-0.113018 0.105,-0.130781 0.0948,-0.03782 1.50021,-0.03274 1.6006,0.0058 0.0596,0.02287 0.0683,0.508003 0.0683,3.8136289 0,3.411174 -0.007,3.790197 -0.0728,3.815361 -0.11852,0.04548 -1.55502,0.03041 -1.63021,-0.0171 z m 5.60385,-0.0046 c -0.0754,-0.04392 -0.0806,-0.237561 -0.0806,-3.030783 0,-2.3745795 -0.0121,-2.9938909 -0.0592,-3.0329609 -0.0368,-0.03054 -0.44701,-0.05442 -1.08542,-0.06317 -0.95382,-0.01308 -1.03089,-0.02038 -1.09154,-0.10342 -0.0764,-0.104564 -0.0932,-1.198975 -0.0203,-1.314495 0.0376,-0.05959 0.40118,-0.07219 2.65739,-0.09205 2.96262,-0.02609 3.53923,-0.01136 3.60443,0.09205 0.0729,0.115654 0.056,1.210004 -0.0203,1.314495 -0.0606,0.08304 -0.13773,0.09034 -1.09154,0.10342 -0.63842,0.0088 -1.04863,0.03263 -1.08543,0.06317 -0.0471,0.03907 -0.0592,0.6570994 -0.0592,3.0260429 0,2.254035 -0.0134,2.99036 -0.0552,3.032181 -0.0698,0.0698 -1.49453,0.07468 -1.61328,0.0055 z m 3.9405,-0.01932 c -0.0429,-0.111773 0.0868,-0.514323 0.3576,-1.109711 0.0473,-0.104033 0.086,-0.21875 0.086,-0.254926 0,-0.03617 0.0402,-0.144671 0.0894,-0.2411 0.0492,-0.09643 0.10298,-0.240616 0.1196,-0.320418 0.0166,-0.0798 0.056,-0.186518 0.0874,-0.237149 0.0315,-0.05063 0.0723,-0.154191 0.0907,-0.230138 0.0184,-0.07595 0.0712,-0.220932 0.11731,-0.322192 0.0461,-0.10126 0.14037,-0.339452 0.20946,-0.529317 0.0691,-0.189862 0.17492,-0.461713 0.23517,-0.604114 0.0603,-0.142398 0.10954,-0.284188 0.10954,-0.315089 0,-0.0309 0.0297,-0.111162 0.066,-0.178355 0.0363,-0.06719 0.0974,-0.215377 0.13574,-0.329294 0.0384,-0.113919 0.12464,-0.3521105 0.19168,-0.5293175 0.067,-0.177205 0.15186,-0.405042 0.18851,-0.506301 0.0366,-0.101262 0.0968,-0.249379 0.13361,-0.3291504 0.0369,-0.07977 0.067,-0.173776 0.067,-0.208899 0,-0.03512 0.0418,-0.145911 0.093,-0.246194 0.0511,-0.100287 0.11207,-0.244474 0.13535,-0.320419 0.15177,-0.495124 0.27197,-0.736597 0.39083,-0.785178 0.0777,-0.03177 0.39993,-0.04544 0.86588,-0.03674 0.86632,0.01618 0.84729,0.0068 1.02683,0.50235 0.0637,0.175764 0.15803,0.433491 0.20965,0.572724 0.0516,0.139234 0.1254,0.346356 0.16398,0.460276 0.0385,0.1139174 0.0974,0.2692614 0.1307,0.3452054 0.0601,0.136949 0.14347,0.357357 0.2526,0.6674 0.0312,0.0886 0.0955,0.2496775 0.14298,0.3579445 0.0475,0.108266 0.0863,0.218055 0.0863,0.243973 0,0.04419 0.21679,0.633394 0.34587,0.940004 0.032,0.07595 0.0735,0.189865 0.0923,0.253152 0.0188,0.06329 0.0708,0.197919 0.11556,0.299179 0.0448,0.101259 0.0925,0.225535 0.10597,0.276165 0.0135,0.05063 0.1,0.288823 0.19212,0.529317 0.0922,0.240494 0.19628,0.520111 0.23137,0.62137 0.0351,0.101262 0.11843,0.329099 0.1852,0.506304 0.0667,0.177207 0.15138,0.405042 0.18803,0.506304 0.0366,0.101259 0.0983,0.252624 0.13704,0.336365 0.12616,0.272814 0.0755,0.2888 -0.87001,0.274512 -0.67987,-0.01028 -0.83536,-0.02491 -0.86648,-0.08156 -0.0895,-0.163066 -0.21721,-0.495466 -0.24748,-0.644387 -0.018,-0.0886 -0.0613,-0.20624 -0.0962,-0.261418 -0.0349,-0.05518 -0.0774,-0.18778 -0.0945,-0.294675 -0.0596,-0.372338 -0.0264,-0.364458 -1.53069,-0.364458 h -1.32951 l -0.0772,0.117813 c -0.0709,0.108242 -0.19319,0.43549 -0.37423,1.001597 -0.039,0.122029 -0.10773,0.287728 -0.15266,0.368219 l -0.0817,0.146349 -0.81412,0.01257 c -0.6997,0.0108 -0.81795,0.0026 -0.84142,-0.05859 z m 4.53211,-3.098022 c 0.008,-0.05842 -0.0149,-0.15193 -0.0515,-0.207794 -0.0366,-0.05587 -0.0884,-0.194477 -0.11503,-0.308026 -0.0267,-0.11355 -0.13294,-0.433192 -0.23618,-0.710319 -0.10323,-0.277126 -0.1877,-0.531542 -0.1877,-0.565367 0,-0.1099505 -0.23334,-0.5253175 -0.28537,-0.5079745 -0.0442,0.01472 -0.17816,0.355669 -0.31238,0.7947395 -0.0232,0.07595 -0.10701,0.314139 -0.18621,0.529317 -0.0792,0.215179 -0.17208,0.478143 -0.20638,0.584365 -0.0343,0.106223 -0.0871,0.239214 -0.1172,0.295536 -0.10527,0.196696 0.0271,0.228258 0.89913,0.214295 0.77934,-0.01247 0.78384,-0.01315 0.79881,-0.118772 z m 5.2643,3.111821 c -0.0418,-0.04182 -0.0552,-0.777355 -0.0552,-3.028612 0,-2.2512555 -0.0134,-2.9867919 -0.0552,-3.0286109 -0.0396,-0.03958 -0.33958,-0.05523 -1.05863,-0.05523 -1.26836,0 -1.18751,0.05268 -1.18751,-0.773671 0,-0.399787 0.0185,-0.614415 0.0575,-0.666769 0.0528,-0.07084 0.30774,-0.07746 3.09125,-0.0803 2.62564,-0.0027 3.04291,0.0061 3.10212,0.06531 0.0546,0.05456 0.0668,0.192543 0.0604,0.681372 -0.0108,0.828844 0.0724,0.774058 -1.17514,0.774058 -0.69718,0 -0.99103,0.01574 -1.03052,0.05523 -0.0418,0.0418 -0.0552,0.7668964 -0.0552,2.9815479 0,2.574049 -0.009,2.938629 -0.0717,3.02861 -0.0691,0.09857 -0.0989,0.102298 -0.81929,0.102298 -0.52012,0 -0.76445,-0.0168 -0.80287,-0.05523 z m 8.78368,-0.0338 c -0.0317,-0.05923 -0.0476,-1.319224 -0.0476,-3.765459 0,-2.9653279 0.0117,-3.6924419 0.0606,-3.7592029 0.0567,-0.07749 0.17776,-0.08233 1.89864,-0.07579 1.01096,0.0039 1.9786,0.02679 2.15029,0.051 0.56066,0.07906 1.1016,0.361252 1.44896,0.755868 0.70945,0.805981 0.75899,2.3105649 0.10534,3.1988849 -0.34872,0.473895 -0.76369,0.72005 -1.47308,0.873796 -0.35658,0.07728 -0.60012,0.0943 -1.34934,0.0943 -0.54217,0 -0.95045,0.01939 -1.00325,0.04764 -0.0846,0.04527 -0.089,0.108589 -0.089,1.268785 0,0.753739 -0.0182,1.255211 -0.0476,1.310164 -0.0442,0.08264 -0.10358,0.08903 -0.82687,0.08903 -0.7233,0 -0.78265,-0.0064 -0.82688,-0.08903 z m 3.79959,-4.17477 c 0.3811,-0.184564 0.53956,-0.420017 0.56311,-0.8367485 0.0238,-0.42163 -0.0463,-0.650621 -0.26374,-0.861688 -0.27044,-0.2624674 -0.57314,-0.3403184 -1.45597,-0.3744624 -0.52884,-0.02045 -0.76724,-0.01312 -0.84,0.02581 -0.1001,0.05357 -0.10159,0.0694 -0.10159,1.0791674 0,0.7569865 0.0151,1.0405535 0.0575,1.0850995 0.045,0.04717 0.24398,0.05533 0.91298,0.03748 0.82471,-0.02201 0.86522,-0.02756 1.12767,-0.154662 z m 12.21637,4.218748 c -0.0603,-0.0381 -0.0705,-0.515149 -0.0803,-3.762047 -0.006,-2.0451255 0.006,-3.7457989 0.0278,-3.7792739 0.0661,-0.103085 0.32476,-0.129424 1.00936,-0.102798 0.5143,0.02 0.66717,0.04063 0.70122,0.09462 0.0262,0.04148 0.0438,1.22987 0.0442,2.9772869 5.2e-4,1.776411 0.0181,2.954193 0.0456,3.026309 l 0.0449,0.118067 h 1.70718 c 1.08878,0 1.73943,0.01726 1.79621,0.04764 0.0815,0.04361 0.089,0.102018 0.089,0.688793 0,0.586775 -0.008,0.645188 -0.089,0.688794 -0.11615,0.06216 -5.198,0.06466 -5.29619,0.0026 z m 6.91333,-0.0102 c -0.042,-0.04205 -0.0552,-0.946915 -0.0552,-3.791636 0,-3.2080239 0.009,-3.7442369 0.0667,-3.7917999 0.046,-0.03816 0.29943,-0.05539 0.81487,-0.05539 0.66295,0 0.75493,0.0093 0.80778,0.08157 0.0477,0.06517 0.0596,0.814838 0.0596,3.7289669 0,2.258494 -0.0171,3.692354 -0.0449,3.765461 l -0.0449,0.118065 h -0.77439 c -0.54095,0 -0.79106,-0.01665 -0.82964,-0.05523 z m 5.65219,0.0102 c -0.0601,-0.03794 -0.0704,-0.430106 -0.0794,-3.002592 -0.006,-1.627426 -0.0193,-2.9952025 -0.0302,-3.0395039 -0.0182,-0.07365 -0.10608,-0.08055 -1.02656,-0.08055 -0.83662,0 -1.02395,-0.01211 -1.10897,-0.07165 -0.0973,-0.06817 -0.10229,-0.102599 -0.10229,-0.707792 0,-0.472984 0.0157,-0.649161 0.0612,-0.686914 0.0851,-0.07063 6.06655,-0.07717 6.19809,-0.0068 0.0855,0.04579 0.0925,0.09559 0.0925,0.660474 0,0.454642 -0.0167,0.633815 -0.0653,0.700299 -0.0607,0.08314 -0.13783,0.09032 -1.10962,0.103337 -0.93649,0.01254 -1.0464,0.02206 -1.06409,0.09206 -0.0108,0.04294 -0.0241,1.4095909 -0.0295,3.0370119 -0.009,2.572837 -0.0189,2.964643 -0.0789,3.002592 -0.09,0.05689 -1.56699,0.05689 -1.65699,8e-6 z m 5.5325,-0.0102 c -0.0874,-0.08736 -0.0792,-7.5081479 0.008,-7.5807969 0.0462,-0.03837 0.82154,-0.05287 2.84174,-0.05315 2.57667,-3.47e-4 2.78237,0.0053 2.83616,0.07893 0.0395,0.05402 0.058,0.267347 0.058,0.668883 0,0.528192 -0.01,0.599144 -0.0921,0.681616 -0.089,0.08906 -0.15342,0.09206 -1.97756,0.09206 -1.81704,0 -1.88724,0.0032 -1.93316,0.08903 -0.0756,0.1411904 -0.0613,1.2095889 0.0177,1.3175199 0.0624,0.08536 0.14192,0.08979 1.783,0.09922 1.56701,0.009 1.72277,0.01686 1.77578,0.08934 0.0786,0.107505 0.0811,1.171203 0.003,1.249385 -0.041,0.04098 -0.49686,0.05523 -1.76642,0.05523 -1.53528,0 -1.71768,0.0078 -1.77436,0.07608 -0.0454,0.05471 -0.0668,0.258432 -0.0761,0.724935 -0.007,0.356868 -0.002,0.694005 0.0116,0.749195 0.061,0.250298 0.0152,0.244862 2.06664,0.244862 1.41458,0 1.91171,0.01405 1.95288,0.05523 0.0768,0.07683 0.0768,1.285585 0,1.362416 -0.0798,0.07979 -5.65524,0.07979 -5.73503,0 z m 15.68781,-0.03379 c -0.0748,-0.13985 -0.0653,-7.4184609 0.01,-7.5183739 0.0492,-0.06544 0.16714,-0.07729 0.81699,-0.08211 0.4177,-0.0031 0.79052,0.0074 0.82849,0.02334 0.038,0.01594 0.13947,0.136959 0.22555,0.268934 0.0861,0.131979 0.19481,0.296081 0.24164,0.364673 0.0468,0.06859 0.0851,0.136574 0.0851,0.151074 0,0.01449 0.0895,0.165502 0.19894,0.335563 0.10942,0.17006 0.28303,0.443832 0.38581,0.6083794 0.60997,0.976611 1.01071,1.6225635 1.06321,1.7137985 0.033,0.05736 0.11971,0.197496 0.19268,0.311415 0.073,0.113918 0.20988,0.341754 0.30425,0.506302 0.18507,0.322665 0.36715,0.523764 0.43583,0.481324 0.0255,-0.01578 0.0428,-0.962779 0.0428,-2.3425205 0,-2.0154744 0.009,-2.3235684 0.0699,-2.3740664 0.0883,-0.07325 1.43866,-0.06515 1.5282,0.0092 0.0833,0.06915 0.0869,7.4936559 0.004,7.5769039 -0.0388,0.0388 -0.29745,0.05523 -0.86906,0.05523 h -0.81382 l -0.11099,-0.149591 c -0.061,-0.08227 -0.19919,-0.294575 -0.30701,-0.471782 -0.10781,-0.177205 -0.22084,-0.362915 -0.25119,-0.412687 -0.0303,-0.04978 -0.14319,-0.231007 -0.25079,-0.402742 -0.10759,-0.171734 -0.28364,-0.452755 -0.39123,-0.62449 -0.10759,-0.171736 -0.22129,-0.352968 -0.25267,-0.40274 -0.0314,-0.04978 -0.0994,-0.162989 -0.15115,-0.251593 -0.0518,-0.0886 -0.1542,-0.254302 -0.22768,-0.36822 -0.0735,-0.113919 -0.20833,-0.331398 -0.29969,-0.483289 -0.0914,-0.151891 -0.22726,-0.369371 -0.30198,-0.483289 -0.0747,-0.113919 -0.16602,-0.269263 -0.20286,-0.345208 -0.106,-0.218473 -0.28034,-0.409748 -0.33992,-0.372929 -0.0397,0.02453 -0.0537,0.634703 -0.0537,2.345624 0,1.737218 -0.0137,2.326209 -0.0552,2.367702 -0.0383,0.03829 -0.27786,0.05523 -0.78086,0.05523 -0.67028,0 -0.72924,-0.0068 -0.77326,-0.08903 z m 8.95402,0.0167 c -0.0646,-0.06455 -0.0723,-0.46994 -0.0723,-3.770971 0,-3.3010309 0.008,-3.7064169 0.0723,-3.7709709 0.11011,-0.110101 1.6073,-0.107634 1.64965,0.0027 0.0376,0.09797 0.0376,7.4386779 0,7.5366519 -0.0423,0.110217 -1.53961,0.11255 -1.64959,0.0026 z m 11.25786,-0.0049 c -0.0298,-0.05335 -0.0163,-0.139811 0.0437,-0.279982 0.0478,-0.111541 0.0869,-0.222024 0.0869,-0.245516 0,-0.02349 0.0381,-0.130515 0.0848,-0.237829 0.18806,-0.432888 0.29492,-0.710593 0.34075,-0.885527 0.0265,-0.101261 0.066,-0.207051 0.0877,-0.235088 0.0217,-0.02804 0.0808,-0.167846 0.13135,-0.310686 0.0505,-0.142839 0.1332,-0.376578 0.18372,-0.519417 0.0505,-0.14284 0.11027,-0.282649 0.13277,-0.310687 0.0225,-0.02803 0.0564,-0.12347 0.0754,-0.212074 0.0189,-0.0886 0.0731,-0.233281 0.12038,-0.321509 0.0473,-0.08823 0.0859,-0.189522 0.0859,-0.225097 0,-0.03557 0.0387,-0.149799 0.086,-0.253833 0.13762,-0.302611 0.28787,-0.684143 0.32823,-0.833538 0.0205,-0.07594 0.0833,-0.2519995 0.13963,-0.3912315 0.16753,-0.41455 0.25781,-0.648284 0.39106,-1.0126084 0.0694,-0.189862 0.16189,-0.428055 0.20542,-0.529317 0.0435,-0.101259 0.0933,-0.242789 0.11062,-0.314509 0.0173,-0.07172 0.0827,-0.211529 0.14528,-0.310685 0.0929,-0.147087 0.14125,-0.180914 0.26282,-0.183694 0.64107,-0.01466 1.41085,-0.004 1.48828,0.02054 0.10116,0.03211 0.13563,0.112396 0.70392,1.6398654 0.0801,0.215177 0.16572,0.427199 0.19037,0.471158 0.0246,0.04396 0.0448,0.101964 0.0448,0.128904 0,0.04453 0.15659,0.4765365 0.36643,1.0109005 0.0848,0.216057 0.13812,0.362442 0.28299,0.777519 0.0476,0.13651 0.10504,0.271141 0.12753,0.299178 0.0225,0.02804 0.0564,0.123463 0.0754,0.212059 0.019,0.08859 0.0712,0.243937 0.11597,0.345206 0.0448,0.101268 0.13743,0.339468 0.20584,0.529333 0.0684,0.189863 0.16141,0.438412 0.20664,0.55233 0.0452,0.113917 0.13872,0.362466 0.20774,0.55233 0.069,0.189865 0.17614,0.464695 0.23802,0.610738 0.0619,0.146043 0.10601,0.322099 0.098,0.391235 l -0.0145,0.125701 -0.81594,0.01256 c -0.92944,0.01432 -0.95202,0.0064 -1.04848,-0.36685 -0.049,-0.18963 -0.10906,-0.361843 -0.32989,-0.945991 -0.0551,-0.145564 -0.12235,-0.279876 -0.14959,-0.298475 -0.0272,-0.0186 -0.64385,-0.03413 -1.37022,-0.03452 -1.31296,-6.96e-4 -1.3211,-9.3e-5 -1.39233,0.101592 -0.0394,0.05626 -0.0717,0.130804 -0.0717,0.165646 0,0.03484 -0.0307,0.128618 -0.0683,0.20839 -0.0376,0.07977 -0.0986,0.238243 -0.13563,0.352163 -0.13807,0.424589 -0.24199,0.686654 -0.29999,0.756529 -0.0499,0.0602 -0.19008,0.07197 -0.85728,0.07197 -0.69845,0 -0.80292,-0.0096 -0.84074,-0.07718 z m 4.50046,-3.026262 c 0.0601,-0.07234 0.0305,-0.189162 -0.22801,-0.900956 -0.0781,-0.215178 -0.16986,-0.484441 -0.20383,-0.598358 -0.034,-0.113917 -0.0951,-0.284131 -0.13573,-0.3782475 -0.0407,-0.09412 -0.074,-0.209258 -0.074,-0.255862 0,-0.0466 -0.0276,-0.12256 -0.0615,-0.168787 -0.0589,-0.08053 -0.0654,-0.0798 -0.15601,0.01744 -0.052,0.05582 -0.12051,0.198427 -0.15224,0.316899 -0.0317,0.1184705 -0.0936,0.3086065 -0.13748,0.4225255 -0.0439,0.113917 -0.13607,0.362466 -0.20483,0.55233 -0.0688,0.189863 -0.17561,0.476839 -0.23743,0.637724 -0.16255,0.423014 -0.16638,0.420908 0.76534,0.420908 0.61151,0 0.78248,-0.01359 0.82567,-0.06562 z M 175.9005,6.5682721 c -0.15179,-0.105207 -1.20085,-1.0605131 -1.38989,-1.2656657 -0.10319,-0.1119903 -0.10447,-0.1208873 -0.0257,-0.1784755 0.0865,-0.063229 1.31356,-0.088703 1.52629,-0.03172 0.0665,0.017864 0.22887,0.2178406 0.45709,0.5632079 0.19464,0.2945528 0.38973,0.5769753 0.43352,0.6276053 0.0744,0.08603 0.10565,0.197981 0.0932,0.3337 -0.004,0.04213 -0.13161,0.05682 -0.47709,0.05488 -0.40802,-0.0023 -0.49145,-0.01628 -0.61735,-0.103562 z"
       id="path6614" /></g></svg>
