<?xml version="1.0" encoding="UTF-8" standalone="no"?>
<!-- Created with Inkscape (http://www.inkscape.org/) -->

<svg
   width="103mm"
   height="37mm"
   viewBox="0 0 103 37"
   version="1.1"
   id="svg2260"
   xml:space="preserve"
   inkscape:version="1.2.2 (732a01da63, 2022-12-09)"
   sodipodi:docname="vub_logo.svg"
   xmlns:inkscape="http://www.inkscape.org/namespaces/inkscape"
   xmlns:sodipodi="http://sodipodi.sourceforge.net/DTD/sodipodi-0.dtd"
   xmlns="http://www.w3.org/2000/svg"
   xmlns:svg="http://www.w3.org/2000/svg"><sodipodi:namedview
     id="namedview2262"
     pagecolor="#ffffff"
     bordercolor="#000000"
     borderopacity="0.25"
     inkscape:showpageshadow="2"
     inkscape:pageopacity="0.0"
     inkscape:pagecheckerboard="0"
     inkscape:deskcolor="#d1d1d1"
     inkscape:document-units="mm"
     showgrid="false"
     inkscape:zoom="1.2623761"
     inkscape:cx="166.74904"
     inkscape:cy="-37.231377"
     inkscape:window-width="2560"
     inkscape:window-height="1417"
     inkscape:window-x="1912"
     inkscape:window-y="-8"
     inkscape:window-maximized="1"
     inkscape:current-layer="layer1" /><defs
     id="defs2257" /><g
     inkscape:label="Laag 1"
     inkscape:groupmode="layer"
     id="layer1"><path
       style="fill:#000000;stroke-width:0.0495529"
       d="M 3.7645699,27.948897 3.7641954,19.066533 2.0623586,14.581992 0.36052373,10.097451 2.0626526,10.084416 3.7647797,10.071381 V 5.2158345 0.36029002 H 22.025038 40.285297 V 18.59577 36.831251 H 22.025038 3.7647797 L 3.7644051,27.948888 Z M 21.826909,27.392541 c 2.048595,-0.438747 3.700948,-1.849375 4.2576,-3.634751 0.305978,-0.981371 0.295847,-0.739729 0.313537,-7.478609 l 0.01617,-6.156954 H 24.90102 23.38783 v 5.966771 c 0,6.574333 0.0064,6.42736 -0.305227,7.065654 -0.20302,0.415905 -0.650252,0.858722 -1.112415,1.101429 -1.577032,0.828185 -3.45534,0.07005 -3.972618,-1.60345 -0.07437,-0.240608 -0.0837,-0.852692 -0.09749,-6.400171 l -0.01525,-6.134119 -2.191408,0.01433 -2.191409,0.01433 -0.335734,0.15903 c -0.402879,0.190832 -0.771199,0.549882 -0.941689,0.917984 -0.06647,0.143506 -0.974002,2.758383 -2.016748,5.810846 -1.042747,3.05246 -1.9122799,5.567843 -1.9322952,5.589736 C 8.255532,22.646485 8.0349443,22.089018 7.7853509,21.38577 7.5357577,20.682521 6.5410331,17.877255 5.5748508,15.151844 l -1.7566931,-4.955294 -0.00207,4.459764 -0.00207,4.459764 1.4699272,3.977319 1.4699255,3.977318 1.5368746,-0.01309 1.5368728,-0.01309 2.4859022,-6.875841 c 1.367248,-3.781714 2.500603,-6.89054 2.518568,-6.908505 0.01796,-0.01796 0.03274,1.872026 0.03284,4.199982 1.48e-4,4.329192 0.02263,4.990261 0.196934,5.796508 0.475175,2.197955 2.383561,3.865617 4.816477,4.208927 0.422674,0.05964 1.521255,0.01845 1.948606,-0.07309 z M 33.917826,27.01897 c 1.876903,-0.17313 3.046027,-0.665404 4.011869,-1.689246 0.596018,-0.631812 0.977104,-1.319888 1.204328,-2.174505 0.106712,-0.401371 0.125659,-0.581636 0.127651,-1.214614 0.0025,-0.797859 -0.05373,-1.135332 -0.295353,-1.772189 -0.334818,-0.88252 -1.207278,-1.806189 -2.026323,-2.145255 -0.09508,-0.03936 -0.254091,-0.1052 -0.353355,-0.146313 l -0.180477,-0.07474 0.310062,-0.200402 c 1.583133,-1.02323 2.007731,-3.359546 0.938344,-5.163178 C 37.114681,11.52794 36.336864,10.88314 35.33904,10.51898 34.282643,10.133443 33.231448,10.054116 29.817321,10.102294 l -2.415705,0.03409 v 8.466476 8.466478 l 2.985564,-4.1e-5 c 1.64206,-2.3e-5 3.23085,-0.02267 3.530646,-0.05032 z M 30.523451,21.866523 V 19.67851 l 1.845846,0.01868 c 1.731597,0.01751 1.865783,0.02531 2.167942,0.1258 0.950916,0.316265 1.537709,0.950832 1.614516,1.745971 0.110271,1.141525 -0.553881,1.98251 -1.847391,2.339265 -0.352493,0.09722 -0.536019,0.108358 -2.083727,0.126462 l -1.697186,0.01985 z m 0.03304,-5.236343 c -0.01817,-0.01817 -0.03304,-0.809777 -0.03304,-1.75913 v -1.726092 h 1.455047 c 0.800276,0 1.574383,0.02263 1.720232,0.05029 1.015611,0.192608 1.63014,1.122514 1.360867,2.059272 -0.177104,0.616119 -0.57029,1.027758 -1.161745,1.216275 -0.264007,0.08415 -0.527089,0.112061 -1.367508,0.145099 -1.318101,0.05181 -1.931888,0.05626 -1.973858,0.01429 z M 60.088423,31.7015 c -0.657477,-0.166497 -1.221281,-0.617918 -1.495373,-1.197301 -0.241011,-0.509451 -0.266789,-0.82835 -0.26867,-3.323372 l -0.0017,-2.291824 h 0.342396 0.342401 l 0.02212,2.366154 c 0.02412,2.579744 0.03263,2.663022 0.319854,3.127588 0.509107,0.823468 1.73408,0.929986 2.408104,0.209398 0.120358,-0.128675 0.270464,-0.36424 0.336049,-0.527363 l 0.118514,-0.294813 0.01521,-2.440482 0.01521,-2.440482 h 0.3464 0.3464 l -0.01569,2.539589 c -0.01556,2.517341 -0.01671,2.542312 -0.130998,2.85064 -0.234985,0.633946 -0.735896,1.131099 -1.360571,1.350365 -0.384393,0.134926 -0.96721,0.16621 -1.339605,0.0719 z m 5.617615,0.02095 C 64.892691,31.563612 64.18353,30.820506 64.090583,30.029678 l -0.03344,-0.284489 h 0.376225 0.376225 l 0.0348,0.185824 c 0.0543,0.289963 0.154704,0.493017 0.351475,0.710821 0.287084,0.317767 0.515711,0.414644 0.980923,0.415651 0.352629,7.49e-4 0.426532,-0.01612 0.668966,-0.152869 0.662276,-0.373559 0.882656,-1.160417 0.495841,-1.770365 -0.200035,-0.315425 -0.491059,-0.509457 -0.988154,-0.658829 -1.280146,-0.384671 -1.533798,-0.524658 -1.822146,-1.005612 -0.658227,-1.097897 0.01442,-2.43755 1.347667,-2.684013 1.030968,-0.190585 2.068334,0.561865 2.189917,1.588447 l 0.02951,0.24911 H 67.71984 c -0.317247,0 -0.37855,-0.01311 -0.37855,-0.08097 0,-0.231788 -0.138048,-0.506527 -0.373613,-0.743533 -0.20956,-0.210844 -0.30147,-0.26547 -0.534374,-0.317592 -0.758532,-0.169753 -1.41701,0.343392 -1.419908,1.106519 -0.0025,0.655205 0.26748,0.892405 1.361615,1.196339 0.95812,0.266152 1.410008,0.586863 1.700651,1.206969 0.116295,0.248122 0.132806,0.344953 0.132806,0.778877 0,0.451073 -0.01373,0.524428 -0.152949,0.817625 -0.407622,0.858411 -1.374243,1.32532 -2.349474,1.134863 z m 4.806636,0 c -0.342901,-0.06696 -0.814424,-0.321862 -1.072132,-0.579576 -0.281724,-0.281724 -0.51,-0.748706 -0.548543,-1.122158 l -0.02844,-0.275531 h 0.37858 c 0.280315,0 0.378579,0.01697 0.378579,0.06533 0,0.369927 0.381548,0.939388 0.758129,1.131504 0.615621,0.314067 1.456203,0.05986 1.781687,-0.538816 0.371101,-0.682592 0.107921,-1.445026 -0.61622,-1.785182 -0.12758,-0.05993 -0.471165,-0.175592 -0.763527,-0.25703 -0.924187,-0.257438 -1.278363,-0.506142 -1.548722,-1.08751 -0.107641,-0.231469 -0.129508,-0.349605 -0.129508,-0.699688 0,-0.356296 0.02123,-0.467016 0.137788,-0.718518 0.325459,-0.702277 0.967831,-1.090307 1.792631,-1.08285 0.531965,0.0049 0.879247,0.140322 1.257832,0.490829 0.324349,0.300287 0.523448,0.678576 0.578922,1.099939 l 0.03425,0.260152 h -0.372519 -0.372515 l -0.03443,-0.183518 c -0.171938,-0.916503 -1.241337,-1.307737 -1.926366,-0.704751 -0.482621,0.424817 -0.529993,1.203691 -0.09636,1.584417 0.220842,0.193901 0.456882,0.296266 1.084054,0.470126 0.961356,0.266501 1.405748,0.581229 1.696451,1.201461 0.116295,0.248121 0.132806,0.344952 0.132806,0.778876 0,0.434639 -0.01643,0.530557 -0.133589,0.780591 -0.412569,0.880368 -1.388758,1.363301 -2.368834,1.171898 z M 47.024581,28.258343 V 24.88149 l 1.251211,0.01783 c 1.151551,0.01641 1.27311,0.02655 1.526126,0.127453 0.579681,0.231168 0.969088,0.665922 1.116379,1.246384 0.143089,0.563891 0.0013,1.08042 -0.411945,1.501174 -0.126543,0.128828 -0.220277,0.242025 -0.20829,0.251547 0.01199,0.0095 0.103255,0.06627 0.202825,0.126105 1.066547,0.640945 1.103042,2.366803 0.06515,3.080895 -0.495203,0.340708 -0.641453,0.366729 -2.166361,0.385449 l -1.375093,0.01687 z m 2.575122,2.67184 c 0.948352,-0.203386 1.339941,-1.334828 0.705157,-2.037457 -0.346578,-0.383621 -0.729974,-0.485464 -1.827571,-0.485464 h -0.709415 v 1.288378 1.288374 h 0.790409 c 0.434724,0 0.90336,-0.02423 1.04142,-0.05383 z m -0.394907,-3.220096 c 0.646907,-0.104951 0.995631,-0.445 1.031335,-1.005673 0.02308,-0.362583 -0.04863,-0.544935 -0.329686,-0.838243 -0.260282,-0.271627 -0.519018,-0.332979 -1.40427,-0.332979 h -0.734301 v 1.11494 1.114943 l 0.557471,-3.75e-4 c 0.306608,-1.87e-4 0.702362,-0.02388 0.879451,-0.05261 z m 3.320161,0.548517 v -3.369601 l 1.275988,9.37e-4 c 1.39763,9.36e-4 1.742959,0.04377 2.193406,0.27203 1.237014,0.626843 1.525512,2.368075 0.553418,3.340169 -0.292383,0.292386 -0.768251,0.544205 -1.103387,0.583899 -0.133961,0.01587 -0.243567,0.04056 -0.243567,0.05488 0,0.02065 0.840111,1.154415 1.723784,2.326318 l 0.121438,0.161046 h -0.4401 -0.440098 l -1.1267,-1.50378 c -0.619685,-0.82708 -1.1267,-1.515137 -1.1267,-1.52902 0,-0.01388 0.28431,-0.03726 0.6318,-0.05195 0.727119,-0.03075 1.059709,-0.129058 1.388394,-0.410398 0.632875,-0.541719 0.645931,-1.586607 0.02696,-2.157159 -0.41333,-0.380995 -0.545583,-0.414516 -1.712668,-0.434102 L 53.2187,25.524623 v 3.051834 3.051838 h -0.34687 -0.34687 z m 21.654633,0 v -3.369601 h 1.8606 1.8606 l -0.01475,0.309707 -0.01475,0.309704 -1.498975,0.01311 -1.498977,0.01311 v 1.188544 1.188544 h 1.461812 1.461812 v 0.322097 0.322093 h -1.46182 -1.461812 v 1.214047 1.214047 h 1.511363 1.511365 v 0.322094 0.322094 h -1.858234 -1.858236 z m 5.153506,0 v -3.369601 h 0.34687 0.346872 v 3.047507 3.047504 h 1.387482 1.387481 v 0.322094 0.322094 h -1.73435 -1.734355 z M 48.983324,22.061193 C 48.252591,21.939026 47.636955,21.50321 47.327636,20.889115 47.063811,20.365338 47.056685,20.285762 47.036635,17.639648 l -0.0187,-2.467497 0.362574,0.01463 0.36258,0.01462 0.02611,2.477647 c 0.02973,2.821697 0.01916,2.74596 0.448904,3.21617 0.32428,0.354811 0.641715,0.493637 1.135744,0.496694 0.309482,0.0019 0.419431,-0.02093 0.654813,-0.136097 0.345111,-0.168848 0.640589,-0.492722 0.792673,-0.868843 0.111795,-0.2765 0.113318,-0.309186 0.127702,-2.747216 l 0.01455,-2.467384 0.357089,0.01452 0.35709,0.01452 -0.0011,2.403318 c -0.0011,2.624976 -0.0097,2.718155 -0.303701,3.303651 -0.284057,0.565651 -0.976123,1.049199 -1.652619,1.15469 -0.359102,0.056 -0.371182,0.05597 -0.717116,-0.0018 z m 32.505326,0.004 c -0.931066,-0.147557 -1.668224,-0.87813 -1.745457,-1.729863 l -0.02743,-0.302557 h 0.378529 c 0.332902,0 0.37853,0.01087 0.37853,0.09011 0,0.278089 0.166399,0.627832 0.418786,0.880221 0.428966,0.428965 0.985301,0.523347 1.542107,0.261617 0.412594,-0.193943 0.764518,-0.726819 0.764518,-1.157621 0,-0.220755 -0.152771,-0.60638 -0.315587,-0.79659 -0.23058,-0.26938 -0.547089,-0.428736 -1.220424,-0.614449 -0.946367,-0.261018 -1.309862,-0.511453 -1.580814,-1.089124 -0.10935,-0.233132 -0.128719,-0.342425 -0.127737,-0.720778 9.37e-4,-0.376676 0.02153,-0.489842 0.132311,-0.728255 0.413074,-0.888979 1.510526,-1.30148 2.482166,-0.932973 0.59503,0.225675 1.107172,0.886731 1.137687,1.468502 l 0.0127,0.24228 -0.353357,0.01444 -0.353363,0.01444 -0.03481,-0.185571 c -0.151688,-0.808488 -0.98461,-1.23674 -1.706155,-0.877177 -0.316647,0.15779 -0.522818,0.423875 -0.597212,0.77077 -0.0837,0.390259 0.0083,0.740804 0.25283,0.963684 0.185475,0.169035 0.469385,0.291144 1.132035,0.486888 0.744203,0.219832 1.019653,0.362157 1.317811,0.680916 0.59204,0.632935 0.67895,1.592993 0.210814,2.328656 -0.430714,0.676853 -1.293188,1.060102 -2.098481,0.932479 z M 53.268251,18.571011 v -3.394376 h 0.465593 0.465595 l 1.875782,2.778496 1.875782,2.778493 0.01279,-2.778493 0.01281,-2.778496 h 0.346453 0.346461 v 3.394376 3.394377 l -0.359259,-0.0023 -0.35926,-0.0023 -1.95734,-2.900906 c -1.076538,-1.595497 -1.974066,-2.911406 -1.994507,-2.924242 -0.02045,-0.01283 -0.03717,1.293608 -0.03717,2.90321 v 2.926545 h -0.34687 -0.346869 v -3.394377 z m 7.009738,3.332436 c -0.01301,-0.03407 -0.01789,-1.555963 -0.01082,-3.381989 l 0.01283,-3.320047 0.359258,-0.01455 0.35926,-0.01455 v 3.396549 3.396548 h -0.348429 c -0.233081,0 -0.356261,-0.02051 -0.372091,-0.06194 z m 3.121552,-3.287205 c -0.761855,-1.844192 -1.392629,-3.372548 -1.401713,-3.396343 -0.0091,-0.02379 0.159466,-0.04327 0.374554,-0.04327 h 0.391078 l 1.160228,2.902742 c 0.638123,1.596507 1.173136,2.910718 1.188909,2.920468 0.01577,0.0097 0.483136,-1.112518 1.038576,-2.493931 0.555438,-1.381409 1.08612,-2.69562 1.179284,-2.920467 l 0.169397,-0.408812 h 0.372064 c 0.361553,0 0.371231,0.0031 0.342549,0.111495 -0.01623,0.06133 -0.641705,1.583216 -1.389929,3.381987 l -1.360417,3.270496 -0.339691,0.01437 -0.33969,0.01437 z m 5.874308,-0.04523 v -3.394376 h 1.858236 1.858234 v 0.322093 0.322094 h -1.511363 -1.511365 v 1.214049 1.214046 h 1.461812 1.461812 v 0.322094 0.322094 h -1.461812 -1.461812 v 1.214046 1.214047 h 1.511365 1.511363 v 0.322096 0.322094 h -1.858234 -1.858236 z m 5.153507,-0.0063 v -3.40061 l 1.300763,0.02794 c 1.405848,0.0302 1.635991,0.06043 2.094862,0.275159 1.073108,0.502167 1.499858,1.770458 0.963825,2.86449 -0.264401,0.539639 -0.804483,0.945417 -1.427471,1.072494 l -0.2983,0.06085 0.938306,1.250144 0.938304,1.250146 h -0.440542 -0.440545 l -1.142615,-1.523753 -1.142618,-1.523754 0.591227,-0.03354 c 0.684549,-0.03883 1.037149,-0.127827 1.320967,-0.333425 0.411444,-0.29805 0.603149,-0.668549 0.606792,-1.17274 0.0029,-0.394714 -0.108759,-0.707702 -0.350181,-0.981967 -0.387317,-0.440014 -0.875343,-0.571025 -2.13768,-0.57386 l -0.681353,-0.0015 v 3.072282 3.072283 h -0.346872 -0.346869 z m 10.604329,0.0063 v -3.394376 h 0.346871 0.34687 v 3.394376 3.394377 h -0.34687 -0.346871 z m 3.220941,0.322094 V 15.820818 H 87.484555 86.716486 V 15.498724 15.17663 h 1.88301 1.883012 v 0.322094 0.322094 h -0.768069 -0.768071 v 3.072282 3.072284 h -0.346872 -0.34687 z m 3.220941,-0.322094 v -3.394376 h 1.858235 1.858237 v 0.322093 0.322094 h -1.511365 -1.511365 v 1.214049 1.214046 h 1.461811 1.461812 v 0.322094 0.322094 H 93.62912 92.167309 v 1.214046 1.214047 h 1.511365 1.511365 v 0.322096 0.322094 h -1.858237 -1.858235 z m 5.153508,0 v -3.394376 h 0.346869 0.34687 v 3.394376 3.394377 h -0.34687 -0.346869 z m 3.220939,0.322094 v -3.072288 h -0.76807 -0.76807 v -0.322682 -0.322684 l 1.895396,0.01298 1.8954,0.01298 0.0148,0.309706 0.0148,0.309705 h -0.77043 -0.77044 v 3.072282 3.072284 h -0.37164 -0.371645 z M 62.439464,12.323069 C 61.782213,12.084512 61.246273,11.417871 61.246273,10.838888 V 10.66731 h 0.340538 0.340538 l 0.03034,0.189744 c 0.07052,0.440971 0.492666,0.806502 0.971431,0.841132 0.162731,0.01176 0.375165,0.0066 0.472065,-0.01165 0.230838,-0.04331 0.511714,-0.294608 0.640706,-0.573249 0.09993,-0.215874 0.103719,-0.308747 0.118699,-2.9112348 l 0.01547,-2.6882459 h 0.34678 0.346777 l -0.01538,2.7873524 -0.01538,2.7873523 -0.130581,0.278488 c -0.183019,0.390326 -0.445842,0.660421 -0.823605,0.846393 -0.280771,0.138224 -0.384412,0.161539 -0.775125,0.174374 -0.32141,0.01058 -0.513969,-0.008 -0.670086,-0.0647 z M 47.838506,8.951633 C 47.077423,7.1086232 46.447288,5.5811541 46.438204,5.5572564 c -0.0091,-0.023898 0.159468,-0.043452 0.374557,-0.043452 h 0.391077 l 1.158672,2.8988479 c 0.637269,1.5943657 1.173858,2.8988457 1.192426,2.8988457 0.01856,0 0.556678,-1.298906 1.195801,-2.8864585 l 1.162041,-2.8864571 0.380419,-0.014477 c 0.209232,-0.00796 0.380418,0.00219 0.380418,0.022542 0,0.020358 -0.627738,1.5487655 -1.394969,3.3964611 l -1.394972,3.3594435 h -0.33069 -0.330692 z M 53.714228,8.902978 V 5.5033982 l 1.350316,0.02302 c 1.461415,0.024911 1.701237,0.060252 2.181047,0.3213971 0.307924,0.1675917 0.685962,0.5787796 0.849027,0.9234658 0.590216,1.2476141 -0.118815,2.6938607 -1.455489,2.9688389 l -0.29173,0.060014 0.844234,1.114942 c 0.464332,0.613216 0.887985,1.176261 0.941451,1.25121 l 0.09721,0.136271 h -0.43725 -0.437246 L 56.207417,10.771234 C 55.575812,9.9290037 55.07236,9.2265924 55.088632,9.2103152 c 0.01628,-0.016274 0.26648,-0.029593 0.556008,-0.029593 0.30604,0 0.644858,-0.03085 0.809345,-0.073694 0.707402,-0.1842563 1.125371,-0.7090112 1.125371,-1.4128946 0,-0.4334806 -0.124348,-0.7265844 -0.442305,-1.0425763 C 56.731381,6.2483944 56.543352,6.1973644 55.361861,6.169764 L 54.407967,6.147481 v 3.0775382 3.0775378 h -0.34687 -0.346869 z m 5.797693,0.00521 V 5.513812 h 0.34687 0.34687 v 3.3943767 3.3943743 h -0.34687 -0.34687 z m 6.960419,3.333038 C 66.45919,12.206826 66.45421,10.68466 66.46127,8.8586338 L 66.4741,5.5385873 h 1.858235 1.858235 l 0.01475,0.3097067 0.01475,0.3097049 h -1.51372 -1.513729 v 1.1885232 1.1885215 l 1.449425,0.013128 1.449423,0.013128 0.01475,0.3097067 0.01475,0.3097048 h -1.464176 -1.464175 v 1.2388229 1.238825 h 1.513729 1.513728 l -0.01475,0.309706 -0.01475,0.309706 -1.847169,0.01299 c -1.451182,0.01015 -1.852294,-3.75e-4 -1.871069,-0.04955 z"
       id="path6633" /></g></svg>
