<?xml version="1.0" encoding="UTF-8" standalone="no"?>
<!-- Created with Inkscape (http://www.inkscape.org/) -->

<svg
   width="144.5mm"
   height="20mm"
   viewBox="0 0 144.5 20"
   version="1.1"
   id="svg3751"
   sodipodi:docname="logo.svg"
   xmlns:inkscape="http://www.inkscape.org/namespaces/inkscape"
   xmlns:sodipodi="http://sodipodi.sourceforge.net/DTD/sodipodi-0.dtd"
   xmlns="http://www.w3.org/2000/svg"
   xmlns:svg="http://www.w3.org/2000/svg">
  <g
     inkscape:label="Laag 1"
     inkscape:groupmode="layer"
     id="layer1"
     style="display:inline">
    <path
       id="rect217"
       style="display:inline;fill:none;stroke:#ffffff;stroke-width:2.47521;stroke-linejoin:round"
       d="M 1.7699826,1.7035549 H 142.99405 V 18.288395 H 1.7699826 Z" />
    <g
       aria-label="SENNE DEPROOST"
       id="text113"
       style="font-size:14.1111px;fill:#ffffff;stroke-width:0.264583"
       transform="translate(-29.868015,-134.79894)">
      <path
         d="m 38.785823,149.82673 c 2.130776,0 3.626552,-1.10066 3.626552,-3.0621 v -0.0282 c 0,-1.72155 -1.128888,-2.44122 -3.132664,-2.96333 -1.707443,-0.43744 -2.130776,-0.64911 -2.130776,-1.29822 v -0.0282 c 0,-0.47978 0.437444,-0.86078 1.269999,-0.86078 0.832555,0 1.693332,0.36689 2.56822,0.97367 l 1.128888,-1.63689 c -1.001888,-0.80433 -2.229553,-1.25589 -3.668886,-1.25589 -2.017887,0 -3.457219,1.18533 -3.457219,2.97744 v 0.0282 c 0,1.96144 1.28411,2.51177 3.273775,3.01977 1.650999,0.42333 1.989665,0.70556 1.989665,1.25589 v 0.0282 c 0,0.57856 -0.536222,0.93133 -1.425221,0.93133 -1.128888,0 -2.060221,-0.46566 -2.94922,-1.19944 l -1.28411,1.53811 c 1.185332,1.05833 2.69522,1.58044 4.190997,1.58044 z"
         id="path3777" />
      <path
         d="m 44.303254,149.68562 h 7.521217 v -1.93322 h -5.362218 v -2.07433 h 4.656663 v -1.93322 h -4.656663 v -2.00378 h 5.291662 v -1.93322 h -7.450661 z"
         id="path3779" />
      <path
         d="m 53.757693,149.68562 h 2.144888 v -6.27944 l 4.783663,6.27944 h 1.848554 v -9.87777 h -2.144887 v 6.08189 l -4.628441,-6.08189 h -2.003777 z"
         id="path3781" />
      <path
         d="m 64.905475,149.68562 h 2.144887 v -6.27944 l 4.783663,6.27944 h 1.848554 v -9.87777 h -2.144887 v 6.08189 l -4.628441,-6.08189 h -2.003776 z"
         id="path3783" />
      <path
         d="m 76.053256,149.68562 h 7.521217 v -1.93322 h -5.362219 v -2.07433 h 4.656664 v -1.93322 h -4.656664 v -2.00378 h 5.291663 v -1.93322 h -7.450661 z"
         id="path3785" />
      <path
         d="m 89.741016,149.68562 h 3.85233 c 3.104442,0 5.249329,-2.159 5.249329,-4.93888 v -0.0282 c 0,-2.77989 -2.144887,-4.91067 -5.249329,-4.91067 h -3.85233 z m 2.173109,-1.96144 v -5.95488 h 1.679221 c 1.777999,0 2.977442,1.22766 2.977442,2.97744 v 0.0282 c 0,1.74978 -1.199443,2.94922 -2.977442,2.94922 z"
         id="path3787" />
      <path
         d="m 100.77589,149.68562 h 7.52122 v -1.93322 h -5.36222 v -2.07433 h 4.65666 v -1.93322 h -4.65666 v -2.00378 h 5.29166 v -1.93322 h -7.45066 z"
         id="path3789" />
      <path
         d="m 110.23033,149.68562 h 2.17311 v -2.96333 h 1.65099 c 2.21545,0 3.99345,-1.18533 3.99345,-3.47133 v -0.0282 c 0,-2.01789 -1.42522,-3.41489 -3.78178,-3.41489 h -4.03577 z m 2.17311,-4.89655 v -3.01977 h 1.67922 c 1.08655,0 1.76388,0.52211 1.76388,1.49577 v 0.0282 c 0,0.84667 -0.63499,1.49578 -1.72155,1.49578 z"
         id="path3791" />
      <path
         d="m 119.65654,149.68562 h 2.1731 v -3.16088 h 1.70745 l 2.11666,3.16088 h 2.54 l -2.413,-3.52777 c 1.25589,-0.46567 2.11667,-1.46756 2.11667,-3.06211 v -0.0282 c 0,-0.93134 -0.29634,-1.70745 -0.84667,-2.25778 -0.64911,-0.64911 -1.62277,-1.00189 -2.87866,-1.00189 h -4.51555 z m 2.1731,-5.07999 v -2.83633 h 2.159 c 1.05834,0 1.70745,0.47977 1.70745,1.41111 v 0.0282 c 0,0.83255 -0.60678,1.397 -1.66511,1.397 z"
         id="path3793" />
      <path
         d="m 134.65663,149.85496 c 3.04799,0 5.26344,-2.30011 5.26344,-5.10822 v -0.0282 c 0,-2.80811 -2.18722,-5.08 -5.23522,-5.08 -3.048,0 -5.26344,2.30011 -5.26344,5.10822 v 0.0282 c 0,2.80811 2.18722,5.08 5.23522,5.08 z m 0.0282,-2.00378 c -1.74978,0 -2.99156,-1.41111 -2.99156,-3.10444 v -0.0282 c 0,-1.69334 1.21356,-3.07622 2.96334,-3.07622 1.74977,0 2.99155,1.41111 2.99155,3.10444 v 0.0282 c 0,1.69333 -1.21356,3.07622 -2.96333,3.07622 z"
         id="path3795" />
      <path
         d="m 146.65106,149.85496 c 3.048,0 5.26344,-2.30011 5.26344,-5.10822 v -0.0282 c 0,-2.80811 -2.18722,-5.08 -5.23521,-5.08 -3.048,0 -5.26344,2.30011 -5.26344,5.10822 v 0.0282 c 0,2.80811 2.18722,5.08 5.23521,5.08 z m 0.0282,-2.00378 c -1.74978,0 -2.99156,-1.41111 -2.99156,-3.10444 v -0.0282 c 0,-1.69334 1.21356,-3.07622 2.96333,-3.07622 1.74978,0 2.99156,1.41111 2.99156,3.10444 v 0.0282 c 0,1.69333 -1.21356,3.07622 -2.96333,3.07622 z"
         id="path3797" />
      <path
         d="m 157.29085,149.82673 c 2.13078,0 3.62655,-1.10066 3.62655,-3.0621 v -0.0282 c 0,-1.72155 -1.12888,-2.44122 -3.13266,-2.96333 -1.70744,-0.43744 -2.13078,-0.64911 -2.13078,-1.29822 v -0.0282 c 0,-0.47978 0.43745,-0.86078 1.27,-0.86078 0.83256,0 1.69333,0.36689 2.56822,0.97367 l 1.12889,-1.63689 c -1.00189,-0.80433 -2.22955,-1.25589 -3.66889,-1.25589 -2.01788,0 -3.45722,1.18533 -3.45722,2.97744 v 0.0282 c 0,1.96144 1.28411,2.51177 3.27378,3.01977 1.651,0.42333 1.98966,0.70556 1.98966,1.25589 v 0.0282 c 0,0.57856 -0.53622,0.93133 -1.42522,0.93133 -1.12888,0 -2.06022,-0.46566 -2.94922,-1.19944 l -1.28411,1.53811 c 1.18534,1.05833 2.69522,1.58044 4.191,1.58044 z"
         id="path3799" />
      <path
         d="m 164.89674,149.68562 h 2.17311 v -7.87399 h 3.00566 v -2.00378 h -8.18444 v 2.00378 h 3.00567 z"
         id="path3801" />
    </g>
  </g>
</svg>
