<?xml version="1.0" encoding="UTF-8" standalone="no"?>
<!-- Created with Inkscape (http://www.inkscape.org/) -->

<svg
   width="205mm"
   height="28mm"
   viewBox="0 0 205 28"
   version="1.1"
   id="svg3930"
   xml:space="preserve"
   inkscape:version="1.2.2 (732a01da63, 2022-12-09)"
   sodipodi:docname="signature.svg"
   xmlns:inkscape="http://www.inkscape.org/namespaces/inkscape"
   xmlns:sodipodi="http://sodipodi.sourceforge.net/DTD/sodipodi-0.dtd"
   xmlns="http://www.w3.org/2000/svg"
   xmlns:svg="http://www.w3.org/2000/svg"><sodipodi:namedview
     id="namedview3932"
     pagecolor="#000000"
     bordercolor="#000000"
     borderopacity="0.25"
     inkscape:showpageshadow="2"
     inkscape:pageopacity="0"
     inkscape:pagecheckerboard="0"
     inkscape:deskcolor="#d1d1d1"
     inkscape:document-units="mm"
     showgrid="false"
     showguides="false"
     inkscape:zoom="1.2623761"
     inkscape:cx="476.48242"
     inkscape:cy="-131.49806"
     inkscape:window-width="2560"
     inkscape:window-height="1417"
     inkscape:window-x="1912"
     inkscape:window-y="-8"
     inkscape:window-maximized="1"
     inkscape:current-layer="layer1" /><defs
     id="defs3927" /><g
     inkscape:label="Laag 1"
     inkscape:groupmode="layer"
     id="layer1"><path
       style="fill:#ffffff;stroke-width:0.0938205"
       d="M 7.063309,27.19388 C 2.1784949,26.923671 -0.17296411,25.681573 0.67324593,23.818494 1.5813945,21.819038 6.0371402,20.078118 15.178761,18.15099 c 0.516014,-0.108779 1.107081,-0.238332 1.313488,-0.287896 0.589028,-0.141442 4.94956,-0.99756 6.145229,-1.206514 0.593417,-0.103705 1.564453,-0.274346 2.157864,-0.379205 1.053797,-0.18621 3.138987,-0.533206 4.831747,-0.804048 0.835618,-0.1337 2.002345,-0.304259 5.535399,-0.809201 0.36121,-0.05162 0.910057,-0.131106 1.219667,-0.17663 0.309604,-0.04552 0.900673,-0.127127 1.313481,-0.181344 0.41281,-0.05422 1.193866,-0.160056 1.735674,-0.2352 0.541813,-0.07515 2.019484,-0.265046 3.283712,-0.422008 2.199481,-0.273076 3.002017,-0.374778 4.456466,-0.564748 0.361207,-0.04718 1.036714,-0.131436 1.501124,-0.187236 0.945598,-0.113617 1.943571,-0.23813 3.025705,-0.377505 1.149049,-0.147992 4.832535,-0.588434 7.880906,-0.942335 1.709337,-0.198446 2.355057,-0.274803 3.072614,-0.363343 1.094194,-0.135012 3.5896,-0.427559 6.426693,-0.753425 1.367431,-0.157064 2.741962,-0.323678 3.054514,-0.370257 l 0.568282,-0.08469 1.386858,-0.8126244 c 2.252094,-1.3196051 3.839275,-2.6160245 3.963565,-3.2374542 0.03539,-0.177059 0.160464,-0.3237347 0.374099,-0.4387857 l 0.318598,-0.026934 0.249504,-0.006 c 1.102329,-0.026513 -0.238018,2.1036148 -2.949265,3.8428749 -0.564006,0.3618087 -0.564032,0.3618397 -0.281463,0.3236197 0.116104,-0.0157 0.591068,-0.07475 1.055482,-0.131228 C 84.717416,8.5584019 88.20488,8.0785542 92.5336,7.3566285 96.129564,6.7569081 97.759742,6.3449031 98.707799,5.7961764 l 0.404267,-0.2339757 -0.1169,-0.14086 C 97.864566,4.0590622 88.932288,2.7340849 77.287806,2.2013707 67.191073,1.7394621 47.269082,1.7390861 37.554908,2.2006494 35.157371,2.3145598 31.346616,2.577142 29.298721,2.7695449 c -1.498125,0.1407522 -4.053776,0.4284386 -4.925564,0.5544657 -0.30961,0.044758 -0.826793,0.1096386 -1.149304,0.1441796 l -0.586375,0.062801 V 3.3932425 c 0,-0.147402 0.299699,-0.2443221 1.548034,-0.5006213 0.731833,-0.1502535 0.996938,-0.200948 2.15787,-0.4126311 3.777742,-0.6888303 8.564175,-1.1902306 15.245797,-1.59706547 12.303392,-0.74913537 34.085836,-0.51155217 43.602985,0.47558257 2.55723,0.2652415 3.515519,0.3776662 4.808291,0.564106 0.33541,0.048369 1.074246,0.1550548 1.641856,0.2370737 4.149427,0.5995856 7.447365,1.6284479 8.240232,2.5707051 l 0.238377,0.283301 0.49861,-0.0066 c 0.52375,-0.05202 0.81112,-0.142814 1.42545,-0.2705 l 0.64537,-0.1538057 0.18532,-0.4967893 c 0.90635,-2.4296961 6.18018,-4.58221583 7.68781,-3.13781327 l 0.18647,0.27687517 0.0786,0.3209281 c 0.21771,0.8889546 -1.5005,1.96186 -4.50337,3.1412267 -0.49021,0.1925283 -0.9124,0.3717083 -0.93821,0.3981783 -0.0258,0.02647 0.70568,0.02207 1.62551,-0.0098 1.58462,-0.05485 2.3601,-0.112927 4.82517,-0.361395 l 1.05603,-0.1064408 0.52571,0.1463258 0.52572,0.146327 0.49519,-0.2189929 c 0.27235,-0.1204458 0.75391,-0.2724322 1.07013,-0.3377483 l 0.57496,-0.1187552 0.4442,0.1187196 c 0.5154,0.1377493 0.83378,0.4017818 0.91157,0.7559418 0.0349,0.1589487 0.17561,0.3150357 0.38624,0.4284637 l 0.33132,0.178429 0.34573,-0.18023 c 0.59665,-0.3110267 1.23345,-0.7432947 1.23891,-0.8409919 0.005,-0.087503 0.23076,-0.2610406 1.17088,-0.8996058 0.2064,-0.1401983 0.50066,-0.3711425 0.65391,-0.5132089 0.15324,-0.1420659 0.491,-0.3526315 0.75056,-0.4679215 l 0.47193,-0.2096199 2.08634,-0.055331 c 2.53437,-0.067214 2.83923,0.015213 2.83923,0.7676742 v 0.3442575 l -0.5434,0.5168784 c -0.93779,0.8920182 -1.07748,1.2798869 -0.6242,1.7331746 0.37899,0.378986 1.89191,0.8564327 1.69277,0.5341977 -1.07873,-1.7454211 5.11195,-4.4293133 7.59029,-3.2906728 1.13564,0.5217606 2.11971,0.4949534 3.70589,-0.1009539 2.15949,-0.8112837 4.09262,-0.8438129 5.75125,-0.096778 l 0.45039,0.2028542 0.64213,-0.099629 c 0.35318,-0.054797 1.16375,-0.2533963 1.8013,-0.4413327 0.69501,-0.2048783 1.35933,-0.3417893 1.65908,-0.3419196 l 0.49992,-1.876e-4 0.41969,0.2958199 0.41967,0.2958203 0.4408,-0.3695285 c 1.52598,-1.2792758 3.62459,-2.08197054 4.6746,-1.78798367 0.6452,0.1806432 0.82078,0.85181497 0.25968,0.99264237 -0.24354,0.061123 -1.96355,1.1477662 -1.90046,1.2006395 0.0186,0.01564 0.96275,-0.00524 2.09798,-0.046427 1.13523,-0.041173 3.35173,-0.1204695 4.92556,-0.1762091 1.57384,-0.055739 4.55029,-0.1634474 6.61434,-0.2393486 9.49697,-0.3492377 19.31515,-0.55466 26.69187,-0.558466 6.85762,-0.00356 9.1944,0.06547 9.1944,0.2715286 0,0.155161 -1.85571,0.3067878 -5.25394,0.4292891 -5.75678,0.2075236 -7.83934,0.2830782 -10.36714,0.3761149 -2.57228,0.094673 -12.70024,0.421558 -16.04329,0.5178037 -2.01833,0.058107 -5.81274,0.1976464 -8.91291,0.3277717 -1.23843,0.051981 -4.06712,0.1599468 -6.28597,0.2399246 l -4.03427,0.1454139 -0.20641,0.2516738 c -0.89343,1.0893345 0.18852,2.3505949 2.4581,2.8654816 1.51121,0.3428397 1.83817,0.3700387 4.67251,0.3886977 2.86075,0.01884 3.12722,-0.3434899 2.86283,-0.079112 -0.17362,0.173618 -1.48527,0.8966336 -3.40725,1.1758506 -0.48268,0.07012 -1.72583,0.2984873 -2.82328,0.2322947 l -1.86773,-0.1126527 -0.93821,-0.221359 c -2.1732,-0.5127457 -4.08119,-1.9379908 -4.08119,-3.0486122 0,-0.255707 -0.19943,-0.268984 -0.45326,-0.03017 -0.77487,0.7289954 -3.57799,2.2844335 -4.589,2.5464115 -1.54845,0.4012407 -2.35148,-0.193793 -1.13116,-0.8381584 1.07075,-0.5653827 3.59129,-2.3456028 4.10228,-2.8973743 0.26692,-0.2882283 0.24687,-0.2908536 -0.79037,-0.1034453 -0.41281,0.074586 -0.92183,0.1364416 -1.13116,0.1374578 l -0.38058,0.00187 -0.4631,0.431256 c -3.86173,3.5962119 -10.25155,3.8273509 -8.4317,0.304998 l 0.12857,-0.248859 -0.13406,-0.05144 c -0.0834,-0.03202 -0.37484,0.199001 -0.77168,0.6117477 -1.73672,1.8063031 -4.48826,2.8213665 -6.31377,2.3291978 -0.23221,-0.06261 -0.95834,-0.148407 -1.61361,-0.190675 -2.31021,-0.149016 -3.48018,-0.7100357 -3.87067,-1.8560341 -0.22539,-0.6615054 -0.18878,-0.8385574 0.3007,-1.4543147 0.24914,-0.3134058 0.28143,-0.5188254 0.0523,-0.3330074 -0.089,0.072166 -0.12967,0.080289 -0.0926,0.018484 0.0963,-0.1605944 -0.81054,-0.099341 -1.04087,0.070306 -0.61751,0.4548135 -1.67047,1.2559354 -1.71004,1.3010454 -0.0258,0.02942 -0.30022,0.241214 -0.60984,0.4706707 -0.3096,0.229457 -0.61671,0.4699867 -0.68247,0.5345107 -0.0658,0.06452 -0.41176,0.313364 -0.76889,0.5529757 l -0.64934,0.4356597 -0.48517,-0.0037 c -0.6828,-0.0053 -1.4023,-0.2561147 -1.8124,-0.6318224 -0.19255,-0.176392 -0.40263,-0.320714 -0.46684,-0.320714 -0.0642,0 -0.16441,-0.04767 -0.22267,-0.105936 -0.39395,-0.3939367 -2.42246,0.316604 -4.20042,1.4713004 -0.56761,0.3686357 -1.07424,0.6872014 -1.12585,0.7079204 -0.0516,0.02072 -0.68488,0.392464 -1.4073,0.8260987 -1.65696,0.9945932 -1.58143,0.9511842 -3.98736,2.2921162 -2.42455,1.351307 -3.72909,1.982391 -4.53468,2.193679 l -0.60071,0.157554 -0.399107,-0.119577 c -0.526817,-0.157896 -0.845254,-0.48333 -0.845254,-0.8639 V 12.68222 l 0.316267,-0.292539 c 0.17397,-0.160897 0.564487,-0.418805 0.867844,-0.573128 0.30335,-0.154324 0.97375,-0.507321 1.48976,-0.784436 0.51601,-0.277117 2.24699,-1.1567707 3.84663,-1.9547874 4.52318,-2.2564935 5.92672,-2.9999262 5.8356,-3.0910362 -0.0207,-0.02067 -0.32888,0.0053 -0.6849,0.05755 -0.35603,0.05233 -1.2595,0.186048 -2.00771,0.2971497 -0.79723,0.118379 -1.86532,0.205885 -2.58007,0.211377 l -1.21966,0.0094 -0.53323,-0.164992 c -0.29327,-0.09075 -0.65591,-0.2682287 -0.80587,-0.3944057 l -0.27264,-0.229414 -0.71644,0.174754 c -0.39404,0.09611 -1.10799,0.226373 -1.58654,0.28946 l -0.870107,0.1147037 -0.28146,0.261855 c -1.715561,1.5960551 -9.15159,3.1147652 -23.595804,4.8191259 -1.109425,0.130909 -2.35489,0.279452 -2.767699,0.330098 -0.41281,0.05065 -1.001132,0.118911 -1.307384,0.151701 l -0.556819,0.05962 -1.225766,0.589301 c -0.674169,0.324116 -1.426305,0.678966 -1.671411,0.788554 -0.245107,0.109588 -0.646185,0.288498 -0.891292,0.397577 -0.245107,0.109079 -0.614524,0.273994 -0.820926,0.366478 -0.206407,0.09248 -0.755257,0.324447 -1.219665,0.515476 -0.464409,0.19103 -1.030177,0.431151 -1.257253,0.533599 -2.263588,1.021256 -9.505195,3.622662 -13.519445,4.856599 -0.696616,0.214132 -1.519889,0.467812 -1.829496,0.563731 -1.989475,0.616364 -7.248572,2.020114 -9.493575,2.534011 -4.246824,0.972127 -8.071762,1.735685 -11.334532,2.262667 -0.309606,0.05001 -0.795126,0.128814 -1.078932,0.175131 -0.685364,0.111847 -4.259713,0.629654 -5.207031,0.75433 -0.412809,0.05433 -1.046095,0.137945 -1.407305,0.185819 -1.331668,0.176483 -2.299149,0.276844 -5.455656,0.565946 -1.063508,0.09741 -6.8012998,0.191997 -7.913733,0.13046 z m 7.03652,-0.967061 c 0.438609,-0.04867 1.282995,-0.137917 1.876407,-0.198319 1.451296,-0.147721 3.979679,-0.465802 5.207026,-0.655071 2.406896,-0.371161 4.24992,-0.709592 7.693268,-1.412699 0.601959,-0.122916 3.811024,-0.830897 4.221912,-0.931435 6.177226,-1.511468 7.21942,-1.7787 10.507874,-2.694354 1.367639,-0.380811 2.023876,-0.562329 2.814608,-0.778531 0.342538,-0.09366 4.937418,-1.448514 5.723039,-1.687509 0.666908,-0.202881 4.166941,-1.316742 4.972476,-1.582456 2.851521,-0.940604 10.349527,-3.73291 10.250795,-3.817462 -0.0134,-0.01148 -0.298808,0.01638 -0.634213,0.06195 -0.33541,0.04555 -1.918625,0.230607 -3.518262,0.411234 -2.903954,0.32791 -3.87997,0.442089 -5.207027,0.609147 -0.387009,0.04872 -1.083625,0.133158 -1.548036,0.18764 -0.46441,0.05448 -1.161025,0.140124 -1.548034,0.19031 -0.387009,0.05019 -2.26576,0.282082 -4.175003,0.515319 -1.909244,0.233239 -3.745776,0.463027 -4.081184,0.510643 -0.335407,0.04762 -0.968694,0.133581 -1.407304,0.191033 -0.43861,0.05745 -1.071897,0.14189 -1.407304,0.187641 -0.335408,0.04575 -0.947586,0.128584 -1.360394,0.184077 -2.793565,0.375528 -9.228923,1.277971 -10.062228,1.411046 -0.322509,0.0515 -0.860801,0.135862 -1.196212,0.187462 -0.335405,0.0516 -0.884254,0.13604 -1.21966,0.187641 -0.33541,0.05161 -0.873699,0.135541 -1.19621,0.18653 -0.322506,0.05099 -1.409649,0.219367 -2.41587,0.374168 -5.037551,0.774999 -10.981761,1.845849 -13.557035,2.4423 -0.206407,0.04781 -0.776364,0.177952 -1.266577,0.289217 -6.5224351,1.480415 -10.62108667,3.373644 -9.5462137,4.40954 0.6486118,0.625092 2.6171931,1.14099 5.1366585,1.346146 0.7620994,0.06206 6.1271512,-0.03468 6.9427032,-0.125201 z M 132.07169,6.0048694 c 0.66449,-0.2501107 1.37785,-0.6801077 2.00972,-1.2113964 l 0.40761,-0.342731 h -0.28301 c -0.92568,0 -3.29991,1.2287347 -3.29991,1.7078044 0,0.1462307 0.56763,0.07139 1.16559,-0.153677 z m 9.04305,-0.3895527 c 1.27842,-0.4627747 1.80845,-0.7405087 2.22261,-1.1646451 l 0.36018,-0.3688647 -0.16187,-0.062121 c -0.78259,-0.300308 -4.27956,1.2949328 -4.27956,1.9522405 0,0.165666 0.8848,-0.0041 1.85864,-0.3566097 z m -35.12418,-2.0166 c 1.01396,-0.347894 2.64296,-1.1889909 3.02102,-1.5598394 l 0.16626,-0.2837867 -0.16039,-0.1014691 c -0.67433,-0.4266135 -2.12129,0.612197 -3.25366,1.6629689 -0.58012,0.53831 -0.5671,0.5545022 0.22677,0.2821246 z"
       id="path4613"
       sodipodi:nodetypes="csssssssssssssssssscscscssscsscsssssscssssssssccccsscssscscccsscssscscssscsscsscssscssscccssscsssssssssscsssssscsssssssscssccsssssssssscsccsscsssssccsccsssscsccsscsscsssscsssssssssssscscccssssssssscssssssssssscssssssccsscssssscssssscssss" /></g></svg>
